<?xml version="1.0" encoding="utf-8"?>
<!-- Generator: Adobe Illustrator 19.0.0, SVG Export Plug-In . SVG Version: 6.00 Build 0)  -->
<svg version="1.1" id="Layer_1" xmlns="http://www.w3.org/2000/svg" xmlns:xlink="http://www.w3.org/1999/xlink" x="0px" y="0px"
	 viewBox="3 2 26 13" style="enable-background:new 0 0 30.3 16.7;" xml:space="preserve">
<style type="text/css">
	.st0{display:none;fill-rule:evenodd;clip-rule:evenodd;fill:#241C2B;}
	.st1{display:none;}
	.st2{display:inline;fill-rule:evenodd;clip-rule:evenodd;fill:#2B0D32;}
	.st3{display:inline;fill-rule:evenodd;clip-rule:evenodd;fill:#111921;}
	.st4{display:inline;fill-rule:evenodd;clip-rule:evenodd;fill:#6CBE45;}
	.st5{display:inline;fill-rule:evenodd;clip-rule:evenodd;fill:#561F64;}
	.st6{fill-rule:evenodd;clip-rule:evenodd;fill:#FFFFFF;}
	.st7{fill-rule:evenodd;clip-rule:evenodd;fill:#241C2B;}
</style>
<rect id="Background" x="-14" y="-3" class="st0" width="49.6" height="27.5"/>
<g id="Hat" class="st1">
	<path class="st2" d="M27.9,10.4c0.2-0.1,0.3-0.4,0.3-0.6c0,0,0,0,0,0c0,0,0,0,0,0l0,0C28,9.6,28,9.5,27.9,9.5c0,0.2,0.1,0.3,0,0.5
		C27.9,10.1,27.9,10.2,27.9,10.4z"/>
	<path class="st2" d="M21.9,11c0.2,0.2,0.3,0.4,0.4,0.7c0,0,0.1,0,0.1,0c0.3,0.1-0.2-0.1,0.1,0l0.1,0c0.7,0,1.3,0,2-0.1
		c0.6-0.1,1.2-0.3,1.8-0.4c0,0,0,0,0.1-0.1c0,0,0.1,0,0.1,0c0.1-0.1,0.1-0.1,0.3-0.1c0.2,0,0.3-0.1,0.5-0.2c0-0.1,0,0,0.1-0.1
		c0.1-0.1,0.1-0.1,0.2-0.1l0.2-0.2c0-0.2,0-0.3,0.1-0.5c0-0.2,0-0.3,0-0.5C28,9.5,28,9.6,28.1,9.7c-0.1-0.6-0.9-0.3-1.4-0.3l0.2,0
		c-0.1,0.2-0.4,0.2-0.6,0.2c-1.3,0.3-2,0.4-3.2,0.9C22.9,10.5,21.9,11,21.9,11z"/>
	<path class="st3" d="M21.7,11l0.1,0c0,0,1-0.4,1.2-0.5c1.3-0.5,1.9-0.7,3.2-0.9c0.3-0.1,0.5-0.1,0.6-0.2l-0.2,0
		c-1.4,0.3-2.6,0.5-3.9,1.1c-0.2,0.1-0.4,0.2-0.6,0.2C22.1,10.7,21.8,10.8,21.7,11z"/>
	<path class="st4" d="M4.3,6.8l1,1.6C5.5,8.8,5.6,9,5.8,9.3c0.1,0.2,0.4,0.7,0.5,0.8c0-0.4,0-0.9,0.1-1.2l0-0.3
		c0.1-0.3,0.2-0.5,0.2-0.8c0-0.1,0.1-0.4,0.2-0.5l0.3-0.7c0-0.1,0.1-0.1,0.1-0.2c0.1-0.1,0.2-0.3,0.3-0.4C7.6,5.8,7.8,5.5,8,5.3
		C8.2,5,8.4,4.8,8.6,4.6c0.1-0.1,0.1-0.1,0.2-0.1C9.7,3.7,9.3,4,10.1,3.6c0,0,0,0,0,0l0.1-0.1c-0.5,0-1.4,0.4-1.8,0.6
		C7.1,4.7,5.9,5.3,4.9,6.3L4.3,6.8z"/>
	<path class="st5" d="M10.2,3.5L10.2,3.5c-0.1,0.1-0.1,0.1-0.1,0.1C9.3,4,9.7,3.7,8.8,4.4C8.7,4.5,8.7,4.5,8.6,4.6
		C8.4,4.8,8.2,5,8,5.3C7.8,5.5,7.6,5.8,7.5,6.1C7.4,6.2,7.3,6.4,7.2,6.5c0,0.1-0.1,0.2-0.1,0.2L6.8,7.4C6.7,7.5,6.6,7.8,6.6,7.9
		C6.5,8.2,6.4,8.3,6.3,8.7l0,0.3c-0.1,0.3,0,0.8-0.1,1.2c0,0.5,0.1,0.5,0.2,0.9c0.1,0.1,0.1,0.3,0.2,0.4c0.1,0.2,0.1,0.3,0.2,0.4
		L7,11.9c0,0.1,0.2,0.5,0.3,0.8c0.1,0.1,0.2,0.5,0.2,0.6l0.2,0c1.1,0.1,1.6-0.2,2.6-0.5c0.3-0.1,0.5-0.2,0.8-0.3l6.9-2.3
		c0.3-0.1,0.4-0.1,0.6-0.1L21,9.6c0.2,0,0.1,0,0.2-0.1c0-0.2,0-0.2,0-0.3C21,8.9,21,8.9,20.9,8.6c0-0.1-0.1-0.1-0.1-0.2
		c-0.1-0.1-0.1-0.2-0.2-0.4c-0.1-0.1-0.2-0.2-0.2-0.4c-0.1-0.1,0-0.1-0.1-0.2c-0.1-0.1-0.6-0.9-0.8-1c0,0,0,0,0,0l-0.2-0.2
		c0,0,0,0,0,0c-0.4-0.6-1-1.1-1.5-1.6c-0.5-0.5-1.3-0.8-2.1-1c-0.8-0.2-1.8-0.3-2.7-0.3c-0.2,0-0.2,0-0.4,0c-0.4,0-0.7,0-1.1,0
		C11,3.3,10.7,3.3,10.2,3.5z"/>
	<path class="st4" d="M22.4,9.2l-0.7,0.2c-0.1,0.1-0.2,0.1-0.3,0.1c-0.1,0-0.1,0.1-0.3,0.1c-0.1,0.1,0,0.1-0.2,0.1l-2.2,0.5
		c-0.3,0.1-0.3,0-0.6,0.1l-6.9,2.3c-0.3,0.1-0.5,0.2-0.8,0.3c-1,0.3-1.6,0.6-2.6,0.5c0.1,0.2,0.3,0.2,0.7,0.4
		c1.4,0.7,2.9,0.8,4.5,0.8c1.4,0,1.2-0.2,1.9-0.2l0.9-0.3c0.7-0.2,1.9-0.8,2.6-1.2c0.5-0.3,1.1-0.6,1.6-0.9c0.3-0.2,1.3-0.8,1.7-0.9
		c0.2-0.2-0.2,0,0,0c0.1,0,0,0,0.1,0c0.1-0.2,0.3-0.2,0.5-0.3c0.2-0.1,0.4-0.2,0.6-0.2c1.3-0.6,2.5-0.8,3.9-1.1
		c0.5,0.1,1.3-0.2,1.4,0.3l0,0c0,0,0,0,0,0c0,0,0,0,0,0c0-0.4,0-0.7-0.4-0.8c-0.1,0-0.1,0.1-0.2,0c-0.2,0-0.1,0-0.2-0.1l0,0l-0.7,0
		c-0.1,0-0.3,0-0.3-0.1c-0.4,0-0.7,0-1.1,0c-0.3,0-0.6,0.1-1,0.1C23.8,9,23,9.2,22.4,9.2z"/>
</g>
<g id="Hat_2">
	<path class="st6" d="M10.2,3.5C5.5,4,3.6,7.2,3.6,11.6c1.2,1.3,2.3,2,4.2,1.8L10.2,3.5z"/>
	<path class="st6" d="M7.8,13.4c0,0-4.4-7.6,3.1-10s10.4,6.2,10.4,6.2C16.6,9.9,10.9,13.1,7.8,13.4z"/>
	<path class="st6" d="M28.2,9.8c-0.3,1.5-3.3,2-7.8,1.9c0,0,1.7-1.6,3.8-2.1S28.2,9.8,28.2,9.8z"/>
	<path class="st6" d="M7.8,13.4c0,0,5.4,3.5,12.5-1.6c4.3-3.2,8-1.9,8-1.9s1-1.8-5.7-0.6C17.3,9.9,7.8,13.4,7.8,13.4z"/>
</g>
<g id="Letters">
	<path class="st7" d="M11.4,8.9c-0.1,0-0.1,0.1-0.1,0.1c0,0.1,0,0.2,0.1,0.3c0.1,0.3,0.2,0.4,0.2,0.6c0,0,0,0.1,0.1,0.1
		c0,0,0.1,0,0.1,0c0.1,0,0.2,0.1,0.3,0.2c0,0.1,0,0.3-0.2,0.4c-0.1,0.1-0.4,0.2-0.8,0.4c-0.7,0.2-1.2,0.2-1.2-0.1c0,0,0-0.1,0-0.1
		c0,0,0-0.1,0.1-0.2c0.1-0.1,0.1-0.2,0.1-0.3c0-0.1,0-0.2-0.1-0.4c0-0.1-0.2-0.7-0.5-1.5C9.4,8.1,9.3,7.9,9.2,7.8
		C9.2,7.7,9.1,7.7,9,7.7c-0.1,0-0.2,0-0.2-0.1c0,0-0.1-0.1-0.1-0.1c0-0.1,0-0.1,0-0.2c0-0.1,0.1-0.1,0.2-0.2C9,7,9.1,7,9.2,6.9
		c0.1,0,0.2-0.1,0.5-0.1c0.1,0,0.1,0,0.2-0.1c0.2-0.1,0.4-0.1,0.7-0.3c0.2-0.1,0.3-0.1,0.4-0.2c0.4-0.1,0.8-0.2,1.2,0
		c0.3,0.1,0.5,0.3,0.6,0.6c0.1,0.2,0.1,0.4,0,0.5c0,0.2-0.1,0.3-0.3,0.5C12.6,8,12.6,8,12.6,8.1c0,0.1,0.1,0.1,0.2,0.1
		c0.2,0,0.4,0.1,0.6,0.2c0.1,0.1,0.3,0.3,0.4,0.6c0.1,0.1,0.1,0.2,0.2,0.2c0,0,0.1,0,0.3,0c0,0,0.1,0,0.1,0c0,0,0.1,0.1,0.1,0.1
		c0,0.1,0,0.1,0,0.2c0,0.1-0.1,0.1-0.1,0.2c-0.1,0.1-0.4,0.2-0.7,0.3c-0.4,0.1-0.7,0.1-0.9,0c-0.1-0.1-0.2-0.2-0.3-0.3
		c-0.1-0.1-0.2-0.3-0.4-0.6c-0.1-0.2-0.2-0.3-0.3-0.3C11.6,8.9,11.5,8.9,11.4,8.9L11.4,8.9z M10.7,7.4l0.2,0.7c0,0,0,0,0,0
		c0,0.1,0,0.1,0.1,0.1c0,0,0.1,0,0.1,0c0.2-0.1,0.3-0.1,0.3-0.3c0-0.1,0-0.3,0-0.5c-0.1-0.4-0.3-0.5-0.6-0.4c-0.1,0-0.1,0.1-0.1,0.1
		C10.7,7.3,10.7,7.3,10.7,7.4z"/>
	<path class="st7" d="M15.2,7.7c-0.1,0-0.1,0.1-0.1,0.1c0,0.1,0,0.2,0.1,0.3c0.1,0.3,0.2,0.4,0.2,0.6c0,0,0,0.1,0.1,0.1
		c0,0,0.1,0,0.1,0c0.1,0,0.2,0.1,0.3,0.2c0,0.1,0,0.3-0.2,0.4c-0.1,0.1-0.4,0.2-0.8,0.4c-0.7,0.2-1.2,0.2-1.2-0.1c0,0,0-0.1,0-0.1
		c0,0,0-0.1,0.1-0.2c0.1-0.1,0.1-0.2,0.1-0.3c0-0.1,0-0.2-0.1-0.4c0-0.1-0.2-0.7-0.5-1.5c-0.1-0.3-0.2-0.5-0.2-0.6
		c-0.1-0.1-0.1-0.1-0.3-0.2c-0.1,0-0.2,0-0.2-0.1c0,0-0.1-0.1-0.1-0.1c0-0.1,0-0.1,0-0.2c0-0.1,0.1-0.1,0.2-0.2
		c0.1-0.1,0.2-0.1,0.3-0.1c0.1,0,0.2-0.1,0.5-0.1c0.1,0,0.1,0,0.2-0.1c0.2-0.1,0.4-0.1,0.7-0.3c0.2-0.1,0.3-0.1,0.4-0.2
		c0.4-0.1,0.8-0.2,1.2,0c0.3,0.1,0.5,0.3,0.6,0.6c0.1,0.2,0.1,0.4,0,0.5c0,0.2-0.1,0.3-0.3,0.5c-0.1,0.1-0.1,0.1-0.1,0.1
		c0,0.1,0.1,0.1,0.2,0.1c0.2,0,0.4,0.1,0.6,0.2c0.1,0.1,0.3,0.3,0.4,0.6C17.7,7.9,17.8,8,17.8,8c0,0,0.1,0,0.3,0c0,0,0.1,0,0.1,0
		c0,0,0.1,0.1,0.1,0.1c0,0.1,0,0.1,0,0.2c0,0.1-0.1,0.1-0.1,0.2C18,8.8,17.8,8.9,17.5,9c-0.4,0.1-0.7,0.1-0.9,0
		c-0.1-0.1-0.2-0.2-0.3-0.3c-0.1-0.1-0.2-0.3-0.4-0.6c-0.1-0.2-0.2-0.3-0.3-0.3C15.4,7.7,15.3,7.6,15.2,7.7L15.2,7.7z M14.5,6.2
		l0.2,0.7c0,0,0,0,0,0c0,0.1,0,0.1,0.1,0.1c0,0,0.1,0,0.1,0c0.2-0.1,0.3-0.1,0.3-0.3c0-0.1,0-0.3,0-0.5c-0.1-0.4-0.3-0.5-0.6-0.4
		c-0.1,0-0.1,0.1-0.1,0.1C14.5,6,14.5,6.1,14.5,6.2z"/>
</g>
</svg>
