<?xml version="1.0" encoding="utf-8"?>
<!-- Generator: Adobe Illustrator 19.0.0, SVG Export Plug-In . SVG Version: 6.00 Build 0)  -->
<svg version="1.1" id="Layer_1" xmlns="http://www.w3.org/2000/svg" xmlns:xlink="http://www.w3.org/1999/xlink" x="0px" y="0px"
	 viewBox="-196 588 112 100" xml:space="preserve">
<style type="text/css">
	.st0{fill:#420B4D;}
	.st1{fill:#A6B1B4;}
	.st2{fill:#60226D;}
	.st3{fill:#F3997D;}
	.st4{fill:#CE4326;}
	.st5{fill:#69CC3B;}
	.st6{fill:#5A6771;}
	.st7{fill:#292929;}
	.st8{fill:#333F51;}
	.st9{fill:#FEFEFE;}
	.st10{fill:#282829;}
	.st11{fill:#DC3438;}
	.st12{fill:#2E3136;}
	.st13{fill:#F9EC22;}
	.st14{fill:#F7E9D7;}
	.st15{fill:#757576;}
	.st16{fill:#F6EB24;}
</style>
<g id="Layer_x0020_1">
	<g id="_2040164288640">
		<g>
			<path class="st0" d="M-126,653.7c-0.1,0.1-1.2,0.6-1.4,0.7c-0.3,0.1-1.6,0.9-1.9,1.2l-0.1,0.1c-0.1,0.2-0.1,0.2-0.2,0.5
				c0,0-0.7,0.4-0.7,0.4c-0.3,0.2-1.1,0.1-1.1,0.4l-8.7,9l-0.2,0c-0.5,0.5-1.5,0.9-2.3,1c-0.9,0.2-2.2,0.3-2.8-0.3
				c-0.5,0-1.3-0.6-1.6-0.9c-2-1.4-2.3-2.4-3.4-3.9l-1.5-0.3l-1.2-0.3c-1.1-0.2-2.4-0.8-3.5-0.9c-0.8-0.1-3.1,1.3-4.4,1.4
				c-0.6,0-0.5,0.1-0.9,0.3c-0.5,0.1-0.5,0.1-0.8,0.3c-0.7,0.3-1,0.2-1.7,0.5c-0.1,0.2-0.3,0.3-0.3,0.7c0,0.3,0,0.7,0,1l-0.1,0.5
				c-0.3,0.8-0.5,1.2-0.8,1.6c-0.2,0.2-0.4,0.4-0.8,0.7c-0.1,0.1-0.3,0.3-0.4,0.4c0,0.1,0.1,0.1,0,0.1c0,0,0,0,0.1,0.1
				c0,0.1,0.1,0.1,0.1,0.1c0.1,0,0.1,0.1,0.1,0.1c0,0,0.1,0.1,0.1,0.1c0.5,0.5,0.9,1.1,1.2,1.6c0.1,0.1,0.1,0.3,0.2,0.5
				c0,0.1,0.1,0.2,0.1,0.3c0.1,0.4,0.1,0.7,0.2,1.1c0,0.4,0,0.8-0.1,1.2c0,0.2-0.1,0.3-0.1,0.5c-0.1,0.2-0.1,0.4-0.2,0.6
				c-0.1,0.4-0.3,0.8-0.5,1.2c-0.4,0.8-0.9,1.5-1.4,2.2c0,0,0,0.1-0.1,0.1c0.1,0.2,0.2,0.3,0.3,0.5l0.1,0.1c0.6,0.9,1.1,2.9,0.3,5
				c-0.1,0.2-0.1,0.4-0.2,0.5c-0.3,0.6-0.9,1.2-1.7,1.8c-0.9,0.6-2,1.3-3.2,1.7l-1.5,0.5l-0.1,0.1l-0.4,0.1l-0.1,0
				c-0.7,0.2-1.2,0.3-1.4,0.3c0.2,0.2,26.6,0.1,29.3,0.1c2.9,0,27.5,0.2,28-0.1v-0.9l-0.4-2.3l0-1.2l0.2-0.3l1.4-0.3
				c0.8-0.2,4.2-0.7,8.4-2.5c3.5-1.5,7.1-3.2,7.1-3.2l2-4.8c0,0,1.1-3.5,1.1-3.5l0.2-1.4l0.2-1.4c0.4-3.2,0.2-5.6-0.2-7.4
				c-0.6-2.5-6-1.6-8.7-1.8c-2.2-0.6-3.6-0.8-4.9-1.2c-1.4-0.5-2.6-0.9-4.3-1.6c-0.4-0.1-0.9-0.3-1.3-0.5c-0.2-0.1-0.3-0.6-0.7-0.7
				c-0.5-0.2-1-0.2-1.4-0.2c-0.1,0-0.1,0-0.2,0C-121.1,652.9-124.3,653.3-126,653.7z"/>
			<path class="st1" d="M-180.4,598c2.2-0.3,4.3,1.2,5.2,2.2l1.7,2c0.3,0.4,0.5,0.8,0.7,1.2c1,1.5,1.5,1.8,2.2,3.3
				c0.4,0.8,0.7,1.8,1.1,2.6c0.3,0.8,0.7,2,1.1,2.6l1.1,2.6c0.4,1,0.6,1.8,0.9,2.8c0.3,1,0.7,1.8,1,2.6c0.6,1.2,1,1.7,0.8,2.8
				c-0.2,1.2-0.5,1.9-1.2,2.5c-2.6,2.2-4.2-0.8-5.5-0.1c-1,0.5,1.4,2.6,1.5,5.6c0,1.6-3,2.5-5.1,1.5c-1-0.5-1.6-0.7-2.5-1.3
				c-2.9-2-5.2-4.9-6.7-8.1c-1.3-2.7-0.8-1.7-1.5-4.1c-0.1-0.5-0.3-0.9-0.5-1.4c-0.3-1-0.4-2.1-0.5-3.2
				C-186.8,609.4-186.7,598.8-180.4,598z M-169.6,634.6l-1.5,0.4c0.3,0.3,1-0.1,1.4-0.1c-1,0.9-0.8,1.2-1.5,1.5
				c-0.5,0.3-0.7,0.9-1.1,1.2c-0.5,0.5-0.8,0.2-0.8,1c-0.4,0.3-0.5,0.1-0.5,0.7c0,0,0,0,0,0c-0.1,0.4-0.1-0.5-0.3,0.6
				c-0.1,0.7-0.4,1.5-0.5,2.8c-0.1,1.2-0.1,3.2,0.3,4.2c0.4,0.7,0.1,1,0.7,1.6c0.3,0.3,0.4,0.3,0.5,0.6c0.7,1.1-0.1,0.2,1,1.3
				c0.3,0.3,0.2,0.4,0.7,0.7c0.6,0.4,0.7,0.7,1.1,0.9c0.2,0,0.1,0,0.3,0.1c0.1,0.1,0.3,0.2,0.4,0.2c0.3,0.2,0.4,0.3,0.7,0.5
				c0.5,0.3,1,0.4,1.5,0.7c0.5,0.3,0.9,0.5,1.4,0.8c0.6,0.4,0.7,0.5,1.4,0.8c0.5,0.2,0.9,0.6,1.4,0.8c0.3,0.2,0.5,0.2,0.8,0.3
				c0.5,0.3,0.1,0.2,0.8,0.3c0.3,0.1,0.4,0.3,0.7,0.4c0.2,0.1,0.5,0.2,0.8,0.3c0.5,0.2,1.2,0.5,1.7,0.6c0.1,0,0.1-0.1,0.5-0.2
				c0.3-0.1,0.5,0,0.9-0.1l-2-1.2c-1.3-0.9-2.6-1.9-3.5-3.2c-1.3-1.8-3-4.8-2.9-7.1c0.1-1.3,1-4.3,1.8-4.9c0.5-1,1.6-1.7,2.4-2.2
				c2.5-1.8,6.9-1.2,9.8-0.7c0.7,0.1,1.4,0.3,2,0.4c0.2-0.1,0.2,0.1,0-0.8c0-0.3-0.1-0.6-0.1-0.9c-0.1-0.5-0.2-1.1-0.4-1.6
				c-0.7-2-1.4-4.3-1.6-6.5c-0.1-1.3,0.1-2.7,0-4.1c0.1-0.2-0.1-0.1,0.3-0.2c-0.3-1.4,0.2-3.4,1-4.3c-0.2-0.4-0.1-0.4-0.5-0.6
				c-0.3-0.1-0.5-0.2-0.8-0.2c-0.1,0.1-0.3,0.2-0.4,0.3c-0.5,0.3-0.8,1-1,1.1l0.3-1.3c0-0.2,0-0.1-0.1-0.2c-0.8,0-1.8-0.5-2.6-0.2
				c-0.2,0.4-0.1,0.8-0.1,1.4c-0.1,1.4-0.7,1.1-0.9,1.1c-0.5,0,0,0.3-1,0.3c-1.1,0-0.6,0.1-1,0.2c-0.1,0-0.3,0-0.4,0l-0.3,0.5
				c-0.6-0.3-0.6-0.6-1-0.9c-0.3-0.2-1.5-0.7-2-1.7c-0.3-0.6-0.5-0.4-0.7-1.1c-0.3-0.9-0.6-1.9-0.8-2.8c-0.5-1.7-1.3-3.7-1.9-5.4
				c-0.3-1-0.7-1.6-1.1-2.5c-0.4-0.9-0.9-1.6-1.2-2.4c-0.2-0.4-0.4-0.8-0.6-1.2c-1-1.8-2.4-4.2-3.7-5.5c-0.9-0.9-2.6-2.5-4.2-3.1
				c-1-0.3-2.2-0.3-3.4-0.3c-2.8,0.1-5,2.2-6.3,4.6c-1.7,3.2-2,8.6-1.8,12.7c0.3,4.2,0.8,5.4,2.2,8.8c1.4,3.3,5.2,8.8,7.9,10.3
				c0.5,0.3,0.8,0.5,1.2,0.7c0.3,0.2,1,0.4,1.3,0.5c3.9,1.2,6.4-0.5,7.6-0.6c1.3-0.2,0.6-0.1,1.2-0.3
				C-165.5,632.5-167.9,634.5-169.6,634.6z"/>
			<path class="st2" d="M-153.7,592l-0.2,0.1c0,0-0.1,0-0.1,0c-1.9,1.1-1.1,0.4-3.3,2.1c-0.2,0.1-0.2,0.2-0.4,0.3
				c-0.6,0.6-1,1.1-1.5,1.7c-0.5,0.7-0.9,1.3-1.3,2c-0.2,0.3-0.4,0.7-0.6,1c-0.1,0.2-0.2,0.4-0.3,0.6l-0.8,1.6
				c-0.1,0.3-0.4,0.9-0.5,1.2c-0.2,0.8-0.5,1.1-0.6,1.9l-0.1,0.7c-0.3,0.8-0.1,2-0.1,3c0,1.2,0.2,1.2,0.6,2.1c0.2,0.3,0.3,0.7,0.5,1
				c0.2,0.4,0.3,0.8,0.5,1l0.3,0.3c0.1,0.1,0.4,1.2,0.8,1.9c0.2,0.3,0.6,1.1,0.6,1.5l0.5,0.1c2.6,0.1,3.9-0.5,6.4-1.3
				c0.7-0.2,1.3-0.4,2-0.7l16.7-5.6c0.8-0.3,0.9-0.2,1.5-0.3l5.4-1.2c0.5-0.1,0.3,0.1,0.5-0.2c0-0.5,0-0.4-0.1-0.7
				c-0.3-0.8-0.2-0.8-0.7-1.6c-0.1-0.2-0.1-0.2-0.3-0.4c-0.2-0.3-0.3-0.6-0.5-0.9c-0.2-0.3-0.4-0.5-0.5-0.9
				c-0.1-0.2-0.1-0.2-0.2-0.4c-0.2-0.3-1.5-2.3-1.8-2.5c0,0-0.1,0-0.1-0.1l-0.5-0.5c0,0,0,0-0.1-0.1c-1.1-1.4-2.4-2.6-3.6-3.8
				c-1.2-1.2-3.1-1.8-5.1-2.4c-1.9-0.5-4.3-0.8-6.6-0.9c-0.4,0-0.4-0.1-0.9-0.1c-0.9,0-1.6-0.1-2.6,0
				C-151.8,591.4-152.6,591.5-153.7,592z"/>
			<path class="st1" d="M-190.6,666.8c0.7,0.1,0.5,2.5,0.5,3.2c0,1,0,2.7-0.1,3.6c-0.1,0.8,0.4,4,0.7,4.9c0.2,0.5,0.4,0.9,0.6,1.4
				c1,2.7,1.5,2.6,2.1,3.6c0.4,0.7,0,0.3,0.9,0.9c0.8,0.5,1.2,1,1.8,1c0.4,0,0.5,0.1,0.8,0.1c0.6,0.1,1.2,0.1,1.8,0.1
				c0.6,0.1,1.2,0.2,1.8,0.3c0.7,0.1,0.1-0.1,0.7-0.2c0.2-0.1,0.7,0,0.9-0.1c0.6-0.1,1.1-0.2,1.6-0.3c0.7,0,1.1,0.2,1.7,0
				c0.6-0.2,2-0.4,2.3-0.5c0.3-0.1,0.3-0.2,0.6-0.3c0.5-0.2,0.9-0.3,1.4-0.5c1-0.5,1.4-0.9,2-1.8c0.4-0.6,0.4-0.7,0.4-1.5
				c0-1.3,0.2-2.7-1.3-1.8c-0.9,0.5-2.8,1.8-3.3,2.5c-0.4,0.6-0.6,0.4-1.4,1.4c-0.2,0.3-0.4,0.5-0.6,0.2c-0.1-0.2,0.1-0.4,0.2-0.7
				c-0.2,0-0.4,0-0.6,0c-0.1,0-0.1,0-0.3,0c-0.5-0.1-0.2-0.5,0.2-0.8c0.5-0.4,0.3-0.1,0.6-0.7c0.3-0.8,0.5-1.3,1-1.7
				c1.1-0.9,1.8-1.8,2.8-2.6c1-0.8,1.8-1.6,2.5-2.9c0.7-1.2,0.2-1.8,0.1-2.2c-0.1-0.9,0-1.8-0.1-2.6c-0.9,0.3-6,2.7-6.6,3.7
				c-0.2,0.3-0.2,0.9-0.5,1l0.5-1.2c-2.1,0.7-2.4,0.7-1.9-0.2c0.3-0.5,0.2-0.3,0.5-0.6c0.6-0.6,0.3-1.6,1.4-3c1.1-1.3,1-1,2.4-2
				c0.4-0.3,0.9-0.7,1.3-0.9c0.4-0.1,0.5-0.1,0.8-0.4c0.3-0.2,0.4-0.3,0.7-0.5c0.3-0.1,0.5-0.3,0.7-0.5c0.1-0.1,0.1-0.2,0.2-0.3
				c0.5-0.7,0.6-0.6,0.7-2c0.1-0.8-0.1-0.8-0.4-1.1c-1.1-1.1-1.7-1.5-3.5-1.5c-2.4,0-4.3,0.9-6.4,1.8l-0.4,0.3
				c0.9,0,1.9,0.1,2.7,0.1c0.7-0.1,1.9-0.5,2.3,0c-0.4,0.1-0.6,0.2-0.9,0.3c-0.3,0.1-0.7,0.1-1.1,0.2c-1.4,0.4-5.6,0.9-6.9,0.8
				c0.2-0.4,0.2-0.5,0.6-0.7c0.2-0.1,0.3-0.1,0.5-0.2l0.5-0.2c-0.3-0.2-0.5-0.4-0.9-0.6c-0.9-0.4-0.8-0.6-1.4-1.6
				c-0.4-0.7-0.3-0.4-0.3-1.2c-0.1-0.5-0.2-0.7-0.2-1.2c-0.1-1.1-0.2-1.6-0.6-2.4c-0.1-0.4-0.2-0.8-0.4-1.2l-1-1.9
				c-0.3-0.4-0.1-0.7-0.5-1c-0.3-0.3-0.1,0-0.8-0.7c-1.1-1.1-0.4-0.1-1.8-1.2c-0.2-0.2-0.1-0.1-0.5-0.1c-0.4-0.1-1.2-0.5-1.3-1
				c-1.5,0.3-2.7,1.8-3,3.4c-0.3,2,0.5,3.6,1.2,5.1c0.7,1.3,1.3,3.3,1.6,4.8C-190.3,664-190.8,664.6-190.6,666.8z"/>
			<path class="st3" d="M-185.3,607.4c0,0.7,0.3,0.4,0.4,1c0.3,1.5,0.4,1.8,0.7,3.6c0.2,1.6,1.3,5,2,6.7c0.2,0.7,0.6,1.4,0.8,2
				c0.3,1.3,0.6,0.3,1.3,2.2c0.3,0.7,0.5,0.4,0.9,1c0.3-0.1,0.1-0.1,0.4-0.2c0.5,0.5,0.9,1.4,1.6,1.4l0.1,0.5c0.3-0.1,0.4-0.2,0.7,0
				c0.1,0.1,0.3,0.3,0.4,0.4c0.5-0.1,0.3-0.3,0.8,0c0.4,0.2,0.2,0.2,0.3,0.6h0.9c0.2,0.3,0,0,0.1,0.2c0,0,0,0.3,0.1,0.1
				c0,0,0,0.1,0,0.1c1.1,0,0.7,0.5,1.4,0.9c-0.1-0.3-1.2-1.4-1.5-2.9c-0.2-1.4,0.6-2.2,1.8-2.2c1.2,0,6.2,2.9,5.6-0.3l-0.4-1.2
				c0-0.1-0.1-0.3-0.1-0.3c-0.2-0.5-0.5-0.9-0.6-1.4c-0.2-0.6-0.4-0.9-0.6-1.5l-2.8-7.7c-0.3-0.9-0.7-2.1-1-3.1
				c-0.2-0.5-0.5-1-0.7-1.4c-0.7-1.4-0.3-1-1.5-2.7c-0.4-0.5-0.6-0.7-0.9-1.1c-0.7-1-1.2-1.4-2.2-2c-0.7-0.5-2-1-3.2-0.8
				C-183.8,600-185.1,604.9-185.3,607.4z"/>
			<path class="st3" d="M-156,649.6c1.2-0.1,1.6,0.6,2,1.5c0.3,0.8,0.9,1.7,0.7,2.6c-1.3,0.1-1.2-0.2-2.3-1.4
				c-0.1-0.1-0.6-1-0.7-1.2C-156.5,650.4-156.2,650-156,649.6z M-153.5,643.2c-0.3,1.2-4.2,3.1-5.6,2.9c-0.6-0.1-1.5-0.6-1.4-1.5
				c0.1-1.3,1.8-2.3,3.1-2.6c0.7-0.1,1.8-0.2,2.6-0.2C-153.9,641.8-153.3,642.4-153.5,643.2z M-154.2,647.6
				c-0.3,0.1-0.4,0.2-0.8,0.2c-0.6,0.3-2.6,0.5-3.4,0.5c0.5-1,2.6-1.5,4.3-2.5c0.7-0.4,1.4-0.9,2.3-1.1c0.6-0.1,2.7-0.1,3.1,0.1
				c0,0.1,0,0-0.1,0.1l-1,0.4c-0.3,0.1-0.3,0.2-0.4,0.3c0.3,0.2,0.6,0.1,1.6,0.7c0.5,0.3,1,0.5,1.6,0.7c1.4,0.5,2.1-0.1,2.9-0.3
				c0.7-0.1,0.5,0.1,0.9,0.3c0-0.5-0.1-0.9-0.2-1.3c1,0.3,0.8,0.2,1.2,1.1c0.3,0.6,0.5,0.9,0.9,1.4c0.6,0.9,1.3,1.8,2.2,2.4
				c1.5,0.9,4.9,2.4,7.1,1.7c-0.1-0.5-0.2-0.4-0.5-0.7c-0.3-0.3-0.2-0.4-0.4-0.8c-0.3-0.3-0.6-0.5-0.9-0.8c-0.3-0.3-0.5-0.7-0.8-0.9
				c-0.5,0.2-0.1,0.1-0.2,0.4c-0.1,0.3-0.7,0.9-1.5,0.9c-0.9-0.1-1.8-0.7-2.2-1.1c-1.3-1.1-1.8-1.8-2.4-4c-0.3-1.2-0.4-1.5-0.1-2.7
				c0.2-0.7,0.1-0.7,0.7-1c0.5-0.2,1.9-1.8,3.1-0.2c0.5,0.6,0.3,1.8,0.7,2.5c0-0.6,0-1.4,0.3-1.9l0,0.4c0.2-0.3,0.2-1.3,0.8-2.6
				c1.1-2.4,3.8-3.9,6.3-2.9c1.5,0.6,2.6,1.8,3.1,3.3c0.8,2.2,0.5,3.5,0.1,5.7c0.1,0.2-0.3,0.3,0.1,0c0.3-0.3,0.4-2.9,0.4-3.3
				c0.2,0.3,0.1,0.3,0.5,0.3c0.4-1.6-1-4.8-1.7-5.7c-1.2-1.5-3.3-2-5.3-2.2c-1.6-0.1-2,0-3.2,0.5c-0.9,0.4-1.9,0.6-2.6,1.2
				c-1,0.8-1.8,1.6-3.3,2.3c-0.3,0.1-0.5,0.1-0.7,0.2c-0.3,0.1-0.4,0.2-0.6,0.3c-0.1-0.1-0.1-0.1-0.2-0.3c-0.9,0.3-1.4,0.7-2.5,0.8
				c-1.6,0.2-3,0.1-4.3-0.5c-0.7-0.3-3.3,0-4.8-0.2c-2.8-0.3-3.2-0.4-5.8,0.5c-0.5,0.2-0.9,0.1-1.2,0.5c-0.1,0.2-0.2,0.3-0.3,0.4
				c-0.4,0.3-0.2,0-0.3,0.5c-0.1,0.4-0.1,0-0.3,0.4c-0.1,0.1-0.1,0.5-0.2,0.6c-0.2,0.4-0.5,0.8-0.6,1.2l-0.7,2.6
				c0,0.4,0.1,0.3,0.1,0.7c0,0.6-0.4,1,0.2,2.1c0.2,0.4,0.3,0.7,0.5,1.2c0.1,0.2,0.1,0.4,0.2,0.6l0.2,0.4c0.1,0.1,0.1,0.1,0.1,0.1
				c0.4,0.3,0.1-0.1,0.3,0.5l1,1.5c0.3,0.3,0.6,0.5,0.9,0.8c1.2,1.2,1.4,1.2,2.8,2.2c1.1,0.8,2.3,0.9,3.2,1.7c0.5,0.4,0.3,0.4,1,0.7
				c-0.1-0.6-0.6-1.1-0.8-1.8c1.3,0.1,2.8,4.1,3.6,5.3c1,1.4,3,3.3,5.1,3.9c1.5,0.4,2.4,0.1,3.5-0.5c0.5-0.3,1-0.5,1.4-0.8
				c0.5-0.3,0.7-0.7,1.2-1.1c1-0.8,1.5-1.4,2.4-2.2c1.3-1.2,0.9-0.4,1.5-1.8c0,0,0.7-1.1-0.4-0.9c-1.2,0.2-1.7,3.2-5.1,4.3
				c-1.5,0.5-2.6,0.7-4.3,0.2c-2.5-0.7-3.3-2.3-4.4-4.2c-2.4-4.1-1.6-2.6-3.8-7.5c-0.3-0.6-0.5-1.2-0.7-1.7
				c-0.3-0.6-0.7-1.2-0.5-1.8C-154.1,647.5-153.9,647.6-154.2,647.6z"/>
			<path class="st4" d="M-126.4,636.1c0.6-0.1,1.2-0.3,1.9-0.4c2.2-0.6,5.1-2,7.3-0.2c0.3,0.2,0.8,0.9,0.9,1.4
				c0.5,2,0.3,2.4-0.2,3.9c-0.2,0.6-2.2,4.1-2.5,4.4c-0.3,0.3-0.3,0.2-0.5,0.6c-0.9,1.6-1.4,1.8-2.8,2.9c-0.5,0.4-0.9,0.5-1.5,0.9
				c-1.2,0.7-1,0.2-1.2,0.2c-0.3,0,0.1,0-0.3,0.1c0.1-0.3,0.7-1,1.2-2.2c1.2-2.9,0.4-3.2,1.2-3.7c0.9-0.6,2.1-1.3,2.5-2.3
				c-0.5-0.1-1.1,0.2-1.5,0.4c-1,0.5-0.9,0.3-1.4,0.5c-1-2.6-0.8-3.2-2.7-5.7C-126.2,636.5-126.4,636.4-126.4,636.1z M-125.5,634.8
				c0,0.1-1.8,1.1-2.3,0.7c-0.3-0.1-0.2,0-0.3-0.2l0-0.2c-0.4,0-0.7-0.2-1-0.3c-0.2-0.1-0.3-0.1-0.5-0.1c-0.4-0.1-0.3,0-0.3-0.2
				c-0.3,0.1-2-0.1-2.5-0.1l-0.4,0.1c-0.2,0.1-1.5,0.4-1.6,0.4l-1.4,0.4l-0.7,0.3c-0.1,0.1-2.1,1.1-2.3,1.1
				c-0.3,0.3-1.2,0.9-1.7,1.2c-0.1,0.4-0.3,0.4-0.6,0.7c-0.3,0.2-0.4,0.3-0.9,0.4l-0.5,0.2c-0.4,0.1-1.9,0.4-2.2,0.3
				c-0.7,0.2-2.3,0.2-3,0l-0.4-0.1l-1.6-0.4c-0.6-0.1-1.4-0.3-2-0.4c-2.9-0.5-7.4-1.2-9.8,0.7c-0.7,0.5-1.9,1.2-2.4,2.2
				c0.1,0.1,0.1,0,0,0.2c0,0-0.1,0.2-0.2,0.3c-0.1,0.2-0.2,0.4-0.3,0.5c0.4,0.2,0.9,0.2,0.3,1.4c-0.3,0.7-0.7,3-0.7,3.8
				c-0.1,0.6,0.4,1,0.5,1.8c0.2,1,1.1,2,1.5,3c0.2,0.6,1,1.5,1.5,1.9c0.2,0.2,0.4,0.3,0.6,0.5c0,0.1-0.2,0.1,0.3,0.5
				c2.4,1.9,5,3.2,7.9,4.1c0.5,0.1,0.6,0.4,1,1.1c0.2,0.4,0.7,1,0.7,1.5v0.1c1.1,1.4,1.5,2.5,3.4,3.9c0.3,0.3,1.1,0.8,1.6,0.9l0.2,0
				c-0.4-0.1-1.9-0.9-2-1.3c1.7,0.8,0.3,0.8,3.2,1c1.4,0.1,2.6-0.2,3.7-0.6c0,0,0,0,0,0c0,0.2-0.2,0.2,0.1,0.1l0.2,0
				c0.1-0.1,1.1-0.8,1.3-1c2-1.6,2-2.2,3.5-3.6c0.4-0.4,0.7-0.8,1.2-1.2l2.7-3.2c0.3-0.2,0.5-0.2,0.8-0.4l-1.2,0.3
				c-0.3,0.2-0.6,0.2-1,0.2c-1,0-1.9,0.3-2.8-0.1c0,0.5-0.3,0.7-0.5,1c-0.1,0.2-0.2,0.3-0.3,0.5c-0.2,0.3-0.2,0.1-0.3,0.4
				c-0.1,0.6-0.5,1.1-0.8,1.5c-0.9,1.2-1.4,1.1-2.7,1.8c-1.7,0.9-3.9,0.5-5.3-0.5c-0.6-0.4-1.9-1.6-2.1-2.6
				c-0.1-0.2-0.1-0.3-0.3-0.4c-1-1.8-1.9-3.7-2.7-5.7c-0.4-1-0.7-2.1-1.1-3.1c-0.3-0.7-0.9-2.2-1.3-2.7c-0.3,0-0.3,0-0.6,0.1
				c-0.3,0.1-0.2,0.1-0.4,0.2c0.3,0.1,0.1,0,0.2,0.1c-0.2,0.7,0.2,1.2,0.5,1.8c0.3,0.6,0.5,1.2,0.7,1.7c2.1,4.9,1.4,3.3,3.8,7.5
				c1.1,1.9,1.9,3.5,4.4,4.2c1.7,0.5,2.7,0.3,4.3-0.2c3.4-1.1,3.9-4.1,5.1-4.3c1.1-0.2,0.5,0.9,0.4,0.9c-0.6,1.5-0.2,0.6-1.5,1.8
				c-0.8,0.8-1.4,1.4-2.4,2.2c-0.5,0.4-0.7,0.8-1.2,1.1c-0.4,0.3-1,0.5-1.4,0.8c-1.1,0.7-2,1-3.5,0.5c-2.1-0.6-4.1-2.5-5.1-3.9
				c-0.8-1.2-2.3-5.2-3.6-5.3c0.2,0.7,0.7,1.2,0.8,1.8c-0.7-0.3-0.5-0.3-1-0.7c-0.9-0.8-2.2-0.9-3.2-1.7c-1.4-1-1.6-1-2.8-2.2
				c-0.3-0.3-0.6-0.5-0.9-0.8l-1-1.5c-0.2-0.6,0.1-0.1-0.3-0.5c-0.1-0.1-0.1-0.1-0.1-0.1l-0.2-0.4c-0.1-0.2-0.1-0.4-0.2-0.6
				c-0.1-0.4-0.3-0.8-0.5-1.2c-0.6-1.1-0.2-1.5-0.2-2.1c0-0.4-0.1-0.3-0.1-0.7l0.7-2.6c0.1-0.3,0.4-0.7,0.6-1.2
				c0.1-0.2,0.1-0.5,0.2-0.6c0.2-0.4,0.2-0.1,0.3-0.4c0.1-0.5-0.1-0.1,0.3-0.5c0.1-0.1,0.2-0.3,0.3-0.4c0.3-0.3,0.7-0.3,1.2-0.5
				c2.6-0.9,2.9-0.8,5.8-0.5c1.5,0.1,4.1-0.1,4.8,0.2c1.3,0.6,2.7,0.7,4.3,0.5c1-0.1,1.6-0.5,2.5-0.8c0.1,0.2,0.1,0.2,0.2,0.3
				c0.2-0.1,0.3-0.2,0.6-0.3c0.3-0.1,0.5-0.1,0.7-0.2c1.5-0.7,2.2-1.5,3.3-2.3c0.7-0.5,1.7-0.8,2.6-1.2c1.2-0.5,1.6-0.6,3.2-0.5
				c2,0.2,4.1,0.7,5.3,2.2c0.7,0.9,2.1,4.1,1.7,5.7c-0.4-0.1-0.3-0.1-0.5-0.3c0,0.4-0.1,3.1-0.4,3.3c-0.3,0.3,0.1,0.2-0.1,0
				l-0.5,1.2c-0.2,0.4-0.3,0.7-0.5,1.1c-0.5,0.8-0.8,1.3-1.4,1.8c-0.5,0.5-1.2,1-2.1,1.2c-1.2,0.3-1.7-0.3-2.6-0.5
				c0.2,0.4,0.1,0.5,0.4,0.8c0.3,0.3,0.4,0.1,0.5,0.7c-2.2,0.7-5.6-0.8-7.1-1.7c-0.9-0.6-1.6-1.5-2.2-2.4c-0.3-0.5-0.6-0.9-0.9-1.4
				c-0.4-0.9-0.2-0.8-1.2-1.1c0.1,0.5,0.2,0.8,0.2,1.3c0.5,0.1,0.5,0.6,0.7,1c0.9,2.1,2.8,4.2,4.8,5.2c1,0.5,0.7,0.1,0.9,0.7
				c0.1-0.2-0.1-0.2,0.3-0.1c0,0,0.3,0.1,0.4,0.1c1.1,0.4,2.4,0.3,3.6,0.2l0.7-0.1c0,0,2.5-1,2.6-1c0.1-0.1,1.1-0.7,1.3-0.7
				c-0.1,0.4-0.1,0.2-0.4,0.4c-0.4,0.3-0.4,1.2-0.5,1.7c0.7-0.2,0.9-0.7,1.6-0.8c0.3-0.2,0.5-0.4,0.9-0.5c0.3-0.4,0.4-0.3,0.7-0.5
				c0.3-0.2,0.5-0.3,0.7-0.5c0.5-0.3,0.9-0.7,1.5-1c1.1-1,2.3-2,3.3-3c2.4-2.4,5.6-6.7,5.4-10.5c-0.1-0.9-0.5-2-0.6-2.5
				c-0.2-0.3-0.3-0.5-0.5-0.7c-0.1-0.1-0.2-0.2-0.3-0.3c-0.2-0.2-0.1-0.1-0.3-0.3c-0.8-0.6-1-0.7-2.2-0.9c-0.9-0.1-2-0.1-2.6,0.3
				c-0.4,0.2-0.7,0.4-1,0.5C-123,633.8-124.6,634.6-125.5,634.8z"/>
			<path class="st5" d="M-124.1,605.7l-1.6,0.4c-0.2,0.1-0.5,0.3-0.8,0.3c-0.2,0.1-0.4,0.1-0.6,0.2c-0.2,0.3,0,0.1-0.5,0.2l-5.4,1.2
				c-0.6,0.2-0.8,0.1-1.5,0.3l-16.7,5.6c-0.7,0.3-1.2,0.5-2,0.7c-2.4,0.8-3.8,1.4-6.4,1.3c0.2,0.5,0.8,0.5,1.6,0.9
				c3.4,1.6,7.1,2,10.9,2c3.4,0,3-0.5,4.7-0.6l2.2-0.7c1.8-0.6,4.7-2.1,6.3-2.9c1.3-0.7,2.6-1.5,3.8-2.3c0.7-0.5,3.2-2,4-2.1
				c0.5-0.4-0.4,0.1,0.1-0.1c0.2-0.1,0,0,0.2-0.1c0.1-0.4,0.8-0.6,1.2-0.8s0.9-0.4,1.4-0.6c3.1-1.3,6.1-2,9.3-2.6
				c1.2,0.2,3.3-0.6,3.5,0.8l0.1,0.1c0,0,0,0,0,0.1c0,0,0.1,0.1,0.1,0.1c0.1-1-0.1-1.6-1-1.9c-0.2,0.1-0.2,0.1-0.4,0
				c-0.4,0-0.3,0.1-0.4-0.1h-0.1l-1.6,0.1c-0.3,0-0.7,0.1-0.8-0.2c-0.9,0.1-1.7,0.1-2.6,0.1c-0.8,0-1.6,0.1-2.4,0.2
				C-120.8,605.4-122.7,605.7-124.1,605.7z"/>
			<path class="st6" d="M-190.5,679.1c-0.2,0.1-0.3-0.3-0.7,0.3c-0.1,0.3-0.1,0.2-0.3,0.3c-0.4,0.1-0.3-0.1-0.8-0.1
				c-0.1,0-0.3,0.1-0.5,0.1c-0.4-0.1-1.1-0.6-1.2-1.5c-0.2-1.8,0.5-3.7,1.3-5.2c0.3-0.5,1-2.5,1.6-2.7c0.1,1.8-0.1,3.4,0.1,5.4
				C-190.8,677-190.6,678-190.5,679.1z M-195.8,681.2v-2.4c0-0.3,0.1-0.5,0.1-0.8c0.3-0.7-0.1-2.4,2.1-6.1c0.7-1.1,1.3-2,2.1-2.9
				c0.6-0.7,0.8-0.8,0.9-2.1c0.7,0.1,0.5,2.5,0.5,3.2c0,1,0,2.7-0.1,3.6c-0.1,0.8,0.4,4,0.7,4.9c0.2,0.5,0.4,0.9,0.6,1.4
				c1,2.7,1.5,2.6,2.1,3.6c0.4,0.7,0,0.3,0.9,0.9c0.8,0.5,1.2,1,1.8,1c0.4,0,0.5,0.1,0.8,0.1c0.6,0.1,1.2,0.1,1.8,0.1
				c0.6,0.1,1.2,0.2,1.8,0.3c0.7,0.1,0.1-0.1,0.7-0.2c0.2-0.1,0.7,0,0.9-0.1c0.6-0.1,1.1-0.2,1.6-0.3c0.7,0,1.1,0.2,1.7,0
				c0.6-0.2,2-0.4,2.3-0.5c0.3-0.1,0.3-0.2,0.6-0.3c0.5-0.2,0.9-0.3,1.4-0.5c1-0.5,1.4-0.9,2-1.8c0.4-0.6,0.4-0.7,0.4-1.5
				c0-1.3,0.2-2.7-1.3-1.8c-0.9,0.5-2.8,1.8-3.3,2.5c-0.4,0.6-0.6,0.4-1.4,1.4c-0.2,0.3-0.4,0.5-0.6,0.2c-0.1-0.2,0.1-0.4,0.2-0.7
				c-0.2,0-0.4,0-0.6,0c-0.1,0-0.1,0-0.3,0c-0.5-0.1-0.2-0.5,0.2-0.8c0.5-0.4,0.3-0.1,0.6-0.7c0.3-0.8,0.5-1.3,1-1.7
				c1.1-0.9,1.8-1.8,2.8-2.6c1-0.8,1.8-1.6,2.5-2.9c0.7-1.2,0.2-1.8,0.1-2.2c-0.1-0.9,0-1.8-0.1-2.6c0.2-0.3,0.2-0.3,0.5-0.4
				c0.3-0.1,0.5-0.2,0.8-0.3c0.3,0.3,0.6,0.5,0.9,0.9c3,3.8-0.9,8.1-1.1,8.7c0.3,0.4,0.5,0.7,0.8,1.2c0.7,1.6,0.5,3.3-0.1,4.7
				l-0.5,0.5c-1.1-0.5-0.7-0.2-1.1,0.2c-0.1,0.1-0.3,0.3-0.4,0.3c-0.4,0.3-0.5,0.3-1,0.5c-0.4,0.2-0.4,0.4-0.9,0.6
				c-1,0.5-0.8,0.1-2.1,0.8c-0.8,0.4-0.5,0.4-1,0.3c-0.8,0-1.4,0.3-1.8,0.3c-1.1,0.2-0.5,0.2-1.2,0.3l-2.1,0.1
				c-0.7,0-2.2,0.1-2.8,0.1c-0.7-0.1-0.6-0.1-1.3,0c-0.7,0.1-2.3-0.4-3.1-0.5c-0.3-0.1-0.2-0.1-0.5-0.2c1.3,1.2,2.4,1.2,3.5,1.5
				c0,0,0.1,0,0.1,0s0.1,0.1,0.1,0c0,0,0.1,0,0.1,0c-2.9,0-6.4,0.2-9-0.8c-1.3-0.5-2.1-1.3-2.7-2.2c-1.1-1.6-1.1-2.9-1.3-3.5
				C-195.7,681.7-195.8,681.6-195.8,681.2z"/>
			<path class="st5" d="M-97.9,669.4l2,0.3c1.3,0.1,2.7,1.1,3.3,1.9c0.7,0.8,1.3,2.4,1.6,3.7c0.4,0.4,0.6,1.8,0.6,2.6
				c0,1.2-0.3,1.7-0.5,2.7c1-0.4,2.2-1.6,3-2.2c0.6-0.4,1.9-2.1,2.3-2.8c2-3.3,1.7-7.7-0.7-10.6l-0.9-1c-1.2-1.2-2.6-2.3-4.1-3
				l-0.6-0.3c-1.8-0.7-3.6-1.2-5.6-1.3c0,0.7,0.2,1.7,0.3,2.6c0.1,0.8,0.1,1.8,0,2.7C-97.4,666.4-97.6,667.8-97.9,669.4z"/>
			<path class="st1" d="M-98.8,672.6c-0.2,1-2,4.1-2.5,4.6c-0.5,0.5-3.6,2.5-4.4,2.7l0.1,0.3c-0.9,1-2.3,1.5-2.8,1.9
				c-0.3,0.2-0.4,0.3-0.7,0.5c-0.3,0.2-0.5,0.3-0.7,0.5c-0.4,0.3-1,0.5-1.5,0.8l-3.1,1.6c-1,0.6-2.7,1-3.3,1.4l0,1v0.7
				c1,0.1,3.1,0,4.3,0c1.4,0,2.8,0.1,4.2,0c-0.2-0.3-0.3-0.3-0.3-0.8c0.4,0.1,0.4,0.2,0.7,0.3c0.3-0.4,1-1.1,1.4-1.4l3.5-2
				c0.7-0.3,0.5-0.3,0.9-0.5c0.9-0.5,0.2-0.3,0.8-0.6c0.3-0.1,0.7-0.3,1-0.5c0.1-0.1,0.3-0.1,0.5-0.2l2-1.5c0.3-0.3,0.5-0.4,0.9-0.6
				c0.3-0.2,0.6-0.6,0.7-0.7c0.5-0.3,0.2,0.2,0.9-0.5c0.4-0.4,0.5-0.1,0.7-0.7c0.9,0,0.7-0.5,1.4-0.8c0.2-0.1,0.1-0.1,0.3-0.3
				c0.4-0.4,0.3-0.1,0.9-0.7c1,0.1,0.6-0.1,0.7-0.3c0.6-0.1,1-0.2,1.7-0.2l-0.3-1.4c-0.3-1.3-0.9-2.9-1.6-3.7
				c-0.6-0.8-2-1.8-3.3-1.9l-1.1,0C-96.5,670.8-98,672.6-98.8,672.6z"/>
			<path class="st6" d="M-185.3,607.4c0.1-2.6,1.5-7.4,4.5-8.1c1.2-0.3,2.5,0.3,3.2,0.8c1,0.6,1.5,1,2.2,2c0.3,0.5,0.6,0.6,0.9,1.1
				c1.1,1.7,0.7,1.3,1.5,2.7c0.2,0.5,0.5,0.9,0.7,1.4c0.4,1,0.7,2.2,1,3.1l2.8,7.7c0.3,0.6,0.4,0.9,0.6,1.5c0.1,0.5,0.4,1,0.6,1.4
				c0,0.1,0.1,0.3,0.1,0.3l0.4,1.2c0.5,3.2-4.5,0.3-5.6,0.3c-1.2,0-2,0.8-1.8,2.2c0.3,1.5,1.3,2.6,1.5,2.9l1.2,1.4
				c1.1,1.9-1.3,2.8-4.7,0.7c-4.6-2.9-7.5-7.4-8.8-12.9c-0.3-1.5-0.6-3.2-0.6-4.8C-185.6,611.7-185.5,607.9-185.3,607.4z
				 M-180.4,598c-6.3,0.8-6.4,11.5-6.1,16.2c0.1,1,0.2,2.2,0.5,3.2c0.1,0.5,0.3,0.9,0.5,1.4c0.7,2.4,0.2,1.4,1.5,4.1
				c1.5,3.2,3.9,6.2,6.7,8.1c0.9,0.6,1.5,0.8,2.5,1.3c2.1,1,5.2,0.1,5.1-1.5c-0.1-3-2.5-5-1.5-5.6c1.3-0.7,2.9,2.4,5.5,0.1
				c0.7-0.6,1-1.3,1.2-2.5c0.2-1.1-0.2-1.6-0.8-2.8c-0.4-0.9-0.7-1.6-1-2.6c-0.3-1-0.6-1.8-0.9-2.8l-1.1-2.6
				c-0.4-0.7-0.8-1.9-1.1-2.6c-0.4-0.9-0.7-1.8-1.1-2.6c-0.7-1.6-1.2-1.8-2.2-3.3c-0.3-0.4-0.4-0.8-0.7-1.2l-1.7-2
				C-176.1,599.2-178.2,597.7-180.4,598z"/>
			<path class="st7" d="M-153.2,647.3c0.4,0.5,1,2,1.3,2.7c0.4,1,0.7,2.1,1.1,3.1c0.8,2.1,1.7,3.9,2.7,5.7c0.1,0.3,0.2,0.3,0.6,0.3
				c0.4-0.7,0.9-1.2,1.6-1.6c0.3-0.1,2.1-0.6,2.5-0.1l0.2,0.1c0.3,0.1,0.4,0.4,0.9,0.2c2.7-1.2,3.8,1.5,4.3,2.2
				c0.5-0.3,0.6-0.7,1.1-1.1c0.1-0.3,0.1-0.1,0.3-0.4c0.1-0.1,0.2-0.2,0.3-0.5c0.2-0.3,0.5-0.5,0.5-1c-0.7-0.5-0.8-2.2-0.9-3.2
				c-0.2-0.6,0.2-0.2-0.9-0.7c-2-1-4-3.1-4.8-5.2c-0.2-0.5-0.2-1-0.7-1c-1.2,0.9-2.6,1.4-4.3,0.9c-0.9-0.3-2.9-1.2-3.5-2
				c-0.6,0.1-0.9,0.4-1.4,0.6c-0.2,0.1-0.4,0.2-0.6,0.3C-153.1,647-153.1,647-153.2,647.3z"/>
			<path class="st8" d="M-172.1,635.2c0.1-0.1,0-0.1,0.2-0.1c0.1,0,0.2-0.1,0.3-0.1c0.3,0,0.3,0,0.5,0.1l1.5-0.4l1-0.7
				c-1.7,1.1-4.2,1.2-6.1,0.8c-2.2-0.4-3.5-1.4-4.8-2.5c-2.4-1.8-4.5-5.2-6.1-8.4c-1.8-3.5-2.9-7-3-11.7c-0.1-5.8,0.7-13.3,6-16
				c1.5-0.8,4-1.6,6.1-1c2.4,0.6,4,1.9,5.6,3.6c0.4,0.4,1,1.5,1.4,2.1c0.4,0.6,0.1,0.4,0.6,1.2c0.4,0.5,1,1.7,1.4,2.3l1.3,2.3
				c0.5,0.9,1.8,3.9,2.2,5.1c0.3,1.1,1.2,2.8,1.6,3.8c0.1,0.3,0.1,0.5,0.3,0.7c0.2,0.3,0.2,0.1,0.4,0.5c0.4,0.8,1,1.4,1.5,2.1
				c0.6,0.7,0.9,1.6,1.4,2.2l-0.9-4.9l0.5,0.2c0,0,0.1,0,0.1,0c0,0,0,0,0.1,0.1c1.5,1,3.1,1.5,4.9,1.9c0.3,0.1,0.7,0.2,1,0.3
				c1,0.2,1,0,0.9,0.4c0.3-0.3,0.3-0.3,0.8-0.2c0.2,0,0.9,0,0.9,0.2c0.6-0.1,1.8,0,2.1,0.3c0.6,0.6-0.5,1.2-0.8,1.5
				c-0.8,1-0.9,2.3-1.2,3.7c0.5-0.1,1.1-0.4,1.4-0.8l-0.2-0.1c0.6-1.3,0.8-2,1.9-2.7l0.5-0.3c1.6-0.6,3.2,0.6,3.4,1.2
				c0.2,0.2,0.2,0.1,0.4,0.3l0.2,0.3l-0.5,0.2c0.5,0,0.6,0.1,0.8,0.5c0.1,0.2,0.3,0.7,0.3,1c0.3,0.3,0.5,1.1,0.6,1.5
				c0.7,3.2,0.8,6.5,0.4,9.7c-0.1,0.6-0.1,1.2-0.3,1.8c-0.1,0.6-0.3,1.2-0.3,1.8c0.5-0.1,0.6-0.2,0.9-0.4c0.3-0.3,0.5-0.3,0.6-0.7
				c-0.2-0.3,0-0.6,0.1-1.1l0.3-4c0-0.9,0-1.9-0.1-2.8c0-0.5-0.1-0.7-0.2-1.2c-0.1-2.4-0.4-3.5-1.4-5.7c-0.5-0.9-1-1.8-1.8-2.4
				c-0.3-0.3-0.6-0.3-0.6-0.9c0.1-0.1,0,0,0.2-0.1l0.7-0.3c0.6-0.3,2.3-0.5,3-0.7c1.4-0.3,2.4-0.9,3.7-1.2c1.3-0.3,2.7-0.6,3.8-1.1
				c0.6-0.3,1.1-0.5,1.6-0.8c0.3-0.1,0.5-0.3,0.8-0.4s0.8-0.1,1-0.3l-1-0.2c-0.7,0-1,0.4-1.6,0.6c-1.8,0.7-3.5,1.2-5.3,1.6
				c-0.9,0.2-1.5,0.7-2.2,0.8c-0.6,0.1-0.5,0.2-0.8,0.2c-1.2,0.1-1.6,0.5-2.4,0.5v-0.1c-1.7,0.1-1.3,0.6-4.7,0.6
				c-3.8,0-7.5-0.4-10.9-2c-0.9-0.4-1.4-0.5-1.6-0.9l-0.5-0.1c0-0.3-0.4-1.1-0.6-1.5c-0.4-0.7-0.7-1.8-0.8-1.9l-0.3-0.3
				c-0.2-0.2-0.4-0.6-0.5-1c-0.2-0.3-0.3-0.7-0.5-1c-0.4-0.9-0.5-0.8-0.6-2.1c-0.2-0.3-0.9-1.6-1.1-2c-0.4-0.7-0.7-1.3-1.1-2.1
				l-2.4-3.9c-0.3-0.3-0.8-1.1-1.2-1.6c-0.2-0.2-0.4-0.6-0.6-0.8c-3.1-3.5-8-4.6-12.6-2.6c-1.1,0.5-2.4,1.6-3,2.4
				c-2.8,3.6-3.6,7.2-3.8,12.1c-0.3,7.9,3.2,18.3,9.1,22.9c0.9,0.7,2.1,1.4,3.4,1.9C-174.8,635.1-174.2,635.2-172.1,635.2z"/>
			<path class="st7" d="M-132.9,640.1c1.5-0.5,1.3,2.7,1.3,3.8c0,0.9,0,1.7,0,2.6c0,0.7,0.1,2.1-0.9,1.2c-0.9-0.8-1.2-2.2-1.5-3.7
				C-134.1,642.9-134.7,640.7-132.9,640.1z M-136.1,642.4c0.2,1.7-0.4,1,0.3,3.7c0.5,1.8,0.6,1.6,1.2,3c0.3,0.3,0.5,0.6,0.8,0.9
				c0.3,0.3,0.6,0.5,0.9,0.8c0.9,0.2,1.4,0.8,2.6,0.5c0.9-0.2,1.6-0.7,2.1-1.2c0.6-0.5,1-1,1.4-1.8c0.2-0.4,0.3-0.7,0.5-1.1l0.5-1.2
				c0.3-2.2,0.7-3.5-0.1-5.7c-0.6-1.6-1.6-2.7-3.1-3.3c-2.6-1-5.2,0.5-6.3,2.9C-135.9,641.1-135.9,642.1-136.1,642.4z"/>
			<path class="st6" d="M-169.6,634.6c1.6-0.1,4.1-2.2,2.9-1.9c-0.6,0.1,0.2,0.1-1.2,0.3c-1.2,0.1-3.7,1.8-7.6,0.6
				c-0.4-0.1-1-0.3-1.3-0.5c-0.4-0.2-0.7-0.5-1.2-0.7c-2.7-1.5-6.5-7-7.9-10.3c-1.4-3.4-1.9-4.6-2.2-8.8c-0.3-4.2,0.1-9.5,1.8-12.7
				c1.3-2.4,3.5-4.5,6.3-4.6c1.2,0,2.4,0,3.4,0.3c1.6,0.5,3.4,2.2,4.2,3.1c1.2,1.3,2.6,3.7,3.7,5.5c0.2,0.4,0.4,0.8,0.6,1.2
				c0.4,0.9,0.9,1.6,1.2,2.4c0.4,0.9,0.8,1.5,1.1,2.5c0.6,1.6,1.5,3.7,1.9,5.4c0.3,0.9,0.5,1.9,0.8,2.8c0.3,0.7,0.4,0.5,0.7,1.1
				c0.5,1,1.7,1.5,2,1.7c0.4,0.3,0.4,0.6,1,0.9l0.3-0.5c0.1,0,0.3,0,0.4,0c0.4-0.1-0.1-0.2,1-0.2c1,0,0.5-0.2,1-0.3
				c0.2,0,0.8,0.3,0.9-1.1c0.1-0.6-0.1-1,0.1-1.4c0.8-0.2,1.8,0.2,2.6,0.2c0.1,0.1,0.1,0,0.1,0.2c0.2-0.2,0.3-0.5,0.5-0.7
				c0.1-0.4,0.2-0.2-0.9-0.4c-0.3-0.1-0.7-0.2-1-0.3c-1.8-0.4-3.4-0.9-4.9-1.9c0,0,0,0-0.1-0.1c0,0,0,0-0.1,0l-0.5-0.2l0.9,4.9
				c-0.5-0.6-0.8-1.5-1.4-2.2c-0.5-0.7-1.1-1.4-1.5-2.1c-0.2-0.4-0.2-0.2-0.4-0.5c-0.2-0.2-0.1-0.4-0.3-0.7c-0.4-1-1.3-2.7-1.6-3.8
				c-0.4-1.2-1.6-4.2-2.2-5.1l-1.3-2.3c-0.4-0.7-1-1.8-1.4-2.3c-0.6-0.8-0.2-0.6-0.6-1.2c-0.4-0.6-1.1-1.7-1.4-2.1
				c-1.6-1.7-3.1-3.1-5.6-3.6c-2.1-0.5-4.6,0.3-6.1,1c-5.3,2.7-6.1,10.2-6,16c0.1,4.7,1.2,8.2,3,11.7c1.6,3.2,3.7,6.6,6.1,8.4
				c1.3,1.1,2.7,2,4.8,2.5c1.9,0.4,4.4,0.3,6.1-0.8L-169.6,634.6z"/>
			<path class="st3" d="M-124.2,599l-0.2,0.5c0.2,0.1,0.1-0.1,0.2-0.1l0,3.4c0,0.2-0.1,0.6-0.1,0.8c0,0.4,0.1,0.4,0.1,0.7
				c0,0.3-0.1,0.4-0.1,0.8c0,0.6,0.1,0.5,0.2,0.6c1.4,0,3.3-0.3,4.8-0.5c0.8-0.1,1.6-0.2,2.4-0.2c0.9,0,1.7,0,2.6-0.1
				c0.2-3-0.9-12.2-5.3-11.3C-121.5,594.1-123.6,597.1-124.2,599z"/>
			<path class="st3" d="M-123.8,611.8h-0.5c0,0.2,0.8,2.2,1.1,3.2c0.3,1.2,0.5,2.4,0.7,3.7c0.4,3,0.1,5.2-0.2,8.1
				c0.9-0.2,2.9-2.2,3.3-2.7c1.9-2.2,3.1-5.3,3.9-8.2c0.2-0.7,1-4.7,0.9-5.2c-1.5,0.3-2.8,0.7-4.3,0.9
				C-120.6,611.9-122.1,611.9-123.8,611.8z"/>
			<path class="st6" d="M-129.2,614.8c-0.2,0.1-0.8,0.1-1,0.3s-0.5,0.3-0.8,0.4c-0.5,0.3-1,0.5-1.6,0.8c-1.1,0.5-2.5,0.8-3.8,1.1
				c-1.4,0.3-2.3,0.9-3.7,1.2c-0.7,0.1-2.4,0.4-3,0.7l-0.7,0.3c-0.2,0.1-0.1,0-0.2,0.1c0,0.6,0.2,0.6,0.6,0.9
				c0.8,0.6,1.3,1.5,1.8,2.4c1,2.1,1.3,3.2,1.4,5.7c0,0.5,0.1,0.8,0.2,1.2c0.1,0.9,0.1,1.9,0.1,2.8l-0.3,4c-0.1,0.6-0.3,0.9-0.1,1.1
				c0.5-0.3,1.4-0.8,1.7-1.2c-0.3-0.1-0.2,0.1-0.2-0.5l0.2-3.7c0.1-1.4,0.1-2.9,0.1-4.3c-0.2-2.8-0.4-2.1-0.7-3.7
				c-0.1-0.6-0.2-0.4-0.3-0.8c-0.2-0.7-0.3-1.4-0.5-1.8c-0.2-0.3-0.2-0.4-0.3-0.9l0.3-0.1c0.9-0.3,0.5-1.1,1.5-0.7
				c0.4-0.4,0.3-0.4,1-0.6c1.1-0.3,1.6-0.4,2.8-0.4c0.6,0,0.8,0.1,0.8,0.5l0.3,0.1l0,1.9c0,0.6-0.1,1.3-0.2,1.8
				c-0.3,1.7-0.4,7.5-0.4,9.5l0.1,1.4c0,0.4,0.1,0.1-0.1,0.3c0.1,0,1.4-0.2,1.6-0.4l-0.5-0.1c-0.2-2.1-0.3-1-0.3-3.7
				c0-2.8,0.1-4.3,0.8-7.1c0.1-0.5,0.3-1,0.4-1.6c0.2-0.9,0.5-2.3,0.9-3.1c0.3-0.5,0.4-0.9,0.7-1.3c0.2-0.3,0.5-1,0.8-1.1l1.1-0.5
				c0.9-0.4,2.7-0.7,3.4-0.1c1.9,1.6,1,2.2,2,1.9c0.3-0.9-0.3-2.2-0.5-3.1c-0.2-0.1-0.7-0.7-1-0.9c-0.5-0.3-0.9-0.4-1.6-0.3
				C-127.8,613.7-128.3,614.7-129.2,614.8z"/>
			<path class="st6" d="M-190.8,647.6c0.1,0.5,0.9,0.9,1.3,1c0.4,0,0.3-0.1,0.5,0.1c1.4,1.1,0.7,0.1,1.8,1.2
				c0.7,0.7,0.5,0.4,0.8,0.7c0.3,0.3,0.2,0.6,0.5,1l1,1.9c0.2,0.4,0.2,0.8,0.4,1.2c0.3,0.9,0.5,1.4,0.6,2.4c0,0.6,0.2,0.8,0.2,1.2
				c0.1,0.8,0,0.5,0.3,1.2c0.6,1,0.5,1.2,1.4,1.6c0.4,0.2,0.6,0.4,0.9,0.6l-0.5,0.2c-0.2,0.1-0.3,0.1-0.5,0.2
				c-0.4,0.2-0.4,0.3-0.6,0.7c1.3,0.1,5.5-0.4,6.9-0.8c0.4-0.1,0.7-0.1,1.1-0.2c0.3-0.1,0.6-0.2,0.9-0.3c-0.5-0.5-1.6-0.1-2.3,0
				c-0.9,0.1-1.9,0-2.7-0.1l0.4-0.3c2.1-0.9,4-1.9,6.4-1.8c1.8,0,2.5,0.5,3.5,1.5c0.3,0.3,0.5,0.3,0.4,1.1c-0.1,1.4-0.2,1.3-0.7,2
				c-0.1,0.1-0.1,0.2-0.2,0.3c-0.2,0.2-0.4,0.3-0.7,0.5c-0.3,0.2-0.4,0.3-0.7,0.5c-0.3,0.2-0.4,0.2-0.8,0.4
				c-0.4,0.2-0.9,0.6-1.3,0.9c-1.4,1-1.3,0.7-2.4,2c-1.2,1.4-0.9,2.4-1.4,3c-0.3,0.3-0.2,0.1-0.5,0.6c-0.5,0.9-0.2,0.8,1.9,0.2
				l-0.3-0.5c0.9-0.5,0.3-0.9,1-1.5c0.5-0.5,0.8-0.9,1.3-1.3c1.5-1.2,4-2.2,4.6-3c1.4-1.8,1.5-1,2-3c0.3-1.1,0-0.5,0.6-1.9
				c-0.1,0.2,0,0.2,0.1,0.4c0,0,0-0.1,0-0.1l0.2-0.3v-0.2c-0.5-0.1-0.5-0.5-0.8-0.8c-0.1-0.1-0.3-0.2-0.5-0.3
				c-0.4-0.2-0.3-0.1-0.4-0.3c-0.9-0.3-1.1-0.5-2.1-0.6c-0.5-0.1-0.5,0-0.6-0.2c-0.9,0.1-1.8,0.1-2.6,0.2c-0.9,0.1-1.7,0.2-2.5,0.3
				c-1,0.2-3.5,0.9-4,1.6l-1.2,0.7c0.1,0.2,0,0.2,0.3,0.3c-0.3-0.1-0.9-0.4-1.1-0.6c-0.7-0.5-0.9-0.8-1.1-1.6
				c-0.1-0.2,0-0.5-0.1-0.7c-0.3-0.9-0.3-0.1-0.1-1.6l-0.4-0.1c0.1-0.3,0.2-0.5,0.3-0.7c0.1-0.4,0-0.4,0-0.8c0-0.7,0.1-0.5-0.3-1.5
				c-0.1-0.2-0.3-0.3-0.4-0.6c-0.3-0.6-0.3-1.5-0.9-2c-0.7-0.7-0.2-1.3-1.6-2.3l-2.2-1.6c0.4,0.1,0.2,0,0.3-0.2l-1.1-0.1
				C-189.3,647.2-190.1,647.4-190.8,647.6z"/>
			<path class="st6" d="M-171.1,635.1c-0.3-0.1-0.3-0.1-0.5-0.1c-0.1,0-0.2,0-0.3,0.1c-0.1,0.1-0.1,0.1-0.2,0.1h0.3
				c-0.2,0.3-2.8,1.7-3.3,2.5c0,0.3-0.5,0.7-0.8,1c-0.5,0.5-0.5,0.6-0.5,1.2l-0.4,2.4c0.1,0.4,0.1,0.3,0.1,0.8
				c0.6,0.5,0.1,0.4,0,0.8c-0.1,0.1,0,1-0.1,1.4c-0.1,0.9-0.2,0.6,0,1.2c0.1,0.3,0,0.9,0,1.3c0.3,0.1,0.3,0,0.6,0.6
				c0.2,0.4-0.1,0.5,0.3,1c0.2,0.3,1.1,1.2,1.4,1.3c0.5,0.3,0.3,0.3,0.7,0.7l1.6,1.2c0.7,0.5,0.4-0.1,0.7,0.6l0.3,0
				c0.1,0,1.1,0.8,1.8,1.2c1.3,0.7,1,0.4,1.8,0.8c0.3,0.1,0.4,0.3,0.5,0.4c0.4,0.2,0-0.1,0.3,0.1c0,0,0,0,0.1,0
				c0.2,0.1,0,0.2,0.7,0.5c0.4,0.2,0.9,0.4,1.2,0.5c1,0.5,3.9,1.3,5.3,1.8l2.6,0.9c0.4,0.1,0.9,0.3,1.3,0.4c1,0.4,0.7,0.4,1.8,0.8
				c0.3,0.1,0.4,0.2,0.6,0.3c0.5,0.2,0.3,0.1,0.5,0.4l0.3,0.3c0.2,0.1,0-0.1,0.1,0.1l1.5,0.3v-0.1c-0.3-0.3-0.8-1.3-1-1.7
				c-0.5-1-0.5-0.7-1.6-1c-1.1-0.3-3.5-1.4-3.9-1.5c-0.3,0-0.5,0-0.9,0.1c-0.4,0-0.4,0.2-0.5,0.2c-0.5-0.1-1.2-0.4-1.7-0.6
				c-0.3-0.1-0.6-0.2-0.8-0.3c-0.3-0.1-0.4-0.3-0.7-0.4c-0.7-0.1-0.3,0.1-0.8-0.3c-0.3-0.1-0.5-0.2-0.8-0.3
				c-0.5-0.3-0.9-0.7-1.4-0.8c-0.7-0.3-0.8-0.5-1.4-0.8c-0.5-0.3-0.9-0.5-1.4-0.8c-0.5-0.3-1-0.4-1.5-0.7c-0.3-0.2-0.4-0.3-0.7-0.5
				c-0.1-0.1-0.3-0.1-0.4-0.2c-0.2-0.1-0.1-0.1-0.3-0.1c-0.4-0.1-0.5-0.5-1.1-0.9c-0.4-0.3-0.3-0.4-0.7-0.7c-1-1.1-0.3-0.1-1-1.3
				c-0.2-0.3-0.3-0.3-0.5-0.6c-0.5-0.5-0.3-0.9-0.7-1.6c-0.4-0.9-0.4-3-0.3-4.2c0.1-1.3,0.4-2.1,0.5-2.8c0.2-1.1,0.2-0.2,0.3-0.6
				c0,0,0,0,0,0c0-0.6,0.1-0.5,0.5-0.7c0-0.8,0.3-0.6,0.8-1c0.4-0.4,0.6-1,1.1-1.2c0.7-0.3,0.5-0.7,1.5-1.5
				C-170.1,634.9-170.8,635.3-171.1,635.1z"/>
			<path class="st3" d="M-120.3,636.1c1.1-0.3,2.1,0.9,1.6,2.2c-0.7,1.7-3,2.1-3.9,1c-0.5-0.6-0.5-0.6-0.1-1.4
				c0.2-0.5,0.6-0.8,1-1.1C-121.4,636.5-120.8,636.3-120.3,636.1z M-126.4,636.1c-0.1,0.2,0.2,0.4,0.4,0.7c1.9,2.5,1.7,3.1,2.7,5.7
				c0.5-0.2,0.3,0,1.4-0.5c0.4-0.2,1-0.4,1.5-0.4c-0.5,1-1.6,1.7-2.5,2.3c-0.8,0.5,0,0.9-1.2,3.7c-0.5,1.1-1.1,1.9-1.2,2.2
				c0.4-0.2,0.1-0.2,0.3-0.1c0.2,0,0.1,0.5,1.2-0.2c0.6-0.4,0.9-0.4,1.5-0.9c1.4-1.1,1.9-1.3,2.8-2.9c0.2-0.5,0.2-0.3,0.5-0.6
				c0.3-0.3,2.3-3.8,2.5-4.4c0.5-1.5,0.7-1.8,0.2-3.9c-0.1-0.5-0.7-1.2-0.9-1.4c-2.2-1.7-5.1-0.4-7.3,0.2
				C-125.2,635.9-125.8,636-126.4,636.1z"/>
			<path class="st1" d="M-138.7,636.5c0.2-0.1,2.2-1,2.3-1.2l0.6-0.2l1.4-0.4c0.1-0.2,0.1,0,0.1-0.4l-0.1-1.4c0-2,0.1-7.8,0.4-9.5
				c0.1-0.5,0.2-1.2,0.2-1.8l0-1.9l-0.3-0.1c0.1-0.3-0.1-0.5-0.7-0.5c-1.2,0-1.7,0.1-2.8,0.4c-0.7,0.2-0.6,0.1-1,0.5
				c-1-0.3-0.7,0.5-1.6,0.7l-0.3,0.1c0.1,0.4,0.1,0.5,0.3,0.9c0.2,0.3,0.2,1,0.5,1.8c0.1,0.4,0.2,0.3,0.3,0.8
				c0.3,1.6,0.5,0.9,0.7,3.7c0.1,1.4,0.1,2.9-0.1,4.3l-0.2,3.7C-138.9,636.6-139.1,636.4-138.7,636.5z"/>
			<path class="st1" d="M-131.3,599c0.3,0.2,1.6,2.2,1.8,2.5c0.1,0.2,0.1,0.2,0.2,0.4c0.1-0.6,1.3-2.8,1.6-3.4
				c1-1.8,2.6-4.6,4.2-5.7c1-0.7,2-1.5,3.7-1.3c2.8,0.4,5.3,4,5.8,6.6c0.3,1.5,0.7,6.4,0.8,6.6c0.2,0.1-0.1,0,0.2,0.1l0.9,0.1h0.1
				c0.3-0.7-0.1-4.2-0.3-5.1l-0.6-2.3c-0.9-3.4-2.6-6.9-6-8.1c-0.9-0.3-1.3-0.4-2.3-0.3c-3.1,0.4-5,2.4-6.9,4.4
				c-0.7,0.8-1.7,2.5-2.2,3.4L-131.3,599z"/>
			<path class="st8" d="M-126.1,610.2c-0.2,0.3-0.5,0.3-0.7,0.5c0.3,0.3,0.6,0.2,0.9,0.5v0.4l-0.5,0.1c0.5,0.1,0.1,0,0.3,0.2
				c0.4,0,0.6,0.3,0.9,0.5c0.3,0.2,0.5,0.4,0.7,0.7c0,0.1,1,1.7,0.7,1.6c0.1,1,0.8,2.2,0.5,3.1c-1,0.3-0.1-0.3-2-1.9
				c-0.7-0.6-2.6-0.4-3.4,0.1l-1.1,0.5c-0.3,0.1-0.6,0.9-0.8,1.1c-0.3,0.4-0.5,0.8-0.7,1.3c-0.4,0.8-0.7,2.3-0.9,3.1
				c-0.1,0.6-0.3,1-0.4,1.6c-0.7,2.7-0.8,4.3-0.8,7.1c0,2.7,0.1,1.6,0.3,3.7l0.5,0.1l0.4-0.1l-0.3-0.1c-0.1-0.7-0.1-2.4-0.1-3.1
				c0-0.4,0.1-2.3,0.3-2.6l0.2-0.2c-0.2-0.1-0.1,0-0.1-0.3c-0.1-0.7,1.4-7.1,1.9-8c0-0.2,0.1-0.6,0.3-0.7c0-0.4,0.2-0.6,0.4-0.8
				c0.2-0.3,0.3-0.4,0.5-0.6c0.4-0.4,0.7-0.7,1.3-0.9c0.1-0.1,0.1-0.1,0.2-0.1l0.4-0.1c0.3-0.1,0.5-0.1,0.8,0c0.2,0.4,0.1,0.5,0.4,1
				c0.2,0.3,0.3,0.7,0.3,1c-0.1,0.2,0.1,0.1-0.2,0.2c0.1,0.1,0,0,0.2,0.1l0.5,0.3c0.2,0.1,0.5,0.2,0.8,0.3c0.6,0.2,1,0.3,1.7,0.1
				c-0.2,0.4-0.6,0.6-1.2,0.5c0,0.3,0.2,0.4,0.2,0.9c0.1,2,0.1,3.7-0.6,5.6c-0.3,0.8-0.3,1.3-0.5,2c-0.2,0.5-1.8,5-2.1,5.4
				c-0.1,0.3-0.3,0.5-0.5,0.7c-0.2,0.3-0.4,0.6-0.7,0.5c0.1,0.2,0,0.2,0.3,0.2c0.8,0,0.6,0,1.2-1.1c0.6-1,1-2.3,1.4-3.4
				c0.2-0.5,0.4-1.4,0.8-1.7c0.3,0.1,0.3,0.1,0.4,0.3c0.1,0.2,0.1,0.4,0.1,0.7c0-0.1-0.1,0,0.2-0.1c0.2-0.5,0.4-0.8,0.5-1.3
				c0-1,1.1-1.4,1.7-1.9c0.5-0.5,3.2-3.3,3.5-4.1c0.1-0.3,0.1-0.3,0.3-0.5c1.8-2.5,3.3-8.5,3.6-11.9c-0.1,0-0.2,0.1-0.3,0.1
				c-0.3,0.2-0.1,0.1-0.2,0.1c0.1,0.5-0.7,4.5-0.9,5.2c-0.8,2.9-2,6-3.9,8.2c-0.5,0.5-2.5,2.5-3.3,2.7c0.3-2.9,0.6-5.1,0.2-8.1
				c-0.2-1.3-0.4-2.5-0.7-3.7c-0.3-1-1.1-3-1.1-3.2h0.5l-0.1-0.1c-0.6-0.2,0.5,0.1-0.2-0.1c-0.1,0-0.2,0-0.3,0
				c-0.3-0.6-0.6-1.1-1-1.6h-0.3c-0.2,0-0.1,0-0.2,0.1C-126.5,610.3-125.7,609.8-126.1,610.2z"/>
			<path class="st1" d="M-113.4,610.2c-0.2,0.2-0.4,1.1-0.4,1.4c-0.3,2.3-0.6,2.7-0.9,4.4c-0.3,1.7-1.2,3.7-1.9,5.2
				c-0.4,0.8-0.8,1.6-1.2,2.2l-1.4,2.1l-1.7,1.8c-0.3,0.3-1.6,1.2-2.2,1.4c-0.1,0.5-0.3,0.8-0.5,1.3c-0.1,1-1.1,2.1-1.2,2.3l-1,2.5
				l0.4-0.1c0.9-0.2,2.4-1,3.2-1.4c0.4-0.1,0.6-0.3,1-0.5c0.7-0.3,1.8-0.4,2.6-0.3c1.2,0.2,1.4,0.3,2.2,0.9c0.3,0,0.3,0.1,0.6,0.3
				c1.1,0.8,1.4,1,2.2,2.1c0.7,1.2,1.3,0.8,1-1.1c-0.4-2.7-3.9-3.3-5.3-3.8c-0.8-0.3-0.4,0.1-1.5-0.1c-0.5-0.1-0.9-0.4-1.3-0.5
				c-0.4,0.3-0.5,0.5-1.2,0.3c0-0.4-0.1-0.5,0.2-0.7c0.3-0.3,0.2,0,0.1-0.4c0.7-0.1,0.9-0.2,1.2-0.7c0.3-0.4,0.5-0.5,0.9-0.9
				c1.2-1.4,1.2-2,3.2-4.2c0.6-0.7,0.9-1.4,1.3-2.4c0.8-1.6,1.6-3.6,1.9-5.5l1-6.3C-112.7,609.9-113,610.2-113.4,610.2z"/>
			<path class="st4" d="M-172.7,628.1c-0.7-0.3-0.3-0.9-1.4-0.9c0,0,0-0.1,0-0.1c-0.1,0.2,0-0.1-0.1-0.1c-0.1-0.2,0.1,0-0.1-0.2
				h-0.9c-0.1-0.4,0.1-0.4-0.3-0.6c-0.5-0.3-0.3-0.1-0.8,0c-0.1-0.1-0.3-0.3-0.4-0.4c-0.3-0.2-0.4-0.1-0.7,0l-0.1-0.5
				c-0.8,0-1.1-0.9-1.6-1.4c-0.3,0.1-0.1,0.1-0.4,0.2c-0.3-0.6-0.6-0.3-0.9-1c-0.7-1.9-1-1-1.3-2.2c-0.1-0.6-0.5-1.4-0.8-2
				c-0.7-1.7-1.7-5.1-2-6.7c-0.2-1.9-0.4-2.1-0.7-3.6c-0.1-0.7-0.4-0.3-0.4-1c-0.3,0.5-0.3,4.3-0.3,5.1c0,1.6,0.3,3.3,0.6,4.8
				c1.3,5.5,4.2,9.9,8.8,12.9c3.4,2.1,5.8,1.2,4.7-0.7L-172.7,628.1z"/>
			<path class="st5" d="M-168,600.1l2.4,3.9c0.4,0.7,0.7,1.4,1.1,2.1c0.2,0.4,0.9,1.8,1.1,2c0-1-0.1-2.2,0.1-3l0.1-0.7
				c0.1-0.8,0.4-1.1,0.6-1.9c0.1-0.2,0.3-0.9,0.5-1.2l0.8-1.6c0.1-0.2,0.2-0.4,0.3-0.6c0.2-0.4,0.4-0.7,0.6-1c0.4-0.7,0.8-1.3,1.3-2
				c0.5-0.7,1-1.2,1.5-1.7c0.2-0.2,0.2-0.2,0.4-0.3c2.2-1.7,1.4-1,3.3-2.1c0,0,0,0,0.1,0l0.2-0.1c-1.1,0.1-3.4,0.9-4.3,1.4
				c-3.2,1.4-6.1,3.1-8.7,5.4L-168,600.1z"/>
			<path class="st9" d="M-149.5,624.9c-0.3,1-0.2,2.7-0.2,3.8l0.3,3.1c0.1,0.3-0.1,0.3,0.3,0.2c0.1-0.4,0.7-0.9,1-1.1
				c1.3-0.8,3.3-0.5,4,1.3c1,2.6,0.3,4.6-0.5,6.9c0.3,0.2,1.8-0.1,2.2-0.3l0.1-0.2c-0.7,0.1,0.1-0.1-0.6-0.3c0.4-2,0.4-4.4,0.2-6.4
				c0-0.4,0.1-0.8,0-1.1c-0.1-0.3-0.3-0.5-0.3-0.8c-0.1-0.4,0-0.8-0.1-1.2c0-0.3-0.1-0.6-0.2-1c-0.3-1.3-0.2-1.6-0.7-2.8
				c-0.1-0.3-0.3-0.4-0.5-0.7c-0.2-0.4-0.1-0.6-0.2-0.9c-0.1-0.2-0.2-0.3-0.3-0.7c0.6-0.3,1.4-0.3,2-0.3c0.2,0.4,0.5,1,0.6,1.4v-0.3
				c0-0.3-0.2-0.7-0.3-1c-0.2-0.4-0.3-0.4-0.8-0.5c-1,0-2.5,0.6-3.3,0.9c-0.5,0.2-0.9,0.5-1.4,0.7
				C-148.5,624.4-149.1,624.8-149.5,624.9z"/>
			<path class="st6" d="M-112.2,609.7l-1,6.3c-0.3,1.8-1.1,3.9-1.9,5.5c-0.5,0.9-0.7,1.6-1.3,2.4c-2,2.2-2,2.8-3.2,4.2
				c-0.3,0.4-0.6,0.5-0.9,0.9c-0.4,0.5-0.5,0.6-1.2,0.7c0.1,0.5,0.2,0.1-0.1,0.4c-0.2,0.3-0.2,0.3-0.2,0.7c0.8,0.1,0.8-0.1,1.2-0.3
				c0.4,0.1,0.8,0.4,1.3,0.5c1.1,0.3,0.7-0.1,1.5,0.1c1.5,0.5,5,1,5.3,3.8c0.3,1.9-0.3,2.3-1,1.1c-0.7-1.2-1-1.3-2.2-2.1
				c-0.3-0.2-0.3-0.3-0.6-0.3c0.2,0.3,0.1,0.1,0.3,0.3c0.1,0.1,0.2,0.2,0.3,0.3c0.2,0.3,0.3,0.5,0.5,0.7c0.1,0.3,0.6,1.3,0.9,1.6
				c0.3,0.6,0.3,0.8,0.5,1.4c0.1,0.2,0.2,0.3,0.2,0.4c0.1,0.2-0.3,1.4-0.5,1.9c-0.2,0.7-1.2,2.2-1.3,2.4c-0.6,1.6,0,0.9-1.3,2.4
				c-0.4,0.5-0.7,0.9-1.1,1.4l-0.7,1.1c-0.1,0.3-0.1,0.2-0.1,0.5c0.8,0.1,1.8-0.8,2.2-1.2c0.3-0.3,0.7-0.5,1-0.8
				c0.8-0.7,1.5-2.2,2-3.1c0.4-0.7,0.7-1.6,1.1-2.2c0.3-0.4,0.8-2,0.8-2.7c0-0.7,0.2-0.9,0.2-1.4c0-0.6-0.4-2.2-0.7-2.7
				c-0.1-0.3-0.2-0.3-0.3-0.5c-0.5-1.3-0.2-1-2-2.2l0.2-0.1c-0.6-0.9-5-1.4-5.2-1.6c0.3-0.4,0.4-0.2,0.6-0.6l0.7-1.2
				c0.3-0.7,0.8-1.4,1.1-1.8c0.3-0.3,0.5-0.5,0.8-0.9c0.3-0.4,0.4-0.7,0.7-1c0.9-0.9,2.2-4.8,2.4-6c0.1-0.4,0.3-1,0.3-1.4l1-5.7
				c0-0.3,0.1-0.5,0.1-0.7c0.1-0.7-0.1-0.6-0.1-0.7C-112.2,609.6-112.1,609.5-112.2,609.7z"/>
			<path class="st0" d="M-125.5,610c0.4,0.5,0.7,1,1,1.6c0.1,0,0.3,0,0.3,0c0.6,0.1-0.4-0.1,0.2,0.1l0.1,0.1
				c1.7,0.1,3.1,0.1,4.8-0.2c1.6-0.2,2.9-0.7,4.3-0.9c0.1-0.1-0.1,0,0.2-0.1c0.1-0.1,0.2-0.1,0.3-0.1c0.3-0.1,0.3-0.2,0.7-0.2
				c0.4-0.1,0.8-0.3,1.2-0.5c0.1-0.3-0.1-0.1,0.3-0.3c0.1-0.3,0.1-0.2,0.6-0.3l0.4-0.5c0-0.6,0.1-0.6,0.2-1.1
				c0.1-0.5-0.1-0.7-0.1-1.1c0.4,0.1,0.3,0.2,0.5,0.5c-0.2-1.4-2.2-0.6-3.5-0.8l0.6,0c-0.3,0.4-0.9,0.4-1.6,0.5
				c-3.2,0.6-4.8,1.1-7.9,2.3C-123,609-125.4,610-125.5,610z"/>
			<path class="st6" d="M-109.2,688.5h5l-0.1-0.1c-0.4-0.2-1-0.1-1.5-0.1c0.3-0.1,0.5-0.3,0.7-0.5c0.5-0.5,2-1.2,2.7-1.7
				c0.5-0.3,2.4-1.4,2.7-1.6c0.5-0.4,0.5-0.2,0.9-0.5c0.4-0.3,0.2-0.3,0.8-0.6c0.3-0.2,0.4-0.4,0.8-0.7c1.2-0.8,2.3-1.7,3.8-2
				c0.4-0.1,0.6-0.4,1-0.2c0.5,0.3,0,0.5-0.1,0.9c0.3-0.1,0.9-0.5,1.1-0.8v0.1c0.2-0.1,0.4-0.2,0.6-0.3c0.3-0.9,0.5-1.5,0.5-2.7
				c0-0.8-0.2-2.2-0.6-2.6l0.3,1.4c-0.7,0-1.1,0.1-1.7,0.2c-0.1,0.2,0.3,0.4-0.7,0.3c-0.5,0.6-0.4,0.2-0.9,0.7
				c-0.2,0.2-0.1,0.2-0.3,0.3c-0.8,0.3-0.5,0.8-1.4,0.8c-0.1,0.6-0.3,0.3-0.7,0.7c-0.7,0.7-0.4,0.2-0.9,0.5
				c-0.1,0.1-0.5,0.5-0.7,0.7c-0.3,0.2-0.6,0.3-0.9,0.6l-2,1.5c-0.1,0.1-0.3,0.1-0.5,0.2c-0.3,0.1-0.7,0.3-1,0.5
				c-0.5,0.3,0.1,0.1-0.8,0.6c-0.4,0.2-0.2,0.2-0.9,0.5l-3.5,2c-0.4,0.3-1.1,1-1.4,1.4c-0.3-0.1-0.3-0.2-0.7-0.3
				C-109.6,688.2-109.4,688.2-109.2,688.5z"/>
			<path class="st9" d="M-130.4,620c-0.5,0.9-2.1,7.3-1.9,8c0,0.3-0.1,0.1,0.1,0.3c0.4-0.6,1.7-1,2.6-0.7c0.7,0.3,1.4,1.2,1.4,2.3
				c0.1,0.1,0.1,0,0.2,0.3c0.2-0.7,0-0.5,0.2-0.7c0.3-0.3,0.5-1,0.6-1.4c0.1-0.2,0-0.5,0.1-0.6c0.4-0.7-0.1,0.8,0.8-1.5
				c0.3-0.8,0.6-1.4,0.8-2.4c0.3-1.7,0.3-0.6,0.7-1.6c0-0.1,0.1-0.3,0.1-0.3c0.1-0.3,0-0.2,0.2-0.2l0.1,0.6l0.2-0.2
				c0-0.3,0-0.6,0-0.9c0-0.5-0.1-0.5-0.2-0.9c-0.4,0-2-0.5-2.9-0.5c-0.5,0-1.1,0.1-1.6,0.1C-129.5,619.8-130,620-130.4,620z"/>
			<path class="st8" d="M-166.4,657.3c0.7,0.5,1.7,0.6,2.4,1c0.6,0.1,2.8,0.7,3.2,1c0.9,0.1,2.9,0.7,3.5,1c-0.2,0.1-1.6,0.7-1.9,0.8
				c-0.5,0.2-1.6,0.5-1.9,0.8c1.3-0.1,3.6-1.6,4.4-1.4c1,0.2,2.4,0.7,3.5,0.9l1.2,0.3c-0.1-0.2,0.1,0.1-0.1-0.1l-0.3-0.3
				c-0.2-0.3-0.1-0.2-0.5-0.4c-0.3-0.1-0.3-0.2-0.6-0.3c-1.2-0.4-0.9-0.4-1.8-0.8c-0.4-0.2-0.9-0.3-1.3-0.4l-2.6-0.9
				c-1.4-0.5-4.3-1.3-5.3-1.8c-0.4-0.2-0.8-0.4-1.2-0.5c-0.7-0.3-0.5-0.4-0.7-0.5c0,0-0.1,0-0.1,0c-0.3-0.1,0.1,0.1-0.3-0.1
				c-0.1-0.1-0.2-0.2-0.5-0.4c-0.8-0.3-0.5-0.1-1.8-0.8c-0.7-0.4-1.7-1.2-1.8-1.2l-0.3,0c-0.3-0.8-0.1-0.2-0.7-0.6l-1.6-1.2
				c-0.3-0.4-0.1-0.4-0.7-0.7c-0.3-0.2-1.2-1-1.4-1.3c-0.4-0.5-0.2-0.6-0.3-1c-0.3-0.6-0.3-0.5-0.6-0.6c0-0.4,0.1-1,0-1.3
				c-0.2-0.6-0.1-0.3,0-1.2c0.1-0.4,0-1.2,0.1-1.4c0.1-0.4,0.7-0.3,0-0.8c0-0.6,0-0.5-0.1-0.8l0.4-2.4c0.1-0.5,0.1-0.7,0.5-1.2
				c0.3-0.3,0.8-0.7,0.8-1c-0.6,0.4-1.6,1.6-2,2.3c-0.6,0.9-1,1.9-1.2,3.1c-0.4,2.6,0.8,5,1.9,6.7
				C-174.4,652.7-170.4,655.7-166.4,657.3z"/>
			<path class="st3" d="M-134.5,649c-0.6-1.4-0.7-1.1-1.2-3c-0.7-2.7-0.1-2-0.3-3.7l0-0.4c-0.3,0.5-0.3,1.2-0.3,1.9
				c-0.4-0.7-0.3-1.9-0.7-2.5c-1.2-1.6-2.7-0.1-3.1,0.2c-0.6,0.3-0.5,0.3-0.7,1c-0.3,1.2-0.2,1.5,0.1,2.7c0.6,2.2,1.1,2.9,2.4,4
				c0.4,0.4,1.3,1,2.2,1.1c0.8,0.1,1.4-0.6,1.5-0.9C-134.6,649.1-134.9,649.2-134.5,649z"/>
			<path class="st6" d="M-129.2,602c0.1,0.4,0.3,0.6,0.5,0.9c0.2,0.3,0.4,0.6,0.5,0.9c0.1,0.2,0.1,0.3,0.3,0.4
				c0.5,0.8,0.4,0.8,0.7,1.6c0.2-0.2,0.1-0.5,0-0.8c-0.1-0.3-0.1-0.3-0.1-0.7c0.2-1-0.3-0.5-0.1-1.6c0.1-0.7,0.1-1,0.4-1.5
				c0.5-1.1,0.5-0.6,0.7-1.1c0.5-1,0.5-1.4,1.4-2.3l1.4-2.2c0.1-0.1,0.2-0.2,0.3-0.3c0.2-0.2,0.1-0.1,0.2-0.3c0.6-1,2.6-2.4,4.3-2
				c1.1,0.3,2.6,1.3,3.2,2.2l0.3,0.6c0.2,0.3,0.2,0.3,0.3,0.7c0.8,1.2,1.1,6.7,1.4,8.5l1.6-0.1l-0.9-0.1c-0.3-0.1,0,0.1-0.2-0.1
				c-0.1-0.2-0.5-5.2-0.8-6.6c-0.5-2.6-3-6.2-5.8-6.6c-1.7-0.2-2.7,0.6-3.7,1.3c-1.6,1.1-3.2,3.9-4.2,5.7
				C-127.9,599.1-129.1,601.4-129.2,602z"/>
			<path class="st8" d="M-115.3,634.9c0.1,0.6,0.5,1.6,0.6,2.5c0.2,3.7-2.9,8.1-5.4,10.5c-1.1,1-2.3,2-3.3,3l0.3,0l-0.1,0.8
				c0,0,0,0.1,0,0.1l0.1,0.2c0.4-0.1,0.9-0.4,1.3-0.6c3.9-2.2,7.5-4.7,9.6-8.2c2-3.1,2.7-6.7,0.4-10.1c-0.4-0.6-1.6-1.9-2.4-2.1
				l-0.2,0.1c1.8,1.2,1.6,0.9,2,2.2c0.1,0.3,0.2,0.3,0.3,0.5c0.3,0.5,0.7,2.1,0.7,2.7c0,0.5-0.2,0.7-0.2,1.4c0,0.7-0.5,2.3-0.8,2.7
				c-0.4,0.7-0.7,1.6-1.1,2.2c-0.5,0.9-1.2,2.4-2,3.1c-0.3,0.3-0.6,0.5-1,0.8c-0.5,0.4-1.5,1.3-2.2,1.2c0-0.3,0-0.2,0.1-0.5l0.7-1.1
				c0.4-0.5,0.7-0.9,1.1-1.4c1.3-1.5,0.7-0.8,1.3-2.4c0.1-0.2,1.1-1.7,1.3-2.4c0.1-0.5,0.5-1.6,0.5-1.9c0-0.1-0.1-0.2-0.2-0.4
				c-0.2-0.6-0.2-0.8-0.5-1.4C-114.7,636.1-115.2,635.2-115.3,634.9z"/>
			<path class="st7" d="M-148.2,632.7c-0.1-1.4,2.2-1,1.4,0.3c-0.1,0.1-0.1,0.1-0.2,0.2c-0.2,0.2,0.1,0.1-0.3,0.2
				C-147.9,633.5-148.2,633.3-148.2,632.7z M-149.1,632l-0.1,0.1c-0.2,0.3-0.1,0.4-0.1,0.8l0.7,2.7c0.2,0.8,1,2.9,1,3.5
				c0.7,0.2,2.3,0.3,3,0c0.8-2.2,1.5-4.3,0.5-6.9c-0.8-1.8-2.7-2.2-4-1.3C-148.4,631.1-149,631.6-149.1,632z"/>
			<path class="st5" d="M-123.2,651.9c-0.3,0.4-1,0.6-1.4,0.9c-0.4,0.3-1.2,0.4-1.4,0.9c1.8-0.4,4.9-0.8,6.7-0.6
				c0.7,0.1,1.6-0.1,1.9,0.5c0.6,0.9-0.4,1,1,1.2c0.2,0,0.2,0,0.4,0c0.4,0.1,0.1,0,0.3,0.1c1.5-0.1,2.1,1.3,2.7,1.4
				c0.4,0.1,0.8,0.1,1.2,0.2c3.2,0.5,6.4,0.9,9.5,1.6c0.8,0.2,1.6,0.4,2.3,0.5c1.3,0.2,1.1-0.1,2.2,0.5c0-1-0.1-1.4-0.8-1.8
				c-0.3-0.1-1.8-0.3-2.3-0.4c-1.5-0.2-3-0.5-4.5-0.7c-1.5-0.3-3-0.5-4.5-0.7c-0.4,0-0.7-0.1-1.1-0.1c-0.9-0.1-0.4-0.1-0.9-0.5
				c-0.7-0.5-1.5-0.1-2.2-0.1c-0.3-0.6-0.6-0.8-1.2-1.1c-0.8-0.5-1.6-0.3-1.8-0.5c-0.3-0.4-0.3-0.7-0.7-1.1
				c-0.3-0.3-0.6-0.6-1.1-0.7c-0.7-0.2-1.6-0.1-2.4,0c-0.3,0-0.6,0.1-0.9-0.1C-122.3,651.5-122.8,651.9-123.2,651.9z"/>
			<path class="st8" d="M-174.9,672.2l-0.5,1.2c0.3-0.2,0.3-0.7,0.5-1c0.6-1,5.8-3.4,6.6-3.7c0.2-0.3,0.2-0.3,0.5-0.4
				c0.3-0.1,0.5-0.2,0.8-0.3c0.3-0.5,0.9-0.8,1.3-1.4c0.4-0.6,0.7-1.2,0.8-2c0-0.3,0-0.7,0-1c0-0.4,0.1-0.5,0.3-0.7
				c-0.5-0.1-0.3-0.5-0.4-1.1c-0.1-0.4-0.3-0.7-0.4-1l-0.2,0.3c0,0,0,0.1,0,0.1c-0.1-0.2-0.2-0.2-0.1-0.4c-0.5,1.4-0.3,0.9-0.6,1.9
				c-0.5,2-0.6,1.3-2,3c-0.7,0.8-3.1,1.8-4.6,3c-0.5,0.4-0.8,0.8-1.3,1.3c-0.7,0.7-0.1,1-1,1.5L-174.9,672.2z"/>
			<path class="st7" d="M-131.3,629.8c-0.3-0.1-0.1,0.1-0.3-0.2l-0.2-0.1c-0.1-0.7,0.4-1.2,1.1-1.1c0.3,0.2,0.7,0.7,0.4,1.2
				C-130.5,629.9-131.2,630.2-131.3,629.8z M-132.2,628.2l-0.2,0.2c-0.2,0.4-0.3,2.2-0.3,2.6c0,0.8-0.1,2.4,0.1,3.1l0.3,0.1
				c0.5,0,2.2,0.2,2.5,0.1c0.4-0.6,0.9-1.1,1.2-1.9c0.4-0.9,0.5-1.6,0.5-2.6c0-1.1-0.7-2-1.4-2.3
				C-130.6,627.2-131.9,627.6-132.2,628.2z"/>
			<path class="st8" d="M-188.6,647.2l1.1,0.1c-0.1,0.2,0.1,0.3-0.3,0.2l2.2,1.6c1.4,1,0.9,1.6,1.6,2.3c0.5,0.5,0.5,1.4,0.9,2
				c0.1,0.2,0.3,0.3,0.4,0.6c0.4,1,0.3,0.9,0.3,1.5c0,0.4,0.2,0.4,0,0.8c-0.1,0.3-0.2,0.4-0.3,0.7l0.4,0.1c-0.1,1.5-0.1,0.7,0.1,1.6
				c0.1,0.2,0,0.4,0.1,0.7c0.2,0.8,0.4,1.1,1.1,1.6c0.3,0.2,0.8,0.5,1.1,0.6c-0.3-0.1-0.2-0.1-0.3-0.3l1.2-0.7
				c-0.5,0-0.8,0.4-1.2,0.6C-181.9,654.4-180,647.1-188.6,647.2z"/>
			<path class="st3" d="M-153.5,643.2c0.2-0.8-0.5-1.4-1.3-1.4c-0.7,0-1.8,0.1-2.6,0.2c-1.3,0.3-3,1.2-3.1,2.6
				c-0.1,1,0.8,1.5,1.4,1.5C-157.7,646.3-153.8,644.4-153.5,643.2z"/>
			<path class="st8" d="M-104.3,688.5c0.8-0.1,5.6-3,6.6-3.6c1.1-0.7,2.2-1.2,3.2-1.9c0.7-0.5,2.6-1.7,2.9-2.2v-0.1
				c-0.2,0.2-0.8,0.7-1.1,0.8c0.1-0.5,0.7-0.6,0.1-0.9c-0.3-0.2-0.6,0.1-1,0.2c-1.4,0.3-2.6,1.3-3.8,2c-0.4,0.2-0.5,0.5-0.8,0.7
				c-0.6,0.3-0.5,0.3-0.8,0.6c-0.5,0.3-0.5,0.1-0.9,0.5c-0.3,0.3-2.2,1.4-2.7,1.6c-0.7,0.4-2.2,1.2-2.7,1.7
				c-0.2,0.2-0.5,0.5-0.7,0.5c0.5,0,1.1-0.1,1.5,0.1L-104.3,688.5z"/>
			<path class="st1" d="M-190.5,679.1c-0.1-1.1-0.3-2.2-0.5-3.3c-0.2-2,0-3.6-0.1-5.4c-0.5,0.2-1.3,2.2-1.6,2.7
				c-0.8,1.4-1.5,3.4-1.3,5.2c0.1,0.9,0.8,1.4,1.2,1.5c0.2,0,0.3,0,0.5-0.1c0.5-0.1,0.4,0.2,0.8,0.1c0.1-0.1,0.1,0,0.3-0.3
				C-190.8,678.9-190.7,679.2-190.5,679.1z"/>
			<path class="st8" d="M-182.6,688.4c1,0.2,2.1,0.1,3.1,0c1.1,0,2.3,0,3.4,0c0.9,0.3,4.8-1.1,5.6-1.5c1.3-0.6,3.6-2,3.9-3.3
				l-0.5,0.5c-1.1-0.5-0.7-0.2-1.1,0.2c-0.1,0.1-0.3,0.3-0.4,0.3c-0.4,0.3-0.5,0.3-1,0.5c-0.4,0.2-0.4,0.4-0.9,0.6
				c-1,0.5-0.8,0.1-2.1,0.8c-0.8,0.4-0.5,0.4-1,0.3c-0.8,0-1.4,0.3-1.8,0.3c-1.1,0.2-0.5,0.2-1.2,0.3l-2.1,0.1
				c-0.7,0-2.2,0.1-2.8,0.1c-0.7-0.1-0.6-0.1-1.3,0c-0.7,0.1-2.3-0.4-3.1-0.5c-0.3-0.1-0.2-0.1-0.5-0.2c1.3,1.2,2.4,1.2,3.5,1.5
				c0,0,0.1,0,0.1,0S-182.7,688.4-182.6,688.4C-182.7,688.4-182.6,688.4-182.6,688.4z"/>
			<path class="st6" d="M-130.3,595.8c-0.3,0.2-1,1.5-1.1,2c-0.2,0.6-0.1,0.5-0.4,0.7c0,0,0.1,0,0.1,0.1l0.5,0.5c0,0,0,0,0.1,0.1
				l1-1.9c0.5-0.9,1.5-2.6,2.2-3.4c1.9-2.1,3.8-4.1,6.9-4.4c1-0.1,1.4,0,2.3,0.3c3.4,1.2,5.1,4.7,6,8.1l0.6,2.3
				c0.2,0.9,0.6,4.4,0.3,5.1c0.1,0.2,0,0.1,0.4,0.1c0.2-1-0.1-3.9-0.3-4.9c-0.5-4-2.4-8.3-5.6-10.4c-1.2-0.8-2.3-1.4-4.1-1.1
				c-1.5,0.3-2.7,0.9-3.8,1.6c-1.1,0.8-2,1.6-2.8,2.5c-0.5,0.5-1.8,2.3-2.2,3.1L-130.3,595.8z"/>
			<path class="st10" d="M-142.5,618.2L-142.5,618.2c0.8,0.1,1.1-0.3,2.4-0.4c0.3,0,0.2-0.1,0.8-0.2c0.7-0.1,1.2-0.6,2.2-0.8
				c1.8-0.5,3.6-0.9,5.3-1.6c0.6-0.2,0.9-0.6,1.6-0.6l-0.3-0.3c0.4-0.3,0.7-0.2,1.2-0.7c0.3-0.3,0.5-0.7,0.8-0.9
				c0.6-0.5,1.4-0.9,2.4-0.9c-0.1-0.2,0.2-0.1-0.3-0.2l0.5-0.1v-0.4c-0.4-0.3-0.7-0.2-0.9-0.5c0.2-0.3,0.6-0.3,0.7-0.5
				c-0.8,0.1-3.3,1.7-4,2.1c-1.2,0.8-2.5,1.6-3.8,2.3c-1.6,0.9-4.6,2.4-6.3,2.9L-142.5,618.2z"/>
			<path class="st4" d="M-155,647.7c-0.7,0-1,0.2-1.3,0c0.3-0.2,0.8-0.3,1.2-0.5c1.2-0.6,2-1.2,3.4-1.6c0,0,0,0.1,0,0.1l0,0.1
				c0,0,0,0,0,0c0.1,0.1,0.4-0.3,0.7,0c0.6,0.7,2.6,1.7,3.5,2c1.7,0.5,3-0.1,4.3-0.9c-0.4-0.2-0.3-0.4-0.9-0.3
				c-0.8,0.1-1.5,0.7-2.9,0.3c-0.6-0.2-1.2-0.4-1.6-0.7c-1-0.6-1.3-0.5-1.6-0.7c0.1-0.1,0-0.1,0.4-0.3l1-0.4
				c0.1-0.1,0.1-0.1,0.1-0.1c-0.4-0.3-2.5-0.3-3.1-0.1c-0.9,0.3-1.6,0.7-2.3,1.1c-1.7,1-3.8,1.5-4.3,2.5
				C-157.6,648.3-155.5,648-155,647.7z"/>
			<path class="st8" d="M-150.9,625.1c0.2,1.9-0.1,3.3,0,4.2c0.1,1.2,0.5,2.4,0.8,3.5c0.3,1.1,0.6,2.2,0.9,3.3
				c0.3,1.1,0.5,2,1.1,2.8l0.2,0.2l0.4,0.1c0-0.5-0.8-2.7-1-3.5l-0.7-2.7c-0.1-0.4-0.1-0.5,0.1-0.8l0.1-0.1c-0.4,0-0.1,0.1-0.3-0.2
				l-0.3-3.1c0-1.1-0.1-2.8,0.2-3.8C-150,625-150.2,625.1-150.9,625.1z"/>
			<path class="st5" d="M-165.4,660.7v0.2c0.1,0.3,0.3,0.6,0.4,1c0.1,0.6-0.1,1,0.4,1.1c0.6-0.3,1-0.3,1.7-0.5
				c0.3-0.1,0.4-0.2,0.8-0.3c0.4-0.1,0.3-0.3,0.9-0.3c0.3-0.3,1.4-0.6,1.9-0.8c0.3-0.1,1.7-0.7,1.9-0.8c-0.6-0.3-2.6-0.8-3.5-1
				L-165.4,660.7z"/>
			<path class="st4" d="M-157,657.7c0.3,0.1,2.7,1.2,3.9,1.5c1.1,0.3,1.1,0.1,1.6,1c0.2,0.4,0.7,1.4,1,1.7c-0.1-0.4-0.5-1.1-0.7-1.5
				c-0.4-0.7-0.5-1-1-1.1c-2.9-0.9-5.6-2.2-7.9-4.1c-0.5-0.4-0.3-0.4-0.3-0.5c-0.2-0.2-0.4-0.3-0.6-0.5c-0.5-0.4-1.3-1.4-1.5-1.9
				c-0.4-1-1.3-2-1.5-3c-0.1-0.8-0.5-1.2-0.5-1.8c0.1-0.8,0.4-3.1,0.7-3.8c0.5-1.2,0.1-1.2-0.3-1.4c0.1-0.2,0.2-0.3,0.3-0.5
				c0,0,0.2-0.3,0.2-0.3c0.1-0.2,0.1-0.1,0-0.2c-0.8,0.6-1.7,3.6-1.8,4.9c-0.1,2.3,1.6,5.3,2.9,7.1c1,1.3,2.2,2.3,3.5,3.2
				L-157,657.7z"/>
			<path class="st8" d="M-126.5,606.3c0.3,0,0.6-0.1,0.8-0.3h-0.4c0-1.4,1.2-6.4,1.8-7.1c0.6-1.8,2.7-4.9,4.6-5.3
				c4.3-0.9,5.5,8.2,5.3,11.3c0.1,0.3,0.4,0.2,0.8,0.2c-0.3-1.8-0.6-7.3-1.4-8.5c-0.4-0.2-0.4-0.8-1.2-1.5c-0.1-0.1-0.1-0.1-0.2-0.2
				c-0.3-0.3-0.8-0.7-1.2-0.9c-2-1.1-3.1-0.8-4.9,0.7c-0.2,0.2-0.2,0.3-0.4,0.4c-0.4,0.3-0.1,0.2-0.3,0.6l-0.6,1.1
				c-0.2,0.4-0.4,0.9-0.5,1.3c-0.3,0.8-0.6,1.8-0.9,2.6c-0.2,0.5-0.2,0.9-0.3,1.4c-0.3,0.8-0.7,1.8-0.8,2.7
				c-0.1,0.5-0.1,1.1-0.3,1.5C-126.6,606.4-126.8,606.4-126.5,606.3z"/>
			<path class="st8" d="M-130.3,595.8l0,0.2c0.4-0.7,1.8-2.5,2.2-3.1c0.8-1,1.7-1.8,2.8-2.5c1-0.7,2.2-1.3,3.8-1.6
				c1.8-0.3,3,0.4,4.1,1.1c3.2,2.1,5,6.4,5.6,10.4c0.2,1.1,0.5,3.9,0.3,4.9c0.2,0.2,0.2,0.1,0.4,0c-0.1-0.4-0.1-2.5-0.1-3.1
				c0-1.4-0.4-2.9-0.6-4.3c-0.2-1-0.9-2.8-1.2-3.7c-1-2.4-3.2-4.8-5.7-5.6l-1.2-0.4c0,0,0,0-0.1,0h-0.7c-0.3,0.2-1.4,0.2-1.8,0.3
				c-1.9,0.5-4.1,2-5.2,3.4C-128.4,592.7-130.2,594.9-130.3,595.8z"/>
			<path class="st8" d="M-127.2,605.8c0.1,0.4,0.1,0.3,0.1,0.7c0.3,0,0.5-0.1,0.6-0.2c-0.3,0-0.1,0.1-0.2-0.1c0.2-0.4,0.2-1,0.3-1.5
				c0.2-0.9,0.5-1.8,0.8-2.7c0.2-0.5,0.1-0.9,0.3-1.4c0.3-0.8,0.6-1.8,0.9-2.6c0.2-0.4,0.3-0.9,0.5-1.3l0.6-1.1
				c0.2-0.4,0-0.3,0.3-0.6c0.2-0.2,0.3-0.3,0.4-0.4c1.7-1.6,2.9-1.8,4.9-0.7c0.4,0.2,0.9,0.6,1.2,0.9c0.1,0.1,0.1,0.1,0.2,0.2
				c0.8,0.7,0.8,1.3,1.2,1.5c-0.1-0.3-0.1-0.4-0.3-0.7l-0.3-0.6c-0.6-0.9-2.1-1.9-3.2-2.2c-1.7-0.4-3.7,0.9-4.3,2
				c-0.1,0.2,0,0-0.2,0.3c-0.1,0.1-0.1,0.1-0.3,0.3l-1.4,2.2c-0.9,0.9-0.9,1.3-1.4,2.3c-0.3,0.5-0.2,0-0.7,1.1
				c-0.3,0.5-0.3,0.9-0.4,1.5c-0.2,1,0.3,0.6,0.1,1.6c-0.1,0.4-0.1,0.4,0.1,0.7C-127.1,605.2-127,605.6-127.2,605.8z"/>
			<path class="st11" d="M-145.8,661.8c1.4,1,3.6,1.3,5.3,0.5c1.3-0.7,1.8-0.7,2.7-1.8c0.3-0.4,0.8-0.9,0.8-1.5
				c-0.5,0.3-0.6,0.8-1.1,1.1c-0.6-0.7-1.6-3.5-4.3-2.2c0,0,0,0,0,0c0,0-0.1,0-0.1,0c0,0,0,0-0.1,0s0,0-0.1,0l0,0
				c-0.1,0-0.1,0-0.3,0c-0.1,0-0.2-0.1-0.3-0.2c0,0-0.1,0-0.1-0.1c0,0,0,0,0,0l-0.2-0.1c-0.1-0.1-0.3-0.2-0.7-0.2c0,0,0,0,0,0
				c-1-0.1-2.4,0.5-3,1.2c0,0.1-0.1,0.1-0.1,0.2c-0.1,0.2-0.2,0.3-0.4,0.5c0,0-0.3,0-0.3,0c0.1,0.2,0.1,0.3,0.1,0.4
				c0.1,0.1,0.1,0.3,0.2,0.4c0.3,0.5,0.8,1,1.2,1.4c0.1,0.1,0.2,0.2,0.3,0.3c0,0,0.1,0.1,0.1,0.1
				C-145.9,661.7-145.8,661.7-145.8,661.8z"/>
			<path class="st9" d="M-136.8,653.8c0.1,1,0.2,2.7,0.9,3.2c0.9,0.3,1.8,0.1,2.8,0.1c0.5-0.2,0.7,0.2,0.7-1.3
				c0-0.7-0.2-1.1-0.3-1.7c-1.1,0-2.7,0.2-3.4-0.3c0,0-0.3-0.1-0.4-0.1C-136.9,653.7-136.7,653.6-136.8,653.8z"/>
			<path class="st8" d="M-117.9,686.3v-0.5c0.9-0.1,1.6-0.3,2.3-0.7c0.7-0.4,1.4-0.7,2.1-1c2.4-1.1,2.7-1.6,3.9-2.2
				c0,0-0.2,0.2-0.1-0.3l-4.1,1.3c-0.7,0.2-1.4,0.4-2.2,0.5c-0.4,0.1-0.7,0.1-1.2,0.2c-0.2,0-0.4,0.1-0.6,0.1
				c-0.8,0.2-0.5,0.8-0.3,2.1l0.1,0.4C-118,686.2-118,686.3-117.9,686.3C-118,686.2-117.9,686.3-117.9,686.3z"/>
			<path class="st8" d="M-109.7,681.6c-0.1,0.5,0.1,0.3,0.1,0.3c-1.2,0.6-1.4,1.1-3.9,2.2c-0.7,0.3-1.4,0.6-2.1,1
				c-0.7,0.4-1.4,0.6-2.3,0.7v0.5c0,0.3,0.1,1.2,0.2,1.4l0-1c0.6-0.4,2.3-0.8,3.3-1.4l3.1-1.6c0.5-0.3,1.1-0.5,1.5-0.8
				c0.3-0.2,0.5-0.3,0.7-0.5c0.3-0.2,0.5-0.3,0.7-0.5c0.5-0.3,1.9-0.9,2.8-1.9l-0.1-0.3c-0.4,0.1-1.6,0.7-2,0.9
				C-108.4,681.1-109,681.4-109.7,681.6z"/>
			<path class="st10" d="M-133.9,641.4c0-0.5,0.1-0.7,0.2-0.9c0.3-0.5,0.4-0.4,1.1-0.4c0.2,0.2,0.4,0.4,0.5,0.6
				c0.1,0.1,0.3-0.1,0.3,0.8c0.1,3-1.4,2.6-2,1.7c-0.2-0.3-0.4-0.8-0.3-1.2L-133.9,641.4z M-132.9,639.5c-2.1,0.7-1.4,3.2-1.2,4.4
				c0.2,1.8,0.6,3.3,1.7,4.3c1.2,1.1,1-0.5,1-1.4c0-1,0-2-0.1-2.9C-131.4,642.6-131.1,639-132.9,639.5z"/>
			<path class="st12" d="M-124.3,621.9c-0.1,2.6-0.7,4.9-1.4,7.1c-0.3,1-0.7,2.2-1.1,3.1c-0.4,0.9-1,2-1.2,2.9l0,0.2
				c0.3,0,0.4-0.2,0.7-0.5c0.2-0.2,0.3-0.4,0.5-0.7c0.3-0.4,1.9-4.8,2.1-5.4c0.2-0.7,0.2-1.2,0.5-2c0.7-1.9,0.7-3.6,0.6-5.6
				c0-0.5-0.2-0.6-0.2-0.9c-0.2,0.1-0.3,0-0.5-0.1c0.1,0.3,0.2,0.4,0.2,0.9C-124.3,621.3-124.3,621.5-124.3,621.9z"/>
			<path class="st6" d="M-114.1,610.4c-0.3,3.4-1.8,9.4-3.6,11.9c-0.2,0.3-0.2,0.3-0.3,0.5c-0.3,0.7-2.9,3.6-3.5,4.1
				c-0.6,0.5-1.7,0.9-1.7,1.9c0.6-0.1,1.9-1.1,2.2-1.4l1.7-1.8l1.4-2.1c0.5-0.7,0.9-1.4,1.2-2.2c0.7-1.4,1.6-3.5,1.9-5.2
				c0.3-1.7,0.6-2.1,0.9-4.4c0-0.3,0.2-1.2,0.4-1.4C-113.8,610.2-113.8,610.3-114.1,610.4z"/>
			<path class="st6" d="M-149.5,638.6l1.6,0.4l-0.2-0.2c-0.7-0.7-0.8-1.7-1.1-2.8c-0.3-1.1-0.6-2.2-0.9-3.3
				c-0.3-1.1-0.7-2.3-0.8-3.5c-0.1-0.9,0.2-2.3,0-4.2l-0.7-0.2c0.1,1.3-0.1,2.7,0,4.1c0.1,2.2,0.9,4.4,1.6,6.5
				c0.1,0.5,0.3,1,0.4,1.6c0.1,0.3,0.1,0.6,0.1,0.9C-149.3,638.8-149.3,638.5-149.5,638.6z"/>
			<path class="st7" d="M-130.2,614.6l1,0.2c0.9,0,1.4-1.1,2.6-1.3c0.7-0.1,1.2-0.1,1.6,0.3c0.3,0.2,0.8,0.8,1,0.9
				c0.4,0.1-0.6-1.6-0.7-1.6c-0.2-0.3-0.4-0.5-0.7-0.7c-0.3-0.2-0.5-0.5-0.9-0.5c-1,0-1.9,0.4-2.4,0.9c-0.3,0.2-0.6,0.6-0.8,0.9
				c-0.5,0.5-0.7,0.4-1.2,0.7L-130.2,614.6z"/>
			<path class="st6" d="M-151.6,619.6c0.3,0,0.6,0.1,0.8,0.2c0.5,0.2,0.3,0.2,0.5,0.6c-0.7,0.9-1.3,2.9-1,4.3c0.5,0,0.4-0.1,0.8-0.2
				c0.3-1.4,0.4-2.7,1.2-3.7c0.3-0.3,1.4-0.9,0.8-1.5c-0.3-0.3-1.5-0.4-2.1-0.3C-150.8,619.1-151.3,619.2-151.6,619.6z"/>
			<path class="st8" d="M-111.9,609.4c0.1,0.1,0.3,0,0.1,0.7c0,0.3-0.1,0.5-0.1,0.7l-1,5.7c-0.1,0.4-0.3,1-0.3,1.4
				c-0.3,1.2-1.6,5.1-2.4,6c-0.3,0.3-0.5,0.6-0.7,1c-0.2,0.3-0.5,0.5-0.8,0.9c-0.4,0.5-0.9,1.2-1.1,1.8l-0.7,1.2
				c1-0.3,2.6-2.7,3.1-3.6c2.4-4,4.2-11.3,4.5-16.1C-111.7,609.2-111.7,609.2-111.9,609.4z"/>
			<path class="st3" d="M-156,649.4c-0.3,0.4-0.6,1-0.3,1.7c0.1,0.2,0.7,1.2,0.7,1.3c1.2,1.3,1,1.7,2.5,1.5c0.3-1-0.4-2-0.7-2.9
				C-154.3,650.1-154.7,649.3-156,649.4z"/>
			<path class="st7" d="M-146.5,622c-0.1,0-2.3,1.5-2.7,1.7c-0.3,0.3-0.9,0.7-1.4,0.8c-0.3,0.1-0.3,0.2-0.8,0.2
				c-0.4,0-0.2,0-0.3,0.2l0.7,0.2c0.7,0.1,0.9-0.1,1.4-0.2c0.3-0.1,0.9-0.5,1.3-0.7c0.5-0.3,0.9-0.5,1.4-0.7
				c0.8-0.3,2.2-0.9,3.3-0.9l0.5-0.2l-0.2-0.3c-0.2-0.2-0.2-0.1-0.4-0.3C-145.1,621.6-145.1,621.8-146.5,622z"/>
			<path class="st4" d="M-125.7,606.1l1.6-0.4c-0.1-0.1-0.2,0-0.2-0.6c0-0.4,0-0.5,0.1-0.8c0-0.4-0.1-0.3-0.1-0.7
				c0-0.3,0.1-0.6,0.1-0.8l0-3.4c-0.2,0,0,0.2-0.2,0.1l0.2-0.5c-0.6,0.7-1.8,5.7-1.8,7.1H-125.7z"/>
			<path class="st13" d="M-167.1,659.2c0.1,0.3,0,0.1,0.4,0.3c0.1,0.1,0.3,0.2,0.5,0.3c0.4,0.3,0.3,0.7,0.8,0.8l4.5-1.3
				c-0.4-0.3-2.6-0.9-3.2-1L-167.1,659.2z"/>
			<path class="st9" d="M-132.4,654.2c0.1,1,0.3,1.4,0.2,2.5c0.1,0.1,0,0.1,0.2,0.1l1.2-0.3c0.3-0.1,0.6-0.3,0.8-0.4
				c0.1-0.1,0-0.1,0.1-0.3l-0.5,0.1c0.7-0.4,1.1-1,0.3-1.6C-130.7,653.9-131.7,654-132.4,654.2z"/>
			<path class="st6" d="M-127.7,635.5c0.5,0.4,2.3-0.6,2.3-0.7l-0.4,0.1l1-2.5c0.1-0.2,1.1-1.3,1.2-2.3c-0.2,0.1-0.2,0.1-0.2,0.1
				c0-0.2,0-0.4-0.1-0.7c-0.1-0.3-0.2-0.3-0.4-0.3c-0.4,0.3-0.6,1.2-0.8,1.7c-0.4,1.1-0.8,2.4-1.4,3.4
				C-127.1,635.5-127,635.5-127.7,635.5z"/>
			<path class="st7" d="M-130.1,619.3c-0.2,0.1-0.4,0.5-0.3,0.7c0.4,0,0.9-0.2,1.4-0.3c0.5-0.1,1.1-0.2,1.6-0.1
				c0.9,0.1,2.5,0.6,2.9,0.5c0.2,0.1,0.3,0.2,0.5,0.1c0.5,0.1,0.9-0.1,1.2-0.5c-0.7,0.1-1.1,0.1-1.7-0.1c-0.3-0.1-0.6-0.2-0.8-0.3
				l-0.5-0.3c-0.2-0.1-0.1,0-0.2-0.1l-0.7-0.1C-127.6,618.6-129.3,618.9-130.1,619.3z"/>
			<path class="st5" d="M-169.8,658.4c0.1,0.2,0.1,0.1,0.6,0.2c0.9,0.1,1.2,0.3,2.1,0.6l3.1-0.9c-0.7-0.4-1.7-0.6-2.4-1
				c-0.1,0.3,0.1,0.1-0.8,0.4c-0.3,0.1-0.5,0.1-0.9,0.2C-168.6,658.1-169.2,658.2-169.8,658.4z"/>
			<path class="st12" d="M-125.8,610h0.3c0.1,0,2.4-1,2.8-1.2c3.1-1.2,4.6-1.6,7.9-2.3c0.7-0.1,1.3-0.1,1.6-0.5l-0.6,0
				c-3.3,0.6-6.2,1.2-9.3,2.6c-0.5,0.2-0.9,0.4-1.4,0.6S-125.7,609.6-125.8,610z"/>
			<path class="st1" d="M-130.1,619.3c0.7-0.4,2.4-0.7,3.4-0.6c0.1-0.2,0.2,0-0.3-0.9c-0.3-0.5-0.5-0.5-0.6-0.9l-0.3,0
				c-0.6,0.3-0.9,0.5-1.3,0.9c-0.2,0.3-0.3,0.4-0.5,0.6C-129.9,618.7-130,618.9-130.1,619.3z"/>
			<path class="st1" d="M-126.4,653c-0.4,0.1-0.6,0.3-0.9,0.5c-0.3,0.3-0.5,0.4-0.8,0.7c-0.3,0.2-0.7,0.4-1.1,0.5l-0.1-1.7v-0.1
				c-0.1,0-2.6,1-2.6,1l2.1-0.3c0.3,0.6,0.5,1.3,0.3,2.1l0.1-0.1c0.3-0.3,1.6-1.1,1.9-1.2c0.3-0.5,1.9-1.1,1.9-1.4c0-0.1,0,0,0-0.2
				c-0.1-0.1-0.1-0.2-0.1-0.2C-126,652.7-125.9,652.8-126.4,653z"/>
			<path class="st6" d="M-147.4,620.9l0.4,0c0.2,0.3,0.6,0.8,0.6,1.1c1.3-0.3,1.4-0.5,2.9-0.3c-0.2-0.6-1.8-1.8-3.4-1.2
				L-147.4,620.9z"/>
			<path class="st1" d="M-98.8,672.6c0.8,0,2.3-1.8,1.8-3l1.1,0l-2-0.3c-0.2,0.3-0.2,0.5-0.3,0.8L-98.8,672.6z"/>
			<path class="st4" d="M-145.5,666.7c0.6,0.6,2,0.4,2.8,0.3c0.8-0.2,1.8-0.5,2.3-1c-0.3,0-0.1,0.1-0.1-0.1c0,0,0,0,0,0
				c-1.1,0.5-2.3,0.7-3.7,0.6c-3-0.3-1.6-0.3-3.2-1c0.1,0.4,1.6,1.2,2,1.3L-145.5,666.7z"/>
			<path class="st1" d="M-149.1,623.7c0.3-0.2,2.5-1.6,2.7-1.7c0.1-0.3-0.4-0.8-0.6-1.1l-0.4,0c-1,0.8-1.2,1.4-1.9,2.7L-149.1,623.7
				z"/>
			<path class="st6" d="M-126.4,653c0.5-0.1,0.4-0.3,0.8-0.4c0,0,0.1,0.1,0.1,0.2c0,0.1,0,0.1,0,0.2c-0.1,0.3-1.6,0.9-1.9,1.4
				c0.1,0,1.3-0.5,1.4-0.7c0.2-0.5,1-0.6,1.4-0.9c0.5-0.3,1.1-0.5,1.4-0.9l-0.1-0.2c0,0,0-0.1,0-0.1l0.1-0.8l-0.3,0
				c-0.6,0.3-1,0.7-1.5,1c-0.3,0.2-0.5,0.3-0.7,0.5C-126,652.7-126.1,652.6-126.4,653z"/>
			<path class="st4" d="M-155,647.7c0.4,0,0.5,0,0.8-0.2c0.2-0.2,0.1-0.1,0.4-0.2c0.3-0.1,0.3-0.1,0.6-0.1c0.1-0.3,0.1-0.3,0.4-0.5
				c0.2-0.1,0.4-0.2,0.6-0.3c0.4-0.3,0.8-0.5,1.4-0.6c-0.3-0.4-0.5,0-0.7,0c0,0,0,0,0,0l0-0.1c0,0,0,0,0-0.1c-1.4,0.4-2.2,1-3.4,1.6
				c-0.4,0.2-0.9,0.3-1.2,0.5C-156,647.9-155.7,647.7-155,647.7z"/>
			<path class="st6" d="M-127.9,616.9l0.3,0c0.2,0.4,0.4,0.4,0.6,0.9c0.4,0.9,0.4,0.7,0.3,0.9l0.7,0.1c0.4-0.1,0.1,0,0.2-0.2
				c-0.1-0.4-0.1-0.7-0.3-1c-0.3-0.5-0.2-0.5-0.4-1c-0.3,0-0.5,0-0.8,0l-0.4,0.1C-127.8,616.9-127.8,616.8-127.9,616.9z"/>
			<path class="st7" d="M-152.4,618.9c-0.1,0.3-0.2,0.6-0.5,0.7l-0.3,1.3c0.3-0.1,0.6-0.8,1-1.1c0.1-0.1,0.3-0.2,0.4-0.3
				c0.3-0.4,0.8-0.5,1-0.7c0-0.2-0.7-0.2-0.9-0.2C-152.1,618.7-152.1,618.6-152.4,618.9z"/>
			<path class="st14" d="M-131.8,653.9l-0.7,0.1l0.1,0.2c0.8-0.2,1.8-0.3,2.3,0.2c0.8,0.7,0.4,1.2-0.3,1.6l0.5-0.1
				c-0.1,0.1-0.1,0.1-0.1,0.3c0.2-0.1,0.2-0.1,0.3-0.1c0.1-0.3,0.2-0.3,0.2-0.5c0.2-0.8,0-1.5-0.3-2.1L-131.8,653.9z"/>
			<path class="st0" d="M-110.9,608.7c0.4-0.2,0.7-0.9,0.7-1.5c0,0,0-0.1-0.1-0.1c0,0,0-0.1,0-0.1l-0.1-0.1
				c-0.3-0.3-0.1-0.4-0.5-0.5c0,0.5,0.2,0.6,0.1,1.1C-110.9,608.1-110.9,608.1-110.9,608.7z"/>
			<path class="st6" d="M-133.1,657.1c0.5,0,0.7,0,1-0.2c-0.2-0.1-0.1,0-0.2-0.1c0.1-1.1-0.1-1.6-0.2-2.5l-0.1-0.2
				c-1.2,0.1-2.5,0.2-3.6-0.2c0.8,0.5,2.4,0.3,3.4,0.3c0,0.6,0.2,1,0.3,1.7C-132.3,657.2-132.6,656.8-133.1,657.1z"/>
			<path class="st3" d="M-129.2,652.9L-129.2,652.9c0.3,0.4,0.1,0.9,0.2,1.5l0.2-0.1c0-0.5,0.1-1.4,0.5-1.7c0.4-0.3,0.3,0,0.4-0.4
				C-128.1,652.2-129.1,652.8-129.2,652.9z"/>
			<path class="st15" d="M-127.2,653.5c-0.7,0.1-0.9,0.6-1.6,0.8l-0.2,0.1c-0.1-0.5,0.1-1.1-0.2-1.4l0.1,1.7
				c0.4-0.1,0.8-0.3,1.1-0.5C-127.7,653.9-127.5,653.8-127.2,653.5z"/>
			<path class="st3" d="M-160.8,641.1h7.5v3.9h-7.5V641.1z M-161.6,643.1h6.2v3.2h-6.2V643.1z M-134.5,649h-2.3v2.5h2.3V649z
				 M-136.1,650.2h-3.1v-9.9h3.1V650.2z M-138.5,640h-2.3v8.8h2.3V640z M-141.6,641.4h2.9v5.4h-2.9V641.4z M-123.3,635.6h5.1v5h-5.1
				V635.6z"/>
			<path class="st10" d="M-130.9,628.2c0.6,0,1,0.5,1,1c0,0.6-0.5,1-1,1s-1-0.5-1-1C-131.9,628.6-131.5,628.2-130.9,628.2z
				 M-147.4,631.6c0.6,0,1.1,0.5,1.1,1.1c0,0.6-0.5,1-1.1,1c-0.6,0-1.1-0.5-1.1-1C-148.5,632.1-148,631.6-147.4,631.6z
				 M-134.4,639.7h3.2v5h-3.2V639.7z"/>
		</g>
		<path class="st16" d="M-150.9,605c-0.2,0.1-0.3,0.2-0.3,0.3c0,0.1,0,0.4,0.2,0.8c0.2,0.6,0.4,1.1,0.6,1.4c0.1,0.1,0.1,0.1,0.2,0.2
			c0.1,0.1,0.2,0.1,0.3,0.1c0.3,0.1,0.6,0.2,0.7,0.5c0.1,0.3,0,0.6-0.4,0.9c-0.3,0.3-1,0.6-2,0.9c-1.8,0.6-2.8,0.6-3-0.1
			c-0.1-0.1-0.1-0.2,0-0.3c0-0.1,0.1-0.2,0.3-0.4c0.1-0.2,0.3-0.4,0.3-0.6c0-0.2-0.1-0.6-0.2-1c-0.1-0.4-0.5-1.6-1.2-3.7
			c-0.2-0.7-0.4-1.1-0.5-1.3c-0.1-0.2-0.4-0.4-0.6-0.4c-0.2,0-0.4-0.1-0.5-0.1c-0.1-0.1-0.2-0.2-0.2-0.3c-0.1-0.2,0-0.4,0.1-0.5
			c0.1-0.2,0.3-0.3,0.5-0.5c0.2-0.1,0.5-0.3,0.8-0.4c0.2-0.1,0.6-0.2,1.2-0.3c0.1-0.1,0.3-0.1,0.6-0.2c0.4-0.1,1-0.3,1.7-0.7
			c0.4-0.2,0.8-0.3,0.9-0.4c1-0.3,2-0.4,2.8-0.1c0.8,0.2,1.3,0.8,1.6,1.6c0.1,0.5,0.2,0.9,0.1,1.3c-0.1,0.4-0.3,0.8-0.6,1.1
			c-0.1,0.1-0.2,0.3-0.1,0.4c0.1,0.1,0.2,0.2,0.5,0.2c0.6,0,1,0.2,1.4,0.5c0.3,0.3,0.7,0.8,1,1.6c0.2,0.3,0.3,0.5,0.4,0.5
			c0.1,0.1,0.3,0.1,0.7,0.1c0.1,0,0.2,0,0.3,0.1c0.1,0.1,0.2,0.2,0.2,0.3c0.1,0.1,0.1,0.3,0,0.5c-0.1,0.2-0.2,0.4-0.3,0.5
			c-0.4,0.3-0.9,0.6-1.6,0.8c-0.9,0.3-1.7,0.3-2.3-0.1c-0.3-0.2-0.5-0.4-0.8-0.7c-0.2-0.3-0.6-0.8-1-1.4c-0.3-0.4-0.5-0.7-0.7-0.9
			C-150.3,605-150.6,604.9-150.9,605z M-152.6,601.5l0.5,1.7c0,0,0,0,0,0.1c0.1,0.2,0.1,0.3,0.2,0.3c0.1,0,0.2,0,0.3,0
			c0.4-0.1,0.7-0.3,0.8-0.6c0.1-0.3,0.1-0.7-0.1-1.2c-0.3-0.9-0.8-1.3-1.4-1.1c-0.2,0.1-0.3,0.1-0.4,0.3
			C-152.6,601.1-152.6,601.2-152.6,601.5z"/>
		<path class="st16" d="M-141.7,602.1c-0.2,0.1-0.3,0.2-0.3,0.3c0,0.1,0.1,0.4,0.2,0.8c0.2,0.6,0.4,1.1,0.6,1.4
			c0.1,0.1,0.1,0.1,0.2,0.2c0.1,0.1,0.2,0.1,0.3,0.1c0.3,0.1,0.6,0.2,0.7,0.5c0.1,0.3,0,0.6-0.4,0.9c-0.3,0.3-1,0.6-2,0.9
			c-1.8,0.6-2.8,0.6-3-0.1c-0.1-0.1-0.1-0.2,0-0.3c0-0.1,0.1-0.2,0.3-0.4c0.1-0.2,0.3-0.4,0.3-0.6c0-0.2-0.1-0.6-0.2-1
			c-0.1-0.4-0.5-1.6-1.2-3.7c-0.2-0.7-0.4-1.1-0.5-1.3c-0.1-0.2-0.4-0.4-0.6-0.4c-0.2,0-0.4-0.1-0.5-0.1c-0.1-0.1-0.2-0.2-0.2-0.3
			c-0.1-0.2,0-0.4,0.1-0.5c0.1-0.2,0.3-0.3,0.5-0.5c0.2-0.1,0.5-0.3,0.8-0.4c0.2-0.1,0.6-0.2,1.2-0.3c0.1-0.1,0.3-0.1,0.6-0.2
			c0.4-0.1,1-0.3,1.7-0.7c0.5-0.2,0.8-0.3,1-0.4c1-0.3,2-0.4,2.8-0.1c0.8,0.2,1.3,0.8,1.6,1.6c0.1,0.5,0.2,0.9,0.1,1.3
			c-0.1,0.4-0.3,0.8-0.6,1.1c-0.1,0.1-0.2,0.3-0.1,0.4s0.2,0.2,0.5,0.2c0.6,0,1,0.2,1.4,0.5c0.3,0.3,0.7,0.8,1,1.6
			c0.2,0.3,0.3,0.5,0.4,0.5c0.1,0.1,0.3,0.1,0.7,0.1c0.1,0,0.2,0,0.3,0.1c0.1,0.1,0.2,0.2,0.2,0.3c0.1,0.1,0.1,0.3,0,0.5
			c-0.1,0.2-0.2,0.4-0.3,0.5c-0.3,0.3-0.9,0.6-1.6,0.8c-0.9,0.3-1.7,0.3-2.3-0.1c-0.3-0.2-0.5-0.4-0.8-0.7c-0.2-0.3-0.6-0.8-1-1.4
			c-0.3-0.4-0.5-0.7-0.7-0.9C-141.1,602-141.4,602-141.7,602.1z M-143.3,598.5l0.5,1.7c0,0,0,0,0,0.1c0.1,0.2,0.1,0.3,0.2,0.3
			c0.1,0,0.2,0,0.3,0c0.4-0.1,0.7-0.3,0.8-0.6c0.1-0.3,0.1-0.7-0.1-1.2c-0.3-0.9-0.8-1.3-1.4-1.1c-0.2,0.1-0.3,0.1-0.4,0.3
			C-143.4,598.1-143.4,598.3-143.3,598.5z"/>
		<path class="st16" d="M-147.9,677.9c-0.2,0-0.3,0.1-0.4,0.2c0,0.1-0.1,0.4-0.1,0.9c0,0.7,0.1,1.2,0.1,1.6c0,0.1,0.1,0.2,0.1,0.2
			c0.1,0.1,0.1,0.1,0.3,0.2c0.3,0.2,0.5,0.4,0.5,0.7c0,0.3-0.2,0.6-0.7,0.7c-0.4,0.1-1.2,0.2-2.2,0.2c-1.9,0-2.9-0.4-2.9-1.1
			c0-0.1,0-0.2,0.1-0.3c0.1-0.1,0.2-0.2,0.4-0.3c0.2-0.2,0.4-0.3,0.5-0.5c0.1-0.2,0.1-0.6,0.2-1.1c0-0.4,0.1-1.7,0.1-4
			c0-0.7-0.1-1.2-0.1-1.5c-0.1-0.3-0.2-0.4-0.5-0.6c-0.2-0.1-0.4-0.2-0.5-0.3c-0.1-0.1-0.1-0.2-0.1-0.4c0-0.2,0.1-0.4,0.2-0.5
			c0.1-0.1,0.3-0.2,0.6-0.3c0.2-0.1,0.5-0.1,0.9-0.1c0.2,0,0.6,0,1.3,0.1c0.1,0,0.3,0,0.6,0c0.5,0,1.1,0,1.9-0.1
			c0.5,0,0.8-0.1,1-0.1c1.1,0,2,0.3,2.8,0.8c0.7,0.5,1,1.1,1,2c0,0.5-0.1,0.9-0.3,1.3c-0.2,0.4-0.6,0.7-1,0.9
			c-0.2,0.1-0.3,0.2-0.3,0.3c0,0.1,0.1,0.3,0.4,0.4c0.5,0.2,0.9,0.5,1.2,0.9c0.3,0.4,0.5,1,0.6,1.9c0,0.3,0.1,0.6,0.2,0.7
			c0.1,0.1,0.3,0.2,0.6,0.3c0.1,0,0.2,0.1,0.3,0.2c0.1,0.1,0.1,0.2,0.1,0.3s-0.1,0.3-0.2,0.5c-0.1,0.2-0.3,0.3-0.5,0.4
			c-0.4,0.2-1,0.3-1.8,0.3c-1,0-1.8-0.3-2.2-0.8c-0.2-0.3-0.4-0.5-0.5-0.9c-0.1-0.4-0.3-0.9-0.5-1.7c-0.1-0.5-0.3-0.9-0.5-1
			C-147.3,678-147.6,678-147.9,677.9z M-148.4,673.9l-0.1,1.8c0,0,0,0,0,0.1c0,0.2,0,0.3,0.1,0.4c0.1,0.1,0.2,0.1,0.3,0.1
			c0.5,0,0.8-0.1,1-0.4c0.2-0.2,0.3-0.6,0.3-1.1c0-1-0.4-1.5-1.1-1.5c-0.2,0-0.3,0-0.4,0.1C-148.3,673.5-148.4,673.7-148.4,673.9z"
			/>
		<path class="st16" d="M-138,678c-0.2,0-0.3,0.1-0.4,0.2c-0.1,0.1-0.1,0.4-0.1,0.9c0,0.7,0,1.2,0.1,1.5c0,0.1,0.1,0.2,0.1,0.3
			c0,0.1,0.1,0.1,0.3,0.2c0.3,0.2,0.5,0.4,0.5,0.7c0,0.4-0.2,0.6-0.7,0.7c-0.5,0.1-1.2,0.2-2.2,0.2c-1.9,0-2.9-0.4-2.9-1.1
			c0-0.1,0-0.2,0.1-0.3c0.1-0.1,0.2-0.2,0.4-0.3c0.2-0.1,0.4-0.3,0.5-0.5c0.1-0.2,0.1-0.5,0.2-1c0-0.4,0-1.7,0-4
			c0-0.7,0-1.2-0.1-1.5c-0.1-0.3-0.2-0.5-0.5-0.6c-0.2-0.1-0.4-0.2-0.5-0.3c-0.1-0.1-0.1-0.2-0.1-0.3c0-0.2,0.1-0.4,0.2-0.5
			c0.1-0.1,0.4-0.3,0.6-0.3c0.2-0.1,0.5-0.1,0.9-0.1c0.2,0,0.6,0,1.3,0.1c0.1,0,0.3,0,0.6,0c0.5,0,1.1,0,1.9-0.1
			c0.5,0,0.9-0.1,1-0.1c1.1,0,2,0.3,2.7,0.8c0.7,0.5,1,1.2,1,2c0,0.5-0.1,0.9-0.3,1.3s-0.5,0.7-0.9,0.9c-0.2,0.1-0.3,0.2-0.3,0.3
			c0,0.1,0.1,0.3,0.4,0.4c0.6,0.2,1,0.5,1.2,0.9c0.3,0.4,0.4,1,0.5,1.8c0.1,0.4,0.1,0.6,0.2,0.7c0.1,0.1,0.3,0.2,0.6,0.3
			c0.1,0,0.2,0.1,0.3,0.2c0.1,0.1,0.1,0.2,0.1,0.3c0,0.2-0.1,0.3-0.2,0.5c-0.1,0.1-0.3,0.3-0.5,0.4c-0.5,0.2-1,0.3-1.8,0.3
			c-1,0-1.7-0.3-2.2-0.8c-0.2-0.3-0.3-0.6-0.5-0.9c-0.1-0.4-0.3-0.9-0.5-1.7c-0.1-0.5-0.3-0.8-0.5-1C-137.4,678.1-137.6,678-138,678
			z M-138.4,674l-0.1,1.8c0,0,0,0,0,0.1c0,0.2,0,0.3,0.1,0.4c0.1,0.1,0.2,0.1,0.3,0.1c0.5,0,0.8-0.1,1-0.4c0.2-0.2,0.3-0.6,0.3-1.1
			c0-1-0.3-1.5-1.1-1.5c-0.2,0-0.3,0-0.4,0.1C-138.4,673.6-138.4,673.8-138.4,674z"/>
	</g>
</g>
</svg>
