<?xml version="1.0" encoding="utf-8"?>
<!-- Generator: Adobe Illustrator 19.0.0, SVG Export Plug-In . SVG Version: 6.00 Build 0)  -->
<svg version="1.1" id="Layer_1" xmlns="http://www.w3.org/2000/svg" xmlns:xlink="http://www.w3.org/1999/xlink" x="0px" y="0px"
	 viewBox="0 0 81 81" style="enable-background:new 0 0 81 81;" xml:space="preserve">
<style type="text/css">
	.st0{fill-rule:evenodd;clip-rule:evenodd;fill:#9155A2;}
	.st1{fill-rule:evenodd;clip-rule:evenodd;fill:#FFFFFF;}
	.st2{fill-rule:evenodd;clip-rule:evenodd;fill:#C6C6C9;}
	.st3{fill-rule:evenodd;clip-rule:evenodd;fill:none;stroke:#000000;stroke-width:0.216;stroke-miterlimit:22.9256;}
	.st4{fill-rule:evenodd;clip-rule:evenodd;fill:#2B0D32;}
	.st5{fill-rule:evenodd;clip-rule:evenodd;fill:#A4B0B3;}
	.st6{fill-rule:evenodd;clip-rule:evenodd;fill:#561F64;}
	.st7{fill-rule:evenodd;clip-rule:evenodd;fill:#F39779;}
	.st8{fill-rule:evenodd;clip-rule:evenodd;fill:#CD3727;}
	.st9{fill-rule:evenodd;clip-rule:evenodd;fill:#6CBE45;}
	.st10{fill-rule:evenodd;clip-rule:evenodd;fill:#525F6B;}
	.st11{fill-rule:evenodd;clip-rule:evenodd;fill:#030203;}
	.st12{fill-rule:evenodd;clip-rule:evenodd;fill:#192F46;}
	.st13{fill-rule:evenodd;clip-rule:evenodd;fill:#000002;}
	.st14{fill-rule:evenodd;clip-rule:evenodd;fill:#DC1F26;}
	.st15{fill-rule:evenodd;clip-rule:evenodd;fill:#111921;}
	.st16{fill-rule:evenodd;clip-rule:evenodd;fill:#F9EC00;}
	.st17{fill-rule:evenodd;clip-rule:evenodd;fill:#F8E9D6;}
	.st18{fill-rule:evenodd;clip-rule:evenodd;fill:#706F70;}
	.st19{fill-rule:evenodd;clip-rule:evenodd;fill:#F7EC00;}
	.st20{fill-rule:evenodd;clip-rule:evenodd;fill:none;stroke:#6CBE45;stroke-width:0.216;stroke-miterlimit:2.6131;}
	.st21{fill-rule:evenodd;clip-rule:evenodd;fill:none;stroke:#6CBE45;stroke-width:0.2835;stroke-miterlimit:2.6131;}
</style>
<path class="st0" d="M57.5,3.8c0.3,0.1,0.6,0.3,0.9,0.5C57.3,6.7,56.1,9,55,11.4c1.1,0.5,2.2,1.2,3.2,1.8c0.9,0.6,1.8,1.3,2.7,2
	c1.6-2.1,3.3-4.2,4.9-6.3c2.3,1.8,4.4,3.9,6.2,6.2c-2,1.7-4.1,3.4-6.1,5c0.6,0.9,1.3,1.7,1.9,2.6c0.6,1.1,1.3,2.1,1.8,3.2
	c2.4-1.2,4.7-2.4,7.1-3.6c2.7,5.3,4.1,11.3,4.2,17.2c0.1,6.3-1.3,12.6-4.1,18.3c-2.4-1.1-4.8-2.3-7.2-3.4c-0.6,1.3-1.3,2.4-2.1,3.6
	c-0.5,0.8-1.2,1.5-1.7,2.3c2.1,1.6,4.2,3.3,6.3,4.9c-1.8,2.3-3.9,4.4-6.2,6.2c-1.7-2-3.4-4.1-5.1-6.1c-0.9,0.6-1.7,1.3-2.7,1.9
	c-1,0.6-2,1.3-3.1,1.8c1.2,2.4,2.4,4.8,3.6,7.1c-5.9,3-12.6,4.4-19.3,4.2c-5.8-0.2-11.5-1.6-16.6-4.2c1.2-2.4,2.4-4.8,3.6-7.1
	c-1.1-0.5-2.1-1.2-3.1-1.8c-0.9-0.6-1.8-1.3-2.7-1.9c-1.7,2.1-3.4,4.1-5.1,6.1c-2.3-1.8-4.4-3.9-6.1-6.2c2.1-1.6,4.2-3.3,6.3-4.9
	c-0.8-1-1.6-2-2.2-3.1c-0.6-0.9-1.1-1.8-1.6-2.8c-2.4,1.1-4.8,2.3-7.2,3.4c-2.5-5.1-3.9-10.7-4.1-16.4c-0.2-6.6,1.2-13.2,4.2-19.1
	c2.4,1.2,4.7,2.4,7.1,3.6c0.6-1.2,1.3-2.3,1.9-3.4c0.5-0.8,1.2-1.6,1.8-2.4c-2-1.7-4.1-3.4-6.1-5.1c1.8-2.3,3.9-4.3,6.2-6.2
	c1.6,2.1,3.3,4.2,4.9,6.3c0.9-0.7,1.8-1.4,2.8-2c1-0.6,2-1.3,3.2-1.8c-1.1-2.4-2.3-4.8-3.4-7.1c0.2-0.1,0.4-0.3,0.7-0.4
	C27,2.4,30.4,1.3,34,0.7c0.9-0.2,1.8-0.3,2.7-0.4c0.6-0.1,1.2-0.1,1.9-0.1c0.3,0,0.6,0,0.9,0C45.6-0.1,51.9,1.2,57.5,3.8z"/>
<path class="st1" d="M23.1,4.3c1.1,2.4,2.3,4.8,3.4,7.1c-1.1,0.5-2.1,1.2-3.2,1.8c-1,0.6-1.9,1.3-2.8,2c-1.6-2.1-3.3-4.2-4.9-6.3
	c1.6-1.3,3.3-2.4,5.1-3.5C21.5,5,22.3,4.6,23.1,4.3z"/>
<path class="st1" d="M65.8,8.9c-1.6,2.1-3.2,4.2-4.9,6.3c-0.9-0.6-1.8-1.4-2.7-2c-1.1-0.6-2.1-1.3-3.2-1.8c1.1-2.4,2.3-4.8,3.4-7.1
	C61.1,5.5,63.5,7.2,65.8,8.9z"/>
<path class="st2" d="M45.6,11.7c6.4,1.1,12.4,4.3,16.7,9.2c0.6,0.6,1.2,1.3,1.7,2c4.5,6,6.5,13.7,5.5,21.1c-0.7,6-3.5,11.7-7.6,16.1
	c-4.4,4.7-10.3,7.8-16.6,8.8c-6.8,1.1-13.9-0.3-19.8-4c-3.4-2.1-6.3-4.9-8.5-8.1c-2.5-3.6-4.2-7.7-4.8-12
	c-1.1-6.8,0.3-13.9,3.9-19.7c3.5-5.8,9.2-10.3,15.7-12.4C36.2,11.3,41,10.9,45.6,11.7z"/>
<path class="st1" d="M44.1,12.3c3.6,0.4,7.2,1.6,10.4,3.4c3.7,2.1,6.9,5,9.4,8.5c2.5,3.7,4.2,7.9,4.8,12.3
	c0.7,5.2-0.1,10.5-2.2,15.2c-3,6.8-8.9,12.3-15.8,14.9c-5,1.9-10.6,2.3-15.9,1.1c-4.7-1-9.2-3.3-12.8-6.6c-3.7-3.3-6.4-7.5-8-12.2
	c-1.6-4.8-1.8-10.1-0.7-15c1.1-4.9,3.5-9.4,7-13c2.4-2.5,5.2-4.6,8.3-6.1C33.4,12.5,38.8,11.7,44.1,12.3z"/>
<path class="st1" d="M9.5,15.1c2.1,1.7,4.1,3.4,6.1,5.1c-0.6,0.8-1.2,1.6-1.8,2.4c-0.7,1.1-1.4,2.2-1.9,3.4
	c-2.4-1.2-4.7-2.4-7.1-3.6C6.1,19.8,7.7,17.4,9.5,15.1z"/>
<path class="st1" d="M72,15.1c1.8,2.2,3.4,4.7,4.7,7.3c-2.4,1.2-4.7,2.4-7.1,3.6c-0.5-1.1-1.2-2.2-1.8-3.2c-0.5-0.9-1.3-1.7-1.9-2.6
	C68,18.5,70,16.8,72,15.1z"/>
<path class="st1" d="M11.9,54.5c0.5,1,1,1.9,1.6,2.8c0.6,1.1,1.4,2.1,2.2,3.1c-2.1,1.7-4.2,3.3-6.3,4.9C7.6,63,6,60.5,4.7,57.9
	C7.1,56.7,9.5,55.6,11.9,54.5z"/>
<path class="st1" d="M69.6,54.5c2.4,1.1,4.8,2.3,7.2,3.4c-1.3,2.6-2.9,5.1-4.7,7.4C70,63.7,68,62,65.9,60.4c0.6-0.8,1.2-1.5,1.7-2.3
	C68.3,56.9,69,55.7,69.6,54.5z"/>
<path class="st1" d="M20.6,65.3c0.9,0.6,1.7,1.4,2.7,1.9c1,0.6,2,1.3,3.1,1.8c-1.2,2.4-2.4,4.8-3.6,7.1c-2.6-1.3-5-2.9-7.3-4.7
	C17.2,69.4,18.9,67.4,20.6,65.3z"/>
<path class="st1" d="M60.9,65.4c1.7,2,3.4,4.1,5.1,6.1c-2.3,1.8-4.7,3.4-7.3,4.7c-1.2-2.4-2.4-4.7-3.6-7.1c1.1-0.5,2.1-1.2,3.1-1.8
	C59.2,66.7,60,66,60.9,65.4z"/>
<path class="st3" d="M40.7,80.4c22.1,0,40.1-18,40.1-40.1c0-22.1-18-40.1-40.1-40.1c-22.1,0-40.1,18-40.1,40.1
	C0.6,62.4,18.6,80.4,40.7,80.4z"/>
<g>
	<g>
		<path class="st4" d="M48,44.8c-0.1,0-0.5,0.3-0.6,0.3c-0.1,0-0.6,0.4-0.8,0.5l-0.1,0c0,0.1-0.1,0.1-0.1,0.2c0,0-0.3,0.2-0.3,0.2
			c-0.1,0.1-0.4,0-0.5,0.2l-3.6,3.7l-0.1,0c-0.2,0.2-0.6,0.4-1,0.4c-0.3,0.1-0.9,0.1-1.2-0.1c-0.2,0-0.5-0.2-0.7-0.3
			c-0.8-0.6-0.9-1-1.4-1.6l-0.6-0.1L36.8,48c-0.5-0.1-1-0.3-1.4-0.4c-0.3-0.1-1.3,0.5-1.8,0.6c-0.2,0-0.2,0.1-0.4,0.1
			c-0.2,0-0.2,0.1-0.3,0.1c-0.3,0.1-0.4,0.1-0.7,0.2c-0.1,0.1-0.1,0.1-0.1,0.3c0,0.1,0,0.3,0,0.4L32,49.6c-0.1,0.3-0.2,0.5-0.3,0.7
			c-0.1,0.1-0.2,0.2-0.3,0.3c-0.1,0.1-0.1,0.1-0.2,0.2c0,0,0,0,0,0c0,0,0,0,0,0c0,0,0,0,0,0c0,0,0,0,0,0c0,0,0,0,0,0
			c0.2,0.2,0.4,0.4,0.5,0.7c0,0,0.1,0.1,0.1,0.2c0,0,0,0.1,0,0.1c0,0.1,0.1,0.3,0.1,0.4c0,0.2,0,0.3,0,0.5c0,0.1,0,0.1,0,0.2
			c0,0.1,0,0.2-0.1,0.3c-0.1,0.1-0.1,0.3-0.2,0.5c-0.2,0.3-0.4,0.6-0.6,0.9c0,0,0,0,0,0c0,0.1,0.1,0.1,0.1,0.2l0,0.1
			c0.3,0.4,0.5,1.2,0.1,2.1c0,0.1,0,0.2-0.1,0.2c-0.1,0.2-0.4,0.5-0.7,0.7c-0.4,0.3-0.9,0.5-1.3,0.7l-0.6,0.2l-0.1,0l-0.2,0l0,0
			c-0.3,0.1-0.5,0.1-0.6,0.1c0.1,0.1,11,0,12.1,0c1.2,0,11.3,0.1,11.6,0l0-0.4l-0.2-1l0-0.5l0.1-0.1l0.6-0.1c0.3-0.1,1.7-0.3,3.5-1
			c1.5-0.6,2.9-1.3,2.9-1.3l0.8-2c0,0,0.4-1.5,0.4-1.5l0.1-0.6l0.1-0.6c0.2-1.3,0.1-2.3-0.1-3.1c-0.3-1-2.5-0.7-3.6-0.7
			c-0.9-0.2-1.5-0.3-2-0.5c-0.6-0.2-1.1-0.4-1.8-0.7c-0.2-0.1-0.4-0.1-0.6-0.2c-0.1,0-0.1-0.2-0.3-0.3c-0.2-0.1-0.4-0.1-0.6-0.1
			c0,0-0.1,0-0.1,0C50,44.5,48.7,44.7,48,44.8z"/>
		<path class="st5" d="M25.6,21.8c0.9-0.1,1.8,0.5,2.1,0.9l0.7,0.8c0.1,0.2,0.2,0.3,0.3,0.5c0.4,0.6,0.6,0.7,0.9,1.4
			c0.2,0.3,0.3,0.7,0.4,1.1c0.1,0.3,0.3,0.8,0.5,1.1l0.5,1.1c0.2,0.4,0.2,0.7,0.4,1.2c0.1,0.4,0.3,0.7,0.4,1.1
			c0.2,0.5,0.4,0.7,0.3,1.2c-0.1,0.5-0.2,0.8-0.5,1c-1.1,0.9-1.7-0.3-2.3,0C29,33.3,30,34.1,30,35.3c0,0.7-1.2,1-2.1,0.6
			c-0.4-0.2-0.7-0.3-1-0.5c-1.2-0.8-2.2-2-2.8-3.4c-0.5-1.1-0.3-0.7-0.6-1.7c-0.1-0.2-0.1-0.4-0.2-0.6c-0.1-0.4-0.2-0.9-0.2-1.3
			C22.9,26.6,23,22.2,25.6,21.8L25.6,21.8z M30,37l-0.6,0.2c0.1,0.1,0.4-0.1,0.6-0.1c-0.4,0.4-0.3,0.5-0.6,0.6
			c-0.2,0.1-0.3,0.4-0.4,0.5c-0.2,0.2-0.3,0.1-0.3,0.4c-0.1,0.1-0.2,0-0.2,0.3c0,0,0,0,0,0c0,0.2-0.1-0.2-0.1,0.2
			c0,0.3-0.2,0.6-0.2,1.2c0,0.5-0.1,1.3,0.1,1.7c0.1,0.3,0.1,0.4,0.3,0.7c0.1,0.1,0.2,0.1,0.2,0.2c0.3,0.5,0,0.1,0.4,0.5
			c0.1,0.1,0.1,0.2,0.3,0.3c0.2,0.2,0.3,0.3,0.4,0.3c0.1,0,0,0,0.1,0c0,0,0.1,0.1,0.2,0.1c0.1,0.1,0.2,0.1,0.3,0.2
			c0.2,0.1,0.4,0.2,0.6,0.3c0.2,0.1,0.4,0.2,0.6,0.3c0.3,0.1,0.3,0.2,0.6,0.3c0.2,0.1,0.4,0.2,0.6,0.3c0.1,0.1,0.2,0.1,0.3,0.1
			c0.2,0.1,0,0.1,0.3,0.1c0.1,0,0.2,0.1,0.3,0.2c0.1,0.1,0.2,0.1,0.3,0.1c0.2,0.1,0.5,0.2,0.7,0.2c0,0,0-0.1,0.2-0.1
			c0.1,0,0.2,0,0.3,0l-0.8-0.5c-0.5-0.4-1.1-0.8-1.4-1.3c-0.6-0.7-1.3-2-1.2-2.9c0-0.5,0.4-1.8,0.7-2c0.2-0.4,0.7-0.7,1-0.9
			c1-0.8,2.9-0.5,4.1-0.3c0.3,0,0.6,0.1,0.8,0.1c0.1-0.1,0.1,0.1,0-0.3c0-0.1,0-0.2-0.1-0.4c0-0.2-0.1-0.4-0.2-0.7
			c-0.3-0.8-0.6-1.8-0.7-2.7c0-0.5,0-1.1,0-1.7c0.1-0.1,0-0.1,0.1-0.1c-0.1-0.6,0.1-1.4,0.4-1.8c-0.1-0.2,0-0.2-0.2-0.3
			c-0.1,0-0.2-0.1-0.3-0.1c0,0-0.1,0.1-0.2,0.1c-0.2,0.1-0.3,0.4-0.4,0.5l0.1-0.6c0-0.1,0,0,0-0.1c-0.3,0-0.8-0.2-1.1-0.1
			c-0.1,0.2,0,0.3-0.1,0.6c-0.1,0.6-0.3,0.5-0.4,0.5c-0.2,0,0,0.1-0.4,0.1c-0.5,0-0.3,0-0.4,0.1c0,0-0.1,0-0.2,0L34.3,32
			c-0.2-0.1-0.2-0.2-0.4-0.4c-0.1-0.1-0.6-0.3-0.8-0.7c-0.1-0.3-0.2-0.2-0.3-0.5c-0.1-0.4-0.2-0.8-0.3-1.2c-0.2-0.7-0.5-1.5-0.8-2.2
			c-0.1-0.4-0.3-0.6-0.5-1c-0.2-0.4-0.3-0.7-0.5-1c-0.1-0.2-0.2-0.3-0.2-0.5c-0.4-0.8-1-1.7-1.5-2.3c-0.4-0.4-1.1-1-1.7-1.3
			c-0.4-0.1-0.9-0.1-1.4-0.1c-1.1,0.1-2.1,0.9-2.6,1.9c-0.7,1.3-0.8,3.5-0.7,5.3c0.1,1.7,0.3,2.2,0.9,3.6c0.6,1.4,2.1,3.6,3.3,4.3
			c0.2,0.1,0.3,0.2,0.5,0.3c0.1,0.1,0.4,0.1,0.6,0.2c1.6,0.5,2.7-0.2,3.2-0.2c0.5-0.1,0.2,0,0.5-0.1C31.7,36.1,30.7,36.9,30,37z"/>
		<path class="st6" d="M36.6,19.3L36.6,19.3c-0.1,0.1-0.1,0.1-0.1,0.1c-0.8,0.4-0.4,0.2-1.3,0.8c-0.1,0.1-0.1,0.1-0.2,0.1
			c-0.2,0.2-0.4,0.4-0.6,0.7c-0.2,0.3-0.4,0.5-0.5,0.8c-0.1,0.1-0.2,0.3-0.3,0.4c0,0.1-0.1,0.2-0.1,0.2l-0.3,0.7
			c-0.1,0.1-0.2,0.4-0.2,0.5c-0.1,0.3-0.2,0.4-0.2,0.8l0,0.3c-0.1,0.3,0,0.8-0.1,1.2c0,0.5,0.1,0.5,0.2,0.9c0.1,0.1,0.1,0.3,0.2,0.4
			c0.1,0.2,0.1,0.3,0.2,0.4l0.1,0.1c0,0.1,0.2,0.5,0.3,0.8c0.1,0.1,0.2,0.5,0.2,0.6l0.2,0c1.1,0.1,1.6-0.2,2.6-0.5
			c0.3-0.1,0.5-0.2,0.8-0.3l6.9-2.3c0.3-0.1,0.4-0.1,0.6-0.1l2.2-0.5c0.2,0,0.1,0,0.2-0.1c0-0.2,0-0.2,0-0.3
			c-0.1-0.3-0.1-0.3-0.3-0.6c0-0.1-0.1-0.1-0.1-0.2c-0.1-0.1-0.1-0.2-0.2-0.4c-0.1-0.1-0.2-0.2-0.2-0.4c-0.1-0.1,0-0.1-0.1-0.2
			c-0.1-0.1-0.6-0.9-0.8-1c0,0,0,0,0,0L45.6,22c0,0,0,0,0,0c-0.4-0.6-1-1.1-1.5-1.6c-0.5-0.5-1.3-0.8-2.1-1
			c-0.8-0.2-1.8-0.3-2.7-0.3c-0.2,0-0.2,0-0.4,0c-0.4,0-0.7,0-1.1,0C37.4,19.1,37,19.2,36.6,19.3z"/>
		<path class="st5" d="M21.4,50.2c0.3,0,0.2,1,0.2,1.3c0,0.4,0,1.1,0,1.5c-0.1,0.3,0.2,1.7,0.3,2c0.1,0.2,0.2,0.4,0.2,0.6
			c0.4,1.1,0.6,1.1,0.9,1.5c0.2,0.3,0,0.1,0.4,0.4c0.3,0.2,0.5,0.4,0.8,0.4c0.2,0,0.2,0,0.3,0.1c0.2,0,0.5,0,0.7,0
			c0.3,0,0.5,0.1,0.7,0.1c0.3,0,0.1,0,0.3-0.1c0.1,0,0.3,0,0.4,0c0.2,0,0.5-0.1,0.7-0.1c0.3,0,0.5,0.1,0.7,0
			c0.2-0.1,0.8-0.2,0.9-0.2c0.1,0,0.1-0.1,0.3-0.1c0.2-0.1,0.4-0.1,0.6-0.2c0.4-0.2,0.6-0.4,0.8-0.7c0.2-0.2,0.2-0.3,0.2-0.6
			c0-0.5,0.1-1.1-0.6-0.8c-0.4,0.2-1.2,0.7-1.3,1c-0.2,0.3-0.2,0.2-0.6,0.6C28,56.9,28,57,27.9,56.9c0-0.1,0-0.2,0.1-0.3
			c-0.1,0-0.2,0-0.2,0c0,0,0,0-0.1,0c-0.2,0-0.1-0.2,0.1-0.3c0.2-0.2,0.1,0,0.3-0.3c0.1-0.3,0.2-0.5,0.4-0.7
			c0.5-0.4,0.7-0.7,1.2-1.1c0.4-0.3,0.7-0.7,1-1.2c0.3-0.5,0.1-0.7,0.1-0.9c0-0.3,0-0.8-0.1-1.1c-0.4,0.1-2.5,1.1-2.7,1.5
			c-0.1,0.1-0.1,0.3-0.2,0.4l0.2-0.5c-0.9,0.3-1,0.3-0.8-0.1c0.1-0.2,0.1-0.1,0.2-0.2c0.2-0.2,0.1-0.6,0.6-1.2
			c0.5-0.6,0.4-0.4,1-0.8c0.2-0.1,0.4-0.3,0.5-0.4c0.1-0.1,0.2-0.1,0.3-0.1c0.1-0.1,0.1-0.1,0.3-0.2c0.1-0.1,0.2-0.1,0.3-0.2
			c0,0,0.1-0.1,0.1-0.1c0.2-0.3,0.2-0.2,0.3-0.8c0-0.3-0.1-0.3-0.2-0.5c-0.4-0.5-0.7-0.6-1.5-0.6c-1,0-1.8,0.4-2.6,0.8L26.2,48
			c0.4,0,0.8,0.1,1.1,0c0.3,0,0.8-0.2,1,0c-0.2,0-0.3,0.1-0.4,0.1c-0.1,0-0.3,0-0.4,0.1c-0.6,0.2-2.3,0.4-2.9,0.3
			c0.1-0.1,0.1-0.2,0.3-0.3c0.1,0,0.1-0.1,0.2-0.1l0.2-0.1c-0.1-0.1-0.2-0.2-0.4-0.2c-0.4-0.2-0.3-0.3-0.6-0.7
			c-0.2-0.3-0.1-0.2-0.1-0.5c0-0.2-0.1-0.3-0.1-0.5c0-0.4-0.1-0.7-0.2-1c-0.1-0.2-0.1-0.3-0.2-0.5L23.3,44c-0.1-0.2-0.1-0.3-0.2-0.4
			c-0.1-0.1,0,0-0.3-0.3c-0.5-0.5-0.1,0-0.7-0.5c-0.1-0.1,0,0-0.2,0c-0.1,0-0.5-0.2-0.5-0.4c-0.6,0.1-1.1,0.8-1.2,1.4
			c-0.1,0.8,0.2,1.5,0.5,2.1c0.3,0.5,0.6,1.4,0.7,2C21.5,49.1,21.3,49.3,21.4,50.2z"/>
		<path class="st7" d="M23.6,25.7c0,0.3,0.1,0.2,0.1,0.4c0.1,0.6,0.2,0.7,0.3,1.5c0.1,0.7,0.5,2.1,0.8,2.8c0.1,0.3,0.3,0.6,0.3,0.8
			c0.1,0.5,0.2,0.1,0.5,0.9c0.1,0.3,0.2,0.2,0.4,0.4c0.1,0,0.1,0,0.2-0.1c0.2,0.2,0.4,0.6,0.7,0.6l0,0.2c0.1,0,0.2-0.1,0.3,0
			c0,0,0.1,0.1,0.1,0.2c0.2,0,0.1-0.1,0.3,0c0.2,0.1,0.1,0.1,0.1,0.2l0.4,0c0.1,0.1,0,0,0,0.1c0,0,0,0.1,0,0.1c0,0,0,0,0,0
			c0.4,0,0.3,0.2,0.6,0.4c-0.1-0.1-0.5-0.6-0.6-1.2c-0.1-0.6,0.2-0.9,0.7-0.9c0.5,0,2.5,1.2,2.3-0.1l-0.2-0.5c0,0,0-0.1-0.1-0.1
			c-0.1-0.2-0.2-0.4-0.3-0.6c-0.1-0.3-0.1-0.4-0.3-0.6L29.4,27c-0.1-0.4-0.3-0.9-0.4-1.3c-0.1-0.2-0.2-0.4-0.3-0.6
			c-0.3-0.6-0.1-0.4-0.6-1.1c-0.1-0.2-0.2-0.3-0.4-0.5c-0.3-0.4-0.5-0.6-0.9-0.8c-0.3-0.2-0.8-0.4-1.3-0.3
			C24.2,22.6,23.6,24.7,23.6,25.7z"/>
		<path class="st7" d="M35.7,43.1c0.5,0,0.7,0.2,0.8,0.6c0.1,0.3,0.4,0.7,0.3,1.1c-0.6,0-0.5-0.1-0.9-0.6c0,0-0.3-0.4-0.3-0.5
			C35.4,43.5,35.5,43.3,35.7,43.1L35.7,43.1z M36.7,40.5c-0.1,0.5-1.7,1.3-2.3,1.2c-0.2,0-0.6-0.2-0.6-0.6c0-0.6,0.7-0.9,1.3-1.1
			c0.3-0.1,0.8-0.1,1.1-0.1C36.5,39.9,36.8,40.2,36.7,40.5L36.7,40.5z M36.4,42.3c-0.1,0.1-0.2,0.1-0.3,0.1
			c-0.2,0.1-1.1,0.2-1.4,0.2c0.2-0.4,1.1-0.6,1.8-1c0.3-0.2,0.6-0.4,0.9-0.5c0.2-0.1,1.1-0.1,1.3,0c0,0,0,0-0.1,0l-0.4,0.2
			c-0.1,0.1-0.1,0.1-0.1,0.1c0.1,0.1,0.2,0.1,0.7,0.3c0.2,0.1,0.4,0.2,0.7,0.3c0.6,0.2,0.9-0.1,1.2-0.1c0.3,0,0.2,0,0.4,0.1
			c0-0.2,0-0.3-0.1-0.5c0.4,0.1,0.3,0.1,0.5,0.4c0.1,0.2,0.2,0.4,0.4,0.6c0.3,0.4,0.5,0.8,0.9,1c0.6,0.4,2,1,2.9,0.7
			c-0.1-0.2-0.1-0.1-0.2-0.3c-0.1-0.1-0.1-0.2-0.2-0.3c-0.1-0.1-0.3-0.2-0.4-0.3c-0.1-0.1-0.2-0.3-0.3-0.4c-0.2,0.1-0.1,0-0.1,0.2
			c0,0.1-0.3,0.4-0.6,0.4c-0.4,0-0.7-0.3-0.9-0.4c-0.5-0.5-0.8-0.8-1-1.7c-0.1-0.5-0.2-0.6,0-1.1c0.1-0.3,0-0.3,0.3-0.4
			c0.2-0.1,0.8-0.8,1.3-0.1c0.2,0.3,0.1,0.8,0.3,1c0-0.3,0-0.6,0.1-0.8l0,0.1c0.1-0.1,0.1-0.5,0.3-1.1c0.5-1,1.6-1.6,2.6-1.2
			c0.6,0.2,1.1,0.7,1.3,1.4c0.3,0.9,0.2,1.4,0,2.3c0.1,0.1-0.1,0.1,0,0c0.1-0.1,0.2-1.2,0.2-1.4c0.1,0.1,0,0.1,0.2,0.1
			c0.2-0.6-0.4-2-0.7-2.3c-0.5-0.6-1.4-0.8-2.2-0.9c-0.7-0.1-0.8,0-1.3,0.2c-0.4,0.1-0.8,0.3-1.1,0.5c-0.4,0.3-0.7,0.7-1.3,0.9
			c-0.1,0-0.2,0-0.3,0.1c-0.1,0-0.2,0.1-0.2,0.1c-0.1-0.1-0.1-0.1-0.1-0.1c-0.4,0.1-0.6,0.3-1,0.3c-0.6,0.1-1.2,0.1-1.8-0.2
			c-0.3-0.1-1.4,0-2-0.1c-1.2-0.1-1.3-0.2-2.4,0.2c-0.2,0.1-0.4,0.1-0.5,0.2c-0.1,0.1-0.1,0.1-0.1,0.2c-0.2,0.1-0.1,0-0.1,0.2
			c0,0.2,0,0-0.1,0.2c0,0.1-0.1,0.2-0.1,0.3c-0.1,0.2-0.2,0.3-0.2,0.5l-0.3,1.1c0,0.2,0,0.1,0,0.3c0,0.2-0.2,0.4,0.1,0.9
			c0.1,0.2,0.1,0.3,0.2,0.5c0,0.1,0,0.2,0.1,0.2l0.1,0.2c0,0,0,0,0.1,0.1c0.2,0.1,0,0,0.1,0.2l0.4,0.6c0.1,0.1,0.2,0.2,0.4,0.3
			c0.5,0.5,0.6,0.5,1.2,0.9c0.4,0.3,0.9,0.4,1.3,0.7c0.2,0.2,0.1,0.2,0.4,0.3c0-0.2-0.3-0.5-0.3-0.7c0.6,0.1,1.2,1.7,1.5,2.2
			c0.4,0.6,1.2,1.4,2.1,1.6c0.6,0.2,1,0.1,1.5-0.2c0.2-0.1,0.4-0.2,0.6-0.3c0.2-0.1,0.3-0.3,0.5-0.5c0.4-0.3,0.6-0.6,1-0.9
			c0.5-0.5,0.4-0.2,0.6-0.8c0,0,0.3-0.5-0.2-0.4c-0.5,0.1-0.7,1.3-2.1,1.8c-0.6,0.2-1.1,0.3-1.8,0.1c-1-0.3-1.4-1-1.8-1.7
			c-1-1.7-0.7-1.1-1.6-3.1c-0.1-0.2-0.2-0.5-0.3-0.7C36.6,42.8,36.4,42.6,36.4,42.3C36.4,42.3,36.5,42.3,36.4,42.3z"/>
		<path class="st8" d="M47.9,37.6c0.3-0.1,0.5-0.1,0.8-0.2c0.9-0.2,2.1-0.8,3-0.1c0.1,0.1,0.3,0.4,0.4,0.6c0.2,0.8,0.1,1-0.1,1.6
			c-0.1,0.3-0.9,1.7-1,1.8c-0.1,0.1-0.1,0.1-0.2,0.3c-0.3,0.7-0.6,0.7-1.1,1.2c-0.2,0.2-0.3,0.2-0.6,0.4c-0.5,0.3-0.4,0.1-0.5,0.1
			c-0.1,0,0,0-0.1,0.1c0-0.1,0.3-0.4,0.5-0.9c0.5-1.2,0.2-1.3,0.5-1.5c0.4-0.2,0.9-0.5,1-0.9c-0.2,0-0.4,0.1-0.6,0.2
			c-0.4,0.2-0.3,0.1-0.6,0.2c-0.4-1.1-0.3-1.3-1.1-2.4C48,37.7,47.8,37.7,47.9,37.6L47.9,37.6z M48.3,37c0,0-0.7,0.4-0.9,0.3
			c-0.1,0-0.1,0-0.1-0.1l0-0.1c-0.2,0-0.3-0.1-0.4-0.1c-0.1,0-0.1,0-0.2-0.1c-0.2,0-0.1,0-0.1-0.1c-0.1,0-0.8,0-1-0.1l-0.2,0
			c-0.1,0.1-0.6,0.1-0.7,0.2L44,37.2l-0.3,0.1c-0.1,0-0.9,0.4-0.9,0.5c-0.1,0.1-0.5,0.4-0.7,0.5c-0.1,0.1-0.1,0.2-0.3,0.3
			c-0.1,0.1-0.2,0.1-0.4,0.2l-0.2,0.1c-0.2,0.1-0.8,0.2-0.9,0.1c-0.3,0.1-0.9,0.1-1.2,0l-0.2,0l-0.6-0.2c-0.3,0-0.6-0.1-0.8-0.1
			c-1.2-0.2-3.1-0.5-4.1,0.3c-0.3,0.2-0.8,0.5-1,0.9c0,0.1,0,0,0,0.1c0,0-0.1,0.1-0.1,0.1c0,0.1-0.1,0.1-0.1,0.2
			c0.2,0.1,0.4,0.1,0.1,0.6c-0.1,0.3-0.3,1.2-0.3,1.6c0,0.3,0.2,0.4,0.2,0.7c0.1,0.4,0.4,0.8,0.6,1.3c0.1,0.2,0.4,0.6,0.6,0.8
			c0.1,0.1,0.2,0.1,0.2,0.2c0,0-0.1,0,0.1,0.2c1,0.8,2.1,1.3,3.3,1.7c0.2,0.1,0.2,0.2,0.4,0.5c0.1,0.2,0.3,0.4,0.3,0.6l0,0.1
			c0.5,0.6,0.6,1,1.4,1.6c0.1,0.1,0.5,0.3,0.7,0.3l0.1,0c-0.2-0.1-0.8-0.4-0.8-0.5c0.7,0.3,0.1,0.3,1.3,0.4c0.6,0,1.1-0.1,1.5-0.3
			c0,0,0,0,0,0c0,0.1-0.1,0.1,0,0.1l0.1,0c0,0,0.4-0.3,0.5-0.4c0.8-0.7,0.8-0.9,1.4-1.5c0.2-0.2,0.3-0.3,0.5-0.5l1.1-1.3
			c0.1-0.1,0.2-0.1,0.3-0.2l-0.5,0.1c-0.1,0.1-0.2,0.1-0.4,0.1c-0.4,0-0.8,0.1-1.2,0c0,0.2-0.1,0.3-0.2,0.4
			c-0.1,0.1-0.1,0.1-0.1,0.2c-0.1,0.1-0.1,0-0.1,0.2c0,0.2-0.2,0.5-0.3,0.6c-0.4,0.5-0.6,0.5-1.1,0.8c-0.7,0.4-1.6,0.2-2.2-0.2
			c-0.3-0.2-0.8-0.7-0.9-1.1c0-0.1,0-0.1-0.1-0.2c-0.4-0.8-0.8-1.5-1.1-2.4c-0.2-0.4-0.3-0.8-0.5-1.3c-0.1-0.3-0.4-0.9-0.6-1.1
			c-0.1,0-0.1,0-0.2,0c-0.1,0-0.1,0-0.2,0.1c0.1,0,0,0,0.1,0c-0.1,0.3,0.1,0.5,0.2,0.8c0.1,0.2,0.2,0.5,0.3,0.7
			c0.9,2,0.6,1.4,1.6,3.1c0.5,0.8,0.8,1.5,1.8,1.7c0.7,0.2,1.1,0.1,1.8-0.1c1.4-0.5,1.6-1.7,2.1-1.8c0.5-0.1,0.2,0.4,0.2,0.4
			c-0.3,0.6-0.1,0.3-0.6,0.8c-0.3,0.3-0.6,0.6-1,0.9c-0.2,0.2-0.3,0.3-0.5,0.5c-0.2,0.1-0.4,0.2-0.6,0.3c-0.4,0.3-0.8,0.4-1.5,0.2
			c-0.9-0.3-1.7-1-2.1-1.6c-0.3-0.5-0.9-2.1-1.5-2.2c0.1,0.3,0.3,0.5,0.3,0.7c-0.3-0.1-0.2-0.1-0.4-0.3c-0.4-0.3-0.9-0.4-1.3-0.7
			c-0.6-0.4-0.7-0.4-1.2-0.9c-0.1-0.1-0.2-0.2-0.4-0.3l-0.4-0.6c-0.1-0.2,0,0-0.1-0.2c0,0,0,0-0.1-0.1L33,43.5
			c0-0.1-0.1-0.2-0.1-0.2c-0.1-0.2-0.1-0.3-0.2-0.5c-0.2-0.5-0.1-0.6-0.1-0.9c0-0.2,0-0.1,0-0.3l0.3-1.1c0-0.1,0.2-0.3,0.2-0.5
			c0-0.1,0.1-0.2,0.1-0.3c0.1-0.2,0.1,0,0.1-0.2c0.1-0.2,0,0,0.1-0.2c0.1-0.1,0.1-0.1,0.1-0.2c0.1-0.1,0.3-0.1,0.5-0.2
			c1.1-0.4,1.2-0.3,2.4-0.2c0.6,0.1,1.7-0.1,2,0.1c0.5,0.3,1.1,0.3,1.8,0.2c0.4-0.1,0.6-0.2,1-0.3c0,0.1,0,0.1,0.1,0.1
			c0.1,0,0.1-0.1,0.2-0.1c0.1,0,0.2,0,0.3-0.1c0.6-0.3,0.9-0.6,1.3-0.9c0.3-0.2,0.7-0.3,1.1-0.5c0.5-0.2,0.7-0.2,1.3-0.2
			c0.8,0.1,1.7,0.3,2.2,0.9c0.3,0.4,0.9,1.7,0.7,2.3c-0.2,0-0.1,0-0.2-0.1c0,0.2,0,1.3-0.2,1.4c-0.1,0.1,0,0.1,0,0L48,42.1
			c-0.1,0.2-0.1,0.3-0.2,0.5c-0.2,0.3-0.3,0.5-0.6,0.8c-0.2,0.2-0.5,0.4-0.9,0.5c-0.5,0.1-0.7-0.1-1.1-0.2c0.1,0.2,0,0.2,0.2,0.3
			c0.1,0.1,0.2,0.1,0.2,0.3c-0.9,0.3-2.3-0.3-2.9-0.7c-0.4-0.2-0.7-0.6-0.9-1c-0.1-0.2-0.3-0.4-0.4-0.6c-0.2-0.4-0.1-0.3-0.5-0.4
			c0,0.2,0.1,0.3,0.1,0.5c0.2,0,0.2,0.2,0.3,0.4c0.4,0.9,1.2,1.7,2,2.1c0.4,0.2,0.3,0.1,0.4,0.3c0-0.1-0.1-0.1,0.1-0.1
			c0,0,0.1,0,0.2,0c0.5,0.2,1,0.1,1.5,0.1l0.3,0c0,0,1-0.4,1.1-0.4c0.1,0,0.5-0.3,0.5-0.3c-0.1,0.2,0,0.1-0.2,0.2
			c-0.2,0.1-0.2,0.5-0.2,0.7c0.3-0.1,0.4-0.3,0.6-0.3c0.1-0.1,0.2-0.2,0.3-0.2c0.1-0.2,0.2-0.1,0.3-0.2c0.1-0.1,0.2-0.1,0.3-0.2
			c0.2-0.1,0.4-0.3,0.6-0.4c0.5-0.4,0.9-0.8,1.4-1.2c1-1,2.3-2.8,2.2-4.3c0-0.4-0.2-0.8-0.3-1c-0.1-0.1-0.1-0.2-0.2-0.3
			c0-0.1-0.1-0.1-0.1-0.1c-0.1-0.1-0.1,0-0.1-0.1c-0.3-0.2-0.4-0.3-0.9-0.3c-0.3-0.1-0.8,0-1.1,0.1c-0.2,0.1-0.3,0.1-0.4,0.2
			C49.2,36.6,48.6,36.9,48.3,37z"/>
		<path class="st9" d="M48.8,25l-0.7,0.2c-0.1,0.1-0.2,0.1-0.3,0.1c-0.1,0-0.1,0.1-0.3,0.1c-0.1,0.1,0,0.1-0.2,0.1l-2.2,0.5
			c-0.3,0.1-0.3,0-0.6,0.1l-6.9,2.3c-0.3,0.1-0.5,0.2-0.8,0.3c-1,0.3-1.6,0.6-2.6,0.5c0.1,0.2,0.3,0.2,0.7,0.4
			c1.4,0.7,2.9,0.8,4.5,0.8c1.4,0,1.2-0.2,1.9-0.2l0.9-0.3c0.7-0.2,1.9-0.8,2.6-1.2c0.5-0.3,1.1-0.6,1.6-0.9
			c0.3-0.2,1.3-0.8,1.7-0.9c0.2-0.2-0.2,0,0,0c0.1,0,0,0,0.1,0c0.1-0.2,0.3-0.2,0.5-0.3c0.2-0.1,0.4-0.2,0.6-0.2
			c1.3-0.6,2.5-0.8,3.9-1.1c0.5,0.1,1.3-0.2,1.4,0.3l0,0c0,0,0,0,0,0c0,0,0,0,0,0c0-0.4,0-0.7-0.4-0.8c-0.1,0-0.1,0.1-0.2,0
			c-0.2,0-0.1,0-0.2-0.1l0,0l-0.7,0c-0.1,0-0.3,0-0.3-0.1c-0.4,0-0.7,0-1.1,0c-0.3,0-0.6,0.1-1,0.1C50.2,24.9,49.4,25,48.8,25z"/>
		<path class="st10" d="M21.4,55.3c-0.1,0-0.1-0.1-0.3,0.1c-0.1,0.1-0.1,0.1-0.1,0.1c-0.2,0.1-0.1-0.1-0.3,0c-0.1,0-0.1,0-0.2,0
			c-0.2,0-0.5-0.2-0.5-0.6c-0.1-0.7,0.2-1.5,0.5-2.1c0.1-0.2,0.4-1,0.6-1.1c0,0.8,0,1.4,0,2.3C21.2,54.4,21.3,54.9,21.4,55.3
			L21.4,55.3z M19.2,56.2c0,0.2,0,0.2,0,0.4c0.1,0.2,0.1,0.8,0.6,1.4c0.3,0.4,0.6,0.7,1.1,0.9c1.1,0.4,2.5,0.3,3.7,0.3c0,0,0,0,0,0
			c0,0,0,0,0,0c0,0,0,0,0,0c-0.4-0.1-0.9-0.1-1.4-0.6c0.1,0,0.1,0,0.2,0.1c0.3,0.1,1,0.3,1.3,0.2c0.3,0,0.2,0,0.5,0
			c0.2,0,0.9,0,1.2,0l0.9,0c0.3,0,0,0,0.5-0.1c0.2,0,0.4-0.1,0.8-0.1c0.2,0,0.1,0,0.4-0.1c0.6-0.3,0.5-0.1,0.9-0.3
			c0.2-0.1,0.2-0.2,0.4-0.2c0.2-0.1,0.2-0.1,0.4-0.2c0,0,0.1-0.1,0.2-0.1c0.2-0.2,0-0.3,0.5-0.1l0.2-0.2c0.3-0.6,0.3-1.3,0-2
			c-0.1-0.2-0.2-0.3-0.3-0.5c0.1-0.3,1.7-2,0.5-3.6c-0.1-0.2-0.3-0.2-0.4-0.4c-0.1,0-0.2,0.1-0.3,0.1c-0.1,0.1-0.1,0-0.2,0.2
			c0,0.3,0,0.7,0.1,1.1c0,0.2,0.2,0.4-0.1,0.9c-0.3,0.5-0.6,0.9-1,1.2c-0.4,0.4-0.7,0.7-1.2,1.1c-0.2,0.2-0.3,0.4-0.4,0.7
			c-0.1,0.3,0,0.2-0.3,0.3c-0.2,0.1-0.3,0.3-0.1,0.3c0,0,0,0,0.1,0c0.1,0,0.2,0,0.2,0c0,0.1-0.1,0.2-0.1,0.3c0.1,0.1,0.1,0,0.2-0.1
			c0.3-0.4,0.4-0.3,0.6-0.6c0.2-0.3,1-0.8,1.3-1c0.6-0.3,0.5,0.2,0.6,0.8c0,0.3,0,0.4-0.2,0.6c-0.3,0.4-0.4,0.6-0.8,0.7
			c-0.2,0.1-0.3,0.2-0.6,0.2c-0.1,0-0.2,0.1-0.3,0.1c-0.1,0.1-0.7,0.1-0.9,0.2c-0.3,0.1-0.4,0-0.7,0c-0.2,0-0.4,0.1-0.7,0.1
			c-0.1,0-0.3,0-0.4,0c-0.2,0.1,0,0.1-0.3,0.1c-0.2,0-0.5-0.1-0.7-0.1c-0.2,0-0.5,0-0.7,0c-0.1,0-0.2,0-0.3-0.1
			c-0.2,0-0.4-0.2-0.8-0.4c-0.4-0.3-0.2-0.1-0.4-0.4c-0.2-0.4-0.5-0.3-0.9-1.5c-0.1-0.2-0.2-0.4-0.2-0.6c-0.1-0.3-0.4-1.7-0.3-2
			c0.1-0.4,0-1.1,0-1.5c0-0.3,0.1-1.3-0.2-1.3c0,0.6-0.1,0.6-0.4,0.9c-0.3,0.4-0.6,0.8-0.9,1.2c-0.9,1.5-0.7,2.2-0.9,2.5
			c0,0.1,0,0.2,0,0.3V56.2z"/>
		<path class="st9" d="M59.6,51.3l0.8,0.1c0.6,0,1.1,0.4,1.4,0.8c0.3,0.3,0.5,1,0.7,1.5c0.2,0.2,0.3,0.7,0.3,1.1
			c0,0.5-0.1,0.7-0.2,1.1c0.4-0.2,0.9-0.6,1.2-0.9c0.2-0.2,0.8-0.9,0.9-1.2c0.8-1.4,0.7-3.2-0.3-4.4L64,49.1c-0.5-0.5-1.1-1-1.7-1.2
			L62,47.7c-0.7-0.3-1.5-0.5-2.3-0.5c0,0.3,0.1,0.7,0.1,1c0,0.3,0,0.8,0,1.1C59.8,50.1,59.7,50.6,59.6,51.3z"/>
		<path class="st5" d="M59.2,52.6c-0.1,0.4-0.8,1.7-1,1.9c-0.2,0.2-1.5,1-1.8,1.1l0,0.1c-0.4,0.4-0.9,0.6-1.1,0.8
			c-0.1,0.1-0.2,0.1-0.3,0.2c-0.1,0.1-0.2,0.1-0.3,0.2c-0.2,0.1-0.4,0.2-0.6,0.3l-1.3,0.7c-0.4,0.2-1.1,0.4-1.4,0.6l0,0.4l0,0.3
			c0.4,0,1.3,0,1.8,0c0.6,0,1.1,0.1,1.7,0c-0.1-0.1-0.1-0.1-0.1-0.3c0.2,0,0.2,0.1,0.3,0.1c0.1-0.2,0.4-0.5,0.6-0.6l1.5-0.8
			c0.3-0.1,0.2-0.1,0.4-0.2c0.4-0.2,0.1-0.1,0.3-0.2c0.1-0.1,0.3-0.1,0.4-0.2c0.1,0,0.1,0,0.2-0.1l0.8-0.6c0.1-0.1,0.2-0.2,0.4-0.2
			c0.1-0.1,0.2-0.2,0.3-0.3c0.2-0.1,0.1,0.1,0.4-0.2c0.2-0.2,0.2,0,0.3-0.3c0.4,0,0.3-0.2,0.6-0.3c0.1,0,0.1,0,0.1-0.1
			c0.2-0.2,0.1,0,0.3-0.3c0.4,0,0.2,0,0.3-0.1c0.2,0,0.4-0.1,0.7-0.1l-0.1-0.6c-0.1-0.5-0.4-1.2-0.7-1.5c-0.3-0.3-0.8-0.7-1.4-0.8
			l-0.5,0C60.2,51.9,59.6,52.6,59.2,52.6z"/>
		<path class="st10" d="M23.6,25.7c0.1-1,0.6-3.1,1.9-3.4c0.5-0.1,1,0.1,1.3,0.3c0.4,0.3,0.6,0.4,0.9,0.8c0.1,0.2,0.2,0.3,0.4,0.5
			c0.5,0.7,0.3,0.5,0.6,1.1c0.1,0.2,0.2,0.4,0.3,0.6c0.2,0.4,0.3,0.9,0.4,1.3l1.1,3.2c0.1,0.2,0.2,0.4,0.3,0.6
			c0.1,0.2,0.2,0.4,0.3,0.6c0,0,0.1,0.1,0.1,0.1l0.2,0.5c0.2,1.3-1.8,0.1-2.3,0.1c-0.5,0-0.8,0.3-0.7,0.9c0.1,0.6,0.5,1.1,0.6,1.2
			l0.5,0.6c0.4,0.8-0.5,1.2-1.9,0.3c-1.9-1.2-3.1-3-3.7-5.3c-0.1-0.6-0.2-1.3-0.3-2C23.4,27.5,23.5,25.9,23.6,25.7L23.6,25.7z
			 M25.6,21.8c-2.6,0.3-2.6,4.7-2.5,6.7c0,0.4,0.1,0.9,0.2,1.3c0.1,0.2,0.1,0.4,0.2,0.6c0.3,1,0.1,0.6,0.6,1.7
			c0.6,1.3,1.6,2.6,2.8,3.4c0.4,0.2,0.6,0.3,1,0.5c0.9,0.4,2.1,0.1,2.1-0.6c0-1.2-1-2.1-0.6-2.3c0.5-0.3,1.2,1,2.3,0
			c0.3-0.2,0.4-0.5,0.5-1c0.1-0.5-0.1-0.7-0.3-1.2c-0.2-0.3-0.3-0.7-0.4-1.1c-0.1-0.4-0.2-0.8-0.4-1.2l-0.5-1.1
			c-0.2-0.3-0.3-0.8-0.5-1.1c-0.1-0.3-0.3-0.8-0.4-1.1c-0.3-0.7-0.5-0.8-0.9-1.4c-0.1-0.2-0.2-0.3-0.3-0.5l-0.7-0.8
			C27.4,22.3,26.5,21.7,25.6,21.8z"/>
		<path class="st11" d="M36.8,42.2c0.2,0.2,0.4,0.8,0.6,1.1c0.2,0.4,0.3,0.8,0.5,1.3c0.3,0.9,0.7,1.6,1.1,2.4
			c0.1,0.1,0.1,0.1,0.3,0.1c0.1-0.3,0.3-0.5,0.6-0.7c0.1-0.1,0.9-0.3,1-0.1l0.1,0c0.1,0.1,0.2,0.2,0.4,0.1c1.1-0.5,1.6,0.6,1.8,0.9
			c0.2-0.1,0.2-0.3,0.5-0.4c0-0.1,0-0.1,0.1-0.2c0.1-0.1,0.1-0.1,0.1-0.2c0.1-0.1,0.2-0.2,0.2-0.4c-0.3-0.2-0.3-0.9-0.4-1.3
			c-0.1-0.2,0.1-0.1-0.4-0.3c-0.8-0.4-1.6-1.3-2-2.1C41.2,42.3,41.2,42,41,42c-0.5,0.4-1.1,0.6-1.8,0.4c-0.3-0.1-1.2-0.5-1.4-0.8
			c-0.2,0-0.4,0.2-0.6,0.3c-0.1,0-0.2,0.1-0.2,0.1C36.8,42.1,36.8,42.1,36.8,42.2z"/>
		<path class="st12" d="M29,37.2C29,37.1,29,37.2,29,37.2c0.1-0.1,0.1-0.1,0.2-0.1c0.1,0,0.1,0,0.2,0L30,37l0.4-0.3
			c-0.7,0.4-1.7,0.5-2.5,0.3c-0.9-0.2-1.4-0.6-2-1c-1-0.8-1.8-2.2-2.5-3.5c-0.7-1.4-1.2-2.9-1.2-4.8c0-2.4,0.3-5.5,2.5-6.6
			c0.6-0.3,1.6-0.6,2.5-0.4c1,0.2,1.7,0.8,2.3,1.5c0.2,0.2,0.4,0.6,0.6,0.9c0.2,0.2,0,0.2,0.3,0.5c0.2,0.2,0.4,0.7,0.6,1l0.5,0.9
			c0.2,0.4,0.7,1.6,0.9,2.1c0.1,0.4,0.5,1.2,0.7,1.6c0,0.1,0,0.2,0.1,0.3c0.1,0.1,0.1,0,0.2,0.2c0.2,0.3,0.4,0.6,0.6,0.9
			c0.2,0.3,0.3,0.6,0.6,0.9l-0.4-2l0.2,0.1c0,0,0,0,0,0c0,0,0,0,0,0c0.6,0.4,1.3,0.6,2,0.8c0.1,0,0.3,0.1,0.4,0.1
			c0.4,0.1,0.4,0,0.4,0.2c0.1-0.1,0.1-0.1,0.3-0.1c0.1,0,0.4,0,0.4,0.1c0.2,0,0.8,0,0.9,0.1c0.2,0.2-0.2,0.5-0.3,0.6
			c-0.3,0.4-0.4,0.9-0.5,1.5c0.2,0,0.5-0.2,0.6-0.3l-0.1,0c0.3-0.6,0.3-0.8,0.8-1.1l0.2-0.1c0.6-0.3,1.3,0.2,1.4,0.5
			c0.1,0.1,0.1,0,0.2,0.1l0.1,0.1L40.8,32c0.2,0,0.3,0,0.3,0.2c0.1,0.1,0.1,0.3,0.1,0.4c0.1,0.1,0.2,0.5,0.3,0.6
			c0.3,1.3,0.3,2.7,0.2,4c0,0.3-0.1,0.5-0.1,0.7c0,0.3-0.1,0.5-0.1,0.7c0.2,0,0.3-0.1,0.4-0.2c0.1-0.1,0.2-0.1,0.3-0.3
			c-0.1-0.1,0-0.2,0-0.5l0.1-1.7c0-0.4,0-0.8,0-1.2c0-0.2-0.1-0.3-0.1-0.5c0-1-0.2-1.5-0.6-2.3c-0.2-0.4-0.4-0.7-0.7-1
			c-0.1-0.1-0.2-0.1-0.2-0.4c0.1,0,0,0,0.1,0l0.3-0.1c0.2-0.1,0.9-0.2,1.3-0.3c0.6-0.1,1-0.3,1.5-0.5c0.5-0.1,1.1-0.2,1.6-0.4
			c0.2-0.1,0.5-0.2,0.7-0.3c0.1-0.1,0.2-0.1,0.3-0.2c0.1-0.1,0.3,0,0.4-0.1l-0.4-0.1c-0.3,0-0.4,0.2-0.6,0.2
			c-0.7,0.3-1.5,0.5-2.2,0.7c-0.4,0.1-0.6,0.3-0.9,0.3c-0.2,0-0.2,0.1-0.3,0.1c-0.5,0-0.6,0.2-1,0.2v0c-0.7,0.1-0.5,0.2-1.9,0.2
			c-1.6,0-3.1-0.2-4.5-0.8c-0.3-0.2-0.6-0.2-0.7-0.4l-0.2,0c0-0.1-0.2-0.5-0.2-0.6c-0.2-0.3-0.3-0.7-0.3-0.8l-0.1-0.1
			c-0.1-0.1-0.1-0.3-0.2-0.4c-0.1-0.1-0.1-0.3-0.2-0.4c-0.2-0.3-0.2-0.3-0.2-0.9c-0.1-0.1-0.4-0.7-0.5-0.8c-0.2-0.3-0.3-0.5-0.5-0.8
			l-1-1.6c-0.1-0.1-0.3-0.5-0.5-0.6c-0.1-0.1-0.2-0.2-0.3-0.3c-1.3-1.5-3.3-1.9-5.2-1.1c-0.5,0.2-1,0.7-1.2,1c-1.2,1.5-1.5,3-1.6,5
			c-0.1,3.3,1.3,7.6,3.8,9.5c0.4,0.3,0.9,0.6,1.4,0.8C27.9,37.1,28.1,37.2,29,37.2z"/>
		<path class="st11" d="M45.2,39.2c0.6-0.2,0.5,1.1,0.5,1.6c0,0.4,0,0.7,0,1.1c0,0.3,0.1,0.9-0.4,0.5c-0.4-0.3-0.5-0.9-0.6-1.5
			C44.7,40.4,44.5,39.5,45.2,39.2L45.2,39.2z M43.9,40.2c0.1,0.7-0.2,0.4,0.1,1.5c0.2,0.8,0.3,0.7,0.5,1.2c0.1,0.1,0.2,0.3,0.3,0.4
			c0.1,0.1,0.3,0.2,0.4,0.3c0.4,0.1,0.6,0.3,1.1,0.2c0.4-0.1,0.6-0.3,0.9-0.5c0.2-0.2,0.4-0.4,0.6-0.8c0.1-0.2,0.1-0.3,0.2-0.5
			l0.2-0.5c0.1-0.9,0.3-1.4,0-2.3c-0.2-0.7-0.7-1.1-1.3-1.4c-1.1-0.4-2.2,0.2-2.6,1.2C44,39.6,43.9,40,43.9,40.2z"/>
		<path class="st10" d="M30,37c0.7,0,1.7-0.9,1.2-0.8c-0.2,0.1,0.1,0-0.5,0.1c-0.5,0.1-1.5,0.7-3.2,0.2c-0.2,0-0.4-0.1-0.6-0.2
			c-0.2-0.1-0.3-0.2-0.5-0.3c-1.1-0.6-2.7-2.9-3.3-4.3c-0.6-1.4-0.8-1.9-0.9-3.6c-0.1-1.7,0-3.9,0.7-5.3c0.5-1,1.5-1.8,2.6-1.9
			c0.5,0,1,0,1.4,0.1c0.7,0.2,1.4,0.9,1.7,1.3c0.5,0.5,1.1,1.5,1.5,2.3c0.1,0.2,0.2,0.3,0.2,0.5c0.2,0.3,0.4,0.6,0.5,1
			c0.2,0.4,0.3,0.6,0.5,1c0.2,0.7,0.6,1.5,0.8,2.2c0.1,0.4,0.2,0.8,0.3,1.2c0.1,0.3,0.2,0.2,0.3,0.5c0.2,0.4,0.7,0.6,0.8,0.7
			c0.2,0.1,0.2,0.2,0.4,0.4l0.1-0.2c0,0,0.1,0,0.2,0c0.2,0,0-0.1,0.4-0.1c0.4,0,0.2-0.1,0.4-0.1c0.1,0,0.3,0.1,0.4-0.5
			c0-0.2,0-0.4,0.1-0.6c0.3-0.1,0.8,0.1,1.1,0.1c0,0.1,0,0,0,0.1c0.1-0.1,0.1-0.2,0.2-0.3c0-0.2,0.1-0.1-0.4-0.2
			c-0.1,0-0.3-0.1-0.4-0.1c-0.7-0.2-1.4-0.4-2-0.8c0,0,0,0,0,0c0,0,0,0,0,0l-0.2-0.1l0.4,2c-0.2-0.2-0.3-0.6-0.6-0.9
			c-0.2-0.3-0.5-0.6-0.6-0.9c-0.1-0.2-0.1-0.1-0.2-0.2C33,29.3,33,29.2,33,29.1c-0.2-0.4-0.6-1.1-0.7-1.6c-0.1-0.5-0.7-1.7-0.9-2.1
			l-0.5-0.9c-0.2-0.3-0.4-0.7-0.6-1c-0.2-0.3-0.1-0.2-0.3-0.5c-0.2-0.3-0.4-0.7-0.6-0.9c-0.6-0.7-1.3-1.3-2.3-1.5
			c-0.9-0.2-1.9,0.1-2.5,0.4c-2.2,1.1-2.5,4.2-2.5,6.6c0,1.9,0.5,3.4,1.2,4.8c0.7,1.3,1.5,2.7,2.5,3.5c0.6,0.4,1.1,0.8,2,1
			c0.8,0.2,1.8,0.1,2.5-0.3L30,37z"/>
		<path class="st7" d="M48.8,22.2l-0.1,0.2c0.1,0,0,0,0.1,0l0,1.4c0,0.1,0,0.2-0.1,0.3c0,0.2,0,0.2,0,0.3c0,0.1,0,0.2,0,0.3
			c0,0.2,0,0.2,0.1,0.2c0.6,0,1.4-0.1,2-0.2c0.3,0,0.6-0.1,1-0.1c0.4,0,0.7,0,1.1,0c0.1-1.2-0.4-5-2.2-4.6
			C49.9,20.2,49,21.5,48.8,22.2z"/>
		<path class="st7" d="M48.9,27.5l-0.2,0c0,0.1,0.3,0.9,0.5,1.3c0.1,0.5,0.2,1,0.3,1.5c0.2,1.2,0,2.2-0.1,3.4
			c0.4-0.1,1.2-0.9,1.4-1.1c0.8-0.9,1.3-2.2,1.6-3.4c0.1-0.3,0.4-1.9,0.3-2.2c-0.6,0.1-1.1,0.3-1.8,0.4
			C50.2,27.6,49.7,27.5,48.9,27.5z"/>
		<path class="st10" d="M46.7,28.8c-0.1,0.1-0.3,0.1-0.4,0.1C46.2,28.9,46.1,29,46,29c-0.2,0.1-0.4,0.2-0.7,0.3
			c-0.5,0.2-1,0.3-1.6,0.4c-0.6,0.1-0.9,0.4-1.5,0.5c-0.3,0.1-1,0.2-1.3,0.3l-0.3,0.1c-0.1,0,0,0-0.1,0c0,0.2,0.1,0.3,0.2,0.4
			c0.3,0.3,0.5,0.6,0.7,1c0.4,0.9,0.5,1.3,0.6,2.3c0,0.2,0.1,0.3,0.1,0.5c0,0.4,0,0.8,0,1.2l-0.1,1.7c0,0.2-0.1,0.4,0,0.5
			c0.2-0.1,0.6-0.3,0.7-0.5c-0.1,0-0.1,0-0.1-0.2l0.1-1.5c0.1-0.6,0.1-1.2,0-1.8c-0.1-1.2-0.2-0.9-0.3-1.5c0-0.2-0.1-0.2-0.1-0.3
			c-0.1-0.3-0.1-0.6-0.2-0.7c-0.1-0.1-0.1-0.2-0.1-0.3l0.1,0c0.4-0.1,0.2-0.4,0.6-0.3c0.2-0.2,0.1-0.2,0.4-0.2
			c0.5-0.1,0.7-0.2,1.2-0.2c0.2,0,0.3,0.1,0.3,0.2l0.1,0.1l0,0.8c0,0.2,0,0.5-0.1,0.7c-0.1,0.7-0.2,3.1-0.2,3.9l0,0.6
			c0,0.1,0,0,0,0.1c0.1,0,0.6-0.1,0.7-0.2l-0.2,0c-0.1-0.9-0.1-0.4-0.1-1.5c0-1.2,0-1.8,0.3-2.9c0.1-0.2,0.1-0.4,0.2-0.6
			c0.1-0.4,0.2-1,0.4-1.3c0.1-0.2,0.2-0.4,0.3-0.5c0.1-0.1,0.2-0.4,0.3-0.5l0.4-0.2c0.3-0.2,1.1-0.3,1.4,0c0.8,0.7,0.4,0.9,0.8,0.8
			c0.1-0.4-0.1-0.9-0.2-1.3c-0.1,0-0.3-0.3-0.4-0.4c-0.2-0.1-0.4-0.2-0.7-0.1C47.3,28.3,47.1,28.7,46.7,28.8z"/>
		<path class="st10" d="M21.3,42.3c0,0.2,0.4,0.4,0.5,0.4c0.2,0,0.1,0,0.2,0c0.6,0.5,0.3,0,0.7,0.5c0.3,0.3,0.2,0.2,0.3,0.3
			c0.1,0.1,0.1,0.2,0.2,0.4l0.4,0.8c0.1,0.1,0.1,0.3,0.2,0.5c0.1,0.3,0.2,0.6,0.2,1c0,0.2,0.1,0.3,0.1,0.5c0,0.3,0,0.2,0.1,0.5
			c0.2,0.4,0.2,0.5,0.6,0.7c0.2,0.1,0.3,0.2,0.4,0.2l-0.2,0.1c-0.1,0-0.1,0-0.2,0.1c-0.2,0.1-0.2,0.1-0.3,0.3c0.5,0,2.3-0.2,2.9-0.3
			c0.2,0,0.3-0.1,0.4-0.1c0.1,0,0.2-0.1,0.4-0.1c-0.2-0.2-0.7,0-1,0c-0.4,0-0.8,0-1.1,0l0.2-0.1c0.9-0.4,1.6-0.8,2.6-0.8
			c0.7,0,1,0.2,1.5,0.6c0.1,0.1,0.2,0.1,0.2,0.5c-0.1,0.6-0.1,0.5-0.3,0.8c0,0,0,0.1-0.1,0.1c-0.1,0.1-0.2,0.1-0.3,0.2
			c-0.1,0.1-0.2,0.1-0.3,0.2c-0.1,0.1-0.2,0.1-0.3,0.1c-0.2,0.1-0.4,0.3-0.5,0.4c-0.6,0.4-0.5,0.3-1,0.8c-0.5,0.6-0.4,1-0.6,1.2
			c-0.1,0.1-0.1,0-0.2,0.2c-0.2,0.4-0.1,0.3,0.8,0.1l-0.1-0.2c0.4-0.2,0.1-0.4,0.4-0.6c0.2-0.2,0.3-0.3,0.5-0.5
			c0.6-0.5,1.6-0.9,1.9-1.2c0.6-0.7,0.6-0.4,0.8-1.3c0.1-0.4,0-0.2,0.2-0.8c0,0.1,0,0.1,0,0.2c0,0,0,0,0,0l0.1-0.1l0-0.1
			c-0.2,0-0.2-0.2-0.3-0.3c0,0-0.1-0.1-0.2-0.1c-0.2-0.1-0.1,0-0.2-0.1c-0.3-0.1-0.5-0.2-0.9-0.2c-0.2,0-0.2,0-0.3-0.1
			c-0.4,0-0.7,0-1.1,0.1c-0.3,0-0.7,0.1-1,0.1c-0.4,0.1-1.5,0.4-1.7,0.6l-0.5,0.3c0,0.1,0,0.1,0.1,0.1c-0.1,0-0.4-0.2-0.5-0.2
			c-0.3-0.2-0.4-0.3-0.5-0.7c0-0.1,0-0.2,0-0.3c-0.1-0.4-0.1,0,0-0.6l-0.2,0c0-0.1,0.1-0.2,0.1-0.3c0-0.2,0-0.2,0-0.3
			c0-0.3,0-0.2-0.1-0.6c0-0.1-0.1-0.1-0.2-0.2c-0.1-0.3-0.1-0.6-0.3-0.8c-0.3-0.3-0.1-0.5-0.7-0.9l-0.9-0.6c0.1,0,0.1,0,0.1-0.1
			l-0.5,0C21.9,42.1,21.5,42.2,21.3,42.3z"/>
		<path class="st10" d="M29.4,37.1c-0.1,0-0.1,0-0.2,0c0,0-0.1,0-0.1,0c-0.1,0,0,0-0.1,0.1l0.2,0c-0.1,0.1-1.1,0.7-1.3,1
			c0,0.1-0.2,0.3-0.3,0.4c-0.2,0.2-0.2,0.3-0.2,0.5l-0.2,1c0,0.2,0,0.1,0.1,0.3c0.3,0.2,0,0.1,0,0.3c0,0.1,0,0.4,0,0.6
			c-0.1,0.4-0.1,0.2,0,0.5c0,0.1,0,0.4,0,0.5c0.1,0.1,0.1,0,0.2,0.2c0.1,0.2,0,0.2,0.1,0.4c0.1,0.1,0.4,0.5,0.6,0.6
			c0.2,0.1,0.1,0.1,0.3,0.3l0.6,0.5c0.3,0.2,0.2-0.1,0.3,0.3l0.1,0c0,0,0.4,0.3,0.8,0.5c0.5,0.3,0.4,0.2,0.7,0.3
			c0.1,0.1,0.2,0.1,0.2,0.2c0.2,0.1,0,0,0.1,0c0,0,0,0,0,0c0.1,0,0,0.1,0.3,0.2c0.2,0.1,0.3,0.2,0.5,0.2c0.4,0.2,1.6,0.5,2.2,0.7
			l1.1,0.4c0.2,0.1,0.4,0.1,0.5,0.2c0.4,0.2,0.3,0.2,0.8,0.3c0.1,0,0.2,0.1,0.3,0.1c0.2,0.1,0.1,0,0.2,0.2l0.1,0.1
			c0.1,0.1,0-0.1,0,0l0.6,0.1l0-0.1c-0.1-0.1-0.3-0.5-0.4-0.7c-0.2-0.4-0.2-0.3-0.7-0.4c-0.5-0.1-1.5-0.6-1.6-0.6
			c-0.1,0-0.2,0-0.3,0c-0.1,0-0.2,0.1-0.2,0.1c-0.2-0.1-0.5-0.2-0.7-0.2c-0.1,0-0.2-0.1-0.3-0.1c-0.1-0.1-0.2-0.1-0.3-0.2
			c-0.3,0-0.1,0-0.3-0.1c-0.1-0.1-0.2-0.1-0.3-0.1c-0.2-0.1-0.4-0.3-0.6-0.3c-0.3-0.1-0.3-0.2-0.6-0.3c-0.2-0.1-0.4-0.2-0.6-0.3
			c-0.2-0.1-0.4-0.2-0.6-0.3c-0.1-0.1-0.2-0.1-0.3-0.2c-0.1,0-0.1-0.1-0.2-0.1c-0.1,0,0,0-0.1,0c-0.2,0-0.2-0.2-0.4-0.3
			c-0.2-0.1-0.1-0.2-0.3-0.3c-0.4-0.4-0.1-0.1-0.4-0.5c-0.1-0.1-0.1-0.1-0.2-0.2c-0.2-0.2-0.1-0.4-0.3-0.7c-0.2-0.4-0.2-1.2-0.1-1.7
			c0-0.6,0.2-0.9,0.2-1.2c0.1-0.5,0.1-0.1,0.1-0.2c0,0,0,0,0,0c0-0.3,0-0.2,0.2-0.3c0-0.3,0.1-0.2,0.3-0.4c0.2-0.2,0.2-0.4,0.4-0.5
			c0.3-0.1,0.2-0.3,0.6-0.6C29.8,37.1,29.5,37.2,29.4,37.1z"/>
		<path class="st7" d="M50.4,37.6c0.5-0.1,0.9,0.4,0.7,0.9c-0.3,0.7-1.2,0.9-1.6,0.4c-0.2-0.2-0.2-0.2,0-0.6
			c0.1-0.2,0.3-0.3,0.4-0.4C49.9,37.7,50.2,37.7,50.4,37.6L50.4,37.6z M47.9,37.6c0,0.1,0.1,0.2,0.2,0.3c0.8,1,0.7,1.3,1.1,2.4
			c0.2-0.1,0.1,0,0.6-0.2c0.2-0.1,0.4-0.2,0.6-0.2c-0.2,0.4-0.6,0.7-1,0.9c-0.3,0.2,0,0.4-0.5,1.5c-0.2,0.5-0.5,0.8-0.5,0.9
			c0.2-0.1,0-0.1,0.1-0.1c0.1,0,0,0.2,0.5-0.1c0.3-0.1,0.4-0.2,0.6-0.4c0.6-0.5,0.8-0.5,1.1-1.2c0.1-0.2,0.1-0.1,0.2-0.3
			c0.1-0.1,1-1.6,1-1.8c0.2-0.6,0.3-0.7,0.1-1.6c0-0.2-0.3-0.5-0.4-0.6c-0.9-0.7-2.1-0.2-3,0.1C48.4,37.5,48.1,37.5,47.9,37.6z"/>
		<path class="st5" d="M42.8,37.7c0.1,0,0.9-0.4,1-0.5l0.3-0.1l0.6-0.1c0.1-0.1,0,0,0-0.2l0-0.6c0-0.8,0-3.2,0.2-3.9
			c0-0.2,0.1-0.5,0.1-0.7l0-0.8l-0.1-0.1c0-0.1-0.1-0.2-0.3-0.2c-0.5,0-0.7,0-1.2,0.2c-0.3,0.1-0.3,0.1-0.4,0.2
			c-0.4-0.2-0.3,0.2-0.6,0.3l-0.1,0c0,0.2,0,0.2,0.1,0.3c0.1,0.1,0.1,0.4,0.2,0.7c0.1,0.2,0.1,0.1,0.1,0.3c0.1,0.7,0.2,0.4,0.3,1.5
			c0,0.6,0,1.2,0,1.8l-0.1,1.5C42.7,37.8,42.6,37.7,42.8,37.7z"/>
		<path class="st5" d="M45.9,22.3c0.1,0.1,0.7,0.9,0.8,1c0,0.1,0,0.1,0.1,0.2c0-0.2,0.5-1.2,0.7-1.4c0.4-0.7,1.1-1.9,1.7-2.4
			c0.4-0.3,0.8-0.6,1.5-0.5c1.2,0.1,2.2,1.6,2.4,2.7c0.1,0.6,0.3,2.7,0.3,2.7c0.1,0.1,0,0,0.1,0l0.4,0.1l0,0
			c0.1-0.3-0.1-1.7-0.1-2.1l-0.2-0.9c-0.4-1.4-1.1-2.9-2.5-3.4c-0.4-0.1-0.5-0.2-0.9-0.1c-1.3,0.2-2.1,1-2.8,1.8
			c-0.3,0.3-0.7,1-0.9,1.4L45.9,22.3z"/>
		<path class="st12" d="M48,26.9c-0.1,0.1-0.2,0.1-0.3,0.2c0.1,0.1,0.2,0.1,0.4,0.2l0,0.2l-0.2,0c0.2,0,0.1,0,0.1,0.1
			c0.2,0,0.2,0.1,0.4,0.2c0.1,0.1,0.2,0.2,0.3,0.3c0,0,0.4,0.7,0.3,0.7c0.1,0.4,0.3,0.9,0.2,1.3c-0.4,0.1,0-0.1-0.8-0.8
			c-0.3-0.3-1.1-0.2-1.4,0l-0.4,0.2c-0.1,0.1-0.2,0.4-0.3,0.5c-0.1,0.1-0.2,0.3-0.3,0.5c-0.2,0.3-0.3,0.9-0.4,1.3
			c-0.1,0.2-0.1,0.4-0.2,0.6c-0.3,1.1-0.3,1.7-0.3,2.9c0,1.1,0,0.7,0.1,1.5l0.2,0l0.2,0l-0.1,0c0-0.3,0-1,0-1.3c0-0.2,0-0.9,0.1-1.1
			l0.1-0.1c-0.1-0.1,0,0-0.1-0.1c-0.1-0.3,0.6-2.9,0.8-3.3c0-0.1,0.1-0.2,0.1-0.3c0-0.2,0.1-0.2,0.2-0.3c0.1-0.1,0.1-0.2,0.2-0.3
			c0.2-0.2,0.3-0.3,0.5-0.4c0,0,0,0,0.1-0.1l0.2-0.1c0.1,0,0.2,0,0.3,0c0.1,0.2,0,0.2,0.2,0.4c0.1,0.1,0.1,0.3,0.1,0.4
			c0,0.1,0.1,0-0.1,0.1c0,0,0,0,0.1,0.1l0.2,0.1c0.1,0,0.2,0.1,0.3,0.1c0.3,0.1,0.4,0.1,0.7,0.1c-0.1,0.2-0.3,0.2-0.5,0.2
			c0,0.1,0.1,0.2,0.1,0.4c0,0.8,0,1.5-0.3,2.3c-0.1,0.3-0.1,0.5-0.2,0.8c-0.1,0.2-0.7,2-0.8,2.2c-0.1,0.1-0.1,0.2-0.2,0.3
			c-0.1,0.1-0.2,0.2-0.3,0.2c0,0.1,0,0.1,0.1,0.1c0.3,0,0.2,0,0.5-0.5c0.2-0.4,0.4-0.9,0.6-1.4c0.1-0.2,0.2-0.6,0.3-0.7
			c0.1,0,0.1,0,0.2,0.1c0,0.1,0,0.2,0,0.3c0,0,0,0,0.1-0.1c0.1-0.2,0.1-0.3,0.2-0.5c0-0.4,0.5-0.6,0.7-0.8c0.2-0.2,1.3-1.4,1.4-1.7
			c0-0.1,0-0.1,0.1-0.2c0.7-1,1.4-3.5,1.5-4.9c0,0-0.1,0-0.1,0c-0.1,0.1-0.1,0-0.1,0.1c0,0.2-0.3,1.9-0.3,2.2
			c-0.3,1.2-0.8,2.5-1.6,3.4c-0.2,0.2-1,1-1.4,1.1c0.1-1.2,0.2-2.1,0.1-3.4c-0.1-0.5-0.2-1-0.3-1.5c-0.1-0.4-0.5-1.3-0.5-1.3l0.2,0
			l-0.1,0c-0.2-0.1,0.2,0-0.1,0c0,0-0.1,0-0.1,0c-0.1-0.3-0.3-0.5-0.4-0.7l-0.1,0C48,26.8,48.1,26.8,48,26.9
			C47.8,26.9,48.2,26.7,48,26.9z"/>
		<path class="st5" d="M53.2,26.9c-0.1,0.1-0.1,0.5-0.2,0.6c-0.1,0.9-0.3,1.1-0.4,1.8c-0.1,0.7-0.5,1.5-0.8,2.1
			c-0.2,0.3-0.3,0.6-0.5,0.9l-0.6,0.9L50.1,34c-0.1,0.1-0.7,0.5-0.9,0.6c0,0.2-0.1,0.3-0.2,0.5c-0.1,0.4-0.5,0.9-0.5,1l-0.4,1l0.2,0
			c0.3-0.1,1-0.4,1.3-0.6c0.1-0.1,0.2-0.1,0.4-0.2c0.3-0.1,0.7-0.2,1.1-0.1c0.5,0.1,0.6,0.1,0.9,0.3c0.1,0,0.1,0.1,0.2,0.1
			c0.4,0.3,0.6,0.4,0.9,0.9c0.3,0.5,0.5,0.3,0.4-0.5c-0.2-1.1-1.6-1.3-2.2-1.6c-0.3-0.1-0.2,0-0.6-0.1c-0.2-0.1-0.4-0.2-0.5-0.2
			c-0.2,0.1-0.2,0.2-0.5,0.1c0-0.2,0-0.2,0.1-0.3c0.1-0.1,0.1,0,0-0.2c0.3,0,0.4-0.1,0.5-0.3c0.1-0.2,0.2-0.2,0.4-0.4
			c0.5-0.6,0.5-0.8,1.3-1.7c0.3-0.3,0.4-0.6,0.5-1c0.3-0.7,0.6-1.5,0.8-2.3l0.4-2.6C53.5,26.7,53.4,26.8,53.2,26.9z"/>
		<path class="st8" d="M28.8,34.3c-0.3-0.1-0.1-0.3-0.6-0.4c0,0,0,0,0,0c0,0.1,0,0,0-0.1c0-0.1,0,0,0-0.1l-0.4,0
			c-0.1-0.2,0-0.1-0.1-0.2c-0.2-0.1-0.1,0-0.3,0c0,0-0.1-0.1-0.1-0.2c-0.1-0.1-0.2-0.1-0.3,0l0-0.2c-0.3,0-0.4-0.4-0.7-0.6
			c-0.1,0-0.1,0-0.2,0.1c-0.1-0.2-0.3-0.1-0.4-0.4c-0.3-0.8-0.4-0.4-0.5-0.9c-0.1-0.3-0.2-0.6-0.3-0.8c-0.3-0.7-0.7-2.1-0.8-2.8
			c-0.1-0.8-0.2-0.9-0.3-1.5c0-0.3-0.1-0.1-0.1-0.4c-0.1,0.2-0.1,1.8-0.1,2.1c0,0.7,0.1,1.4,0.3,2c0.5,2.3,1.7,4.1,3.7,5.3
			c1.4,0.9,2.4,0.5,1.9-0.3L28.8,34.3z"/>
		<path class="st9" d="M30.7,22.7l1,1.6c0.2,0.3,0.3,0.6,0.5,0.8c0.1,0.2,0.4,0.7,0.5,0.8c0-0.4,0-0.9,0.1-1.2l0-0.3
			c0.1-0.3,0.2-0.5,0.2-0.8c0-0.1,0.1-0.4,0.2-0.5l0.3-0.7c0-0.1,0.1-0.1,0.1-0.2c0.1-0.1,0.2-0.3,0.3-0.4c0.2-0.3,0.3-0.5,0.5-0.8
			c0.2-0.3,0.4-0.5,0.6-0.7c0.1-0.1,0.1-0.1,0.2-0.1c0.9-0.7,0.6-0.4,1.3-0.8c0,0,0,0,0,0l0.1-0.1c-0.5,0-1.4,0.4-1.8,0.6
			c-1.3,0.6-2.5,1.3-3.6,2.2L30.7,22.7z"/>
		<path class="st1" d="M38.3,32.9c-0.1,0.4-0.1,1.1-0.1,1.6l0.1,1.3c0,0.1-0.1,0.1,0.1,0.1c0-0.2,0.3-0.4,0.4-0.5
			c0.5-0.3,1.4-0.2,1.7,0.6c0.4,1.1,0.1,1.9-0.2,2.8c0.1,0.1,0.8,0,0.9-0.1l0-0.1c-0.3,0.1,0,0-0.3-0.1c0.2-0.8,0.2-1.8,0.1-2.6
			c0-0.2,0-0.3,0-0.4c0-0.1-0.1-0.2-0.1-0.3c0-0.2,0-0.3,0-0.5c0-0.1-0.1-0.2-0.1-0.4c-0.1-0.6-0.1-0.6-0.3-1.1
			c-0.1-0.1-0.1-0.2-0.2-0.3c-0.1-0.2,0-0.3-0.1-0.4c0-0.1-0.1-0.1-0.1-0.3c0.2-0.1,0.6-0.1,0.8-0.1c0.1,0.2,0.2,0.4,0.3,0.6l0-0.1
			c0-0.1-0.1-0.3-0.1-0.4C41.1,32,41,32,40.8,32c-0.4,0-1,0.2-1.3,0.4c-0.2,0.1-0.4,0.2-0.6,0.3C38.7,32.7,38.5,32.9,38.3,32.9z"/>
		<path class="st10" d="M53.7,26.7l-0.4,2.6c-0.1,0.8-0.5,1.6-0.8,2.3c-0.2,0.4-0.3,0.7-0.5,1c-0.8,0.9-0.8,1.1-1.3,1.7
			c-0.1,0.2-0.2,0.2-0.4,0.4c-0.2,0.2-0.2,0.2-0.5,0.3c0,0.2,0.1,0,0,0.2c-0.1,0.1-0.1,0.1-0.1,0.3c0.3,0,0.3,0,0.5-0.1
			c0.2,0,0.3,0.2,0.5,0.2c0.4,0.1,0.3-0.1,0.6,0.1c0.6,0.2,2,0.4,2.2,1.6c0.1,0.8-0.1,0.9-0.4,0.5c-0.3-0.5-0.4-0.6-0.9-0.9
			c-0.1-0.1-0.1-0.1-0.2-0.1c0.1,0.1,0,0.1,0.1,0.1c0,0,0.1,0.1,0.1,0.1c0.1,0.1,0.1,0.2,0.2,0.3c0,0.1,0.3,0.5,0.3,0.7
			c0.1,0.2,0.1,0.3,0.2,0.6c0,0.1,0.1,0.1,0.1,0.2c0,0.1-0.1,0.6-0.2,0.8c-0.1,0.3-0.5,0.9-0.5,1c-0.2,0.7,0,0.4-0.5,1
			c-0.2,0.2-0.3,0.4-0.4,0.6l-0.3,0.5C51,42.4,51,42.3,51,42.4c0.3,0.1,0.7-0.3,0.9-0.5c0.1-0.1,0.3-0.2,0.4-0.3
			c0.3-0.3,0.6-0.9,0.8-1.3c0.2-0.3,0.3-0.7,0.5-0.9c0.1-0.2,0.3-0.9,0.3-1.1c0-0.3,0.1-0.4,0.1-0.6c0-0.2-0.2-0.9-0.3-1.1
			c0-0.1-0.1-0.1-0.1-0.2c-0.2-0.5-0.1-0.4-0.8-0.9l0.1,0c-0.2-0.4-2.1-0.6-2.2-0.7c0.1-0.2,0.2-0.1,0.2-0.2l0.3-0.5
			c0.1-0.3,0.3-0.6,0.5-0.8c0.1-0.1,0.2-0.2,0.3-0.4c0.1-0.2,0.2-0.3,0.3-0.4c0.3-0.4,0.9-2,1-2.5c0-0.2,0.1-0.4,0.1-0.6l0.4-2.4
			c0-0.1,0-0.2,0-0.3c0-0.3,0-0.3-0.1-0.3C53.7,26.6,53.8,26.6,53.7,26.7z"/>
		<path class="st4" d="M48.2,26.8c0.2,0.2,0.3,0.4,0.4,0.7c0,0,0.1,0,0.1,0c0.3,0.1-0.2-0.1,0.1,0l0.1,0c0.7,0,1.3,0,2-0.1
			c0.6-0.1,1.2-0.3,1.8-0.4c0,0,0,0,0.1-0.1c0,0,0.1,0,0.1,0c0.1-0.1,0.1-0.1,0.3-0.1c0.2,0,0.3-0.1,0.5-0.2c0-0.1,0,0,0.1-0.1
			c0.1-0.1,0.1-0.1,0.2-0.1l0.2-0.2c0-0.2,0-0.3,0.1-0.5c0-0.2,0-0.3,0-0.5c0.1,0.1,0.1,0.1,0.2,0.2c-0.1-0.6-0.9-0.3-1.4-0.3l0.2,0
			c-0.1,0.2-0.4,0.2-0.6,0.2c-1.3,0.3-2,0.4-3.2,0.9C49.2,26.4,48.3,26.8,48.2,26.8z"/>
		<path class="st10" d="M54.9,59.2l2.1,0l-0.1,0c-0.2-0.1-0.4,0-0.6,0c0.1,0,0.2-0.1,0.3-0.2c0.2-0.2,0.8-0.5,1.1-0.7
			c0.2-0.1,1-0.6,1.1-0.7c0.2-0.2,0.2-0.1,0.4-0.2c0.2-0.1,0.1-0.1,0.3-0.2c0.1-0.1,0.2-0.2,0.3-0.3c0.5-0.3,1-0.7,1.6-0.8
			c0.2,0,0.3-0.2,0.4-0.1c0.2,0.1,0,0.2-0.1,0.4c0.1,0,0.4-0.2,0.5-0.3l0,0c0.1,0,0.2-0.1,0.2-0.1c0.1-0.4,0.2-0.6,0.2-1.1
			c0-0.3-0.1-0.9-0.3-1.1l0.1,0.6c-0.3,0-0.5,0.1-0.7,0.1c0,0.1,0.1,0.2-0.3,0.1c-0.2,0.2-0.2,0.1-0.3,0.3c-0.1,0.1,0,0.1-0.1,0.1
			c-0.3,0.1-0.2,0.3-0.6,0.3c0,0.3-0.1,0.1-0.3,0.3c-0.3,0.3-0.2,0.1-0.4,0.2c-0.1,0-0.2,0.2-0.3,0.3c-0.1,0.1-0.2,0.1-0.4,0.2
			l-0.8,0.6c-0.1,0-0.1,0.1-0.2,0.1c-0.1,0.1-0.3,0.1-0.4,0.2c-0.2,0.1,0,0-0.3,0.2c-0.2,0.1-0.1,0.1-0.4,0.2l-1.5,0.8
			c-0.2,0.1-0.5,0.4-0.6,0.6c-0.1,0-0.1-0.1-0.3-0.1C54.8,59.1,54.9,59.1,54.9,59.2z"/>
		<path class="st1" d="M46.2,30.9c-0.2,0.4-0.9,3-0.8,3.3c0,0.1,0,0,0.1,0.1c0.2-0.2,0.7-0.4,1.1-0.3c0.3,0.1,0.6,0.5,0.6,1
			c0,0,0,0,0.1,0.1c0.1-0.3,0-0.2,0.1-0.3c0.1-0.1,0.2-0.4,0.3-0.6c0-0.1,0-0.2,0.1-0.3c0.2-0.3,0,0.3,0.3-0.6
			c0.1-0.3,0.2-0.6,0.3-1c0.1-0.7,0.1-0.3,0.3-0.7c0,0,0-0.1,0-0.1c0.1-0.1,0-0.1,0.1-0.1l0,0.3l0.1-0.1c0-0.1,0-0.2,0-0.4
			c0-0.2,0-0.2-0.1-0.4c-0.2,0-0.8-0.2-1.2-0.2c-0.2,0-0.5,0-0.7,0.1C46.6,30.8,46.4,30.9,46.2,30.9z"/>
		<path class="st12" d="M31.4,46.3c0.3,0.2,0.7,0.3,1,0.4c0.3,0,1.1,0.3,1.3,0.4c0.4,0.1,1.2,0.3,1.4,0.4c-0.1,0-0.7,0.3-0.8,0.3
			c-0.2,0.1-0.7,0.2-0.8,0.3c0.5-0.1,1.5-0.6,1.8-0.6c0.4,0.1,1,0.3,1.4,0.4l0.5,0.1c-0.1-0.1,0,0,0,0L37.1,48
			c-0.1-0.1,0-0.1-0.2-0.2c-0.1,0-0.1-0.1-0.3-0.1c-0.5-0.2-0.3-0.2-0.8-0.3c-0.2-0.1-0.4-0.1-0.5-0.2l-1.1-0.4
			c-0.6-0.2-1.8-0.5-2.2-0.7c-0.2-0.1-0.3-0.2-0.5-0.2c-0.3-0.1-0.2-0.2-0.3-0.2c0,0,0,0,0,0c-0.1,0,0,0-0.1,0
			c-0.1,0-0.1-0.1-0.2-0.2c-0.3-0.1-0.2,0-0.7-0.3c-0.3-0.2-0.7-0.5-0.8-0.5l-0.1,0c-0.1-0.3,0-0.1-0.3-0.3l-0.6-0.5
			c-0.1-0.2-0.1-0.2-0.3-0.3c-0.1-0.1-0.5-0.4-0.6-0.6c-0.2-0.2-0.1-0.3-0.1-0.4c-0.1-0.3-0.1-0.2-0.2-0.2c0-0.2,0-0.4,0-0.5
			c-0.1-0.2-0.1-0.1,0-0.5c0-0.2,0-0.5,0-0.6c0.1-0.2,0.3-0.1,0-0.3c0-0.2,0-0.2-0.1-0.3l0.2-1c0-0.2,0-0.3,0.2-0.5
			c0.1-0.1,0.3-0.3,0.3-0.4c-0.2,0.2-0.7,0.7-0.8,1c-0.2,0.4-0.4,0.8-0.5,1.3c-0.2,1.1,0.3,2.1,0.8,2.8C28,44.4,29.7,45.7,31.4,46.3
			z"/>
		<path class="st7" d="M44.5,42.9c-0.3-0.6-0.3-0.5-0.5-1.2c-0.3-1.1-0.1-0.8-0.1-1.5l0-0.1c-0.1,0.2-0.1,0.5-0.1,0.8
			c-0.2-0.3-0.1-0.8-0.3-1c-0.5-0.7-1.1,0-1.3,0.1c-0.2,0.1-0.2,0.1-0.3,0.4c-0.1,0.5-0.1,0.6,0,1.1c0.2,0.9,0.5,1.2,1,1.7
			c0.2,0.2,0.6,0.4,0.9,0.4c0.3,0,0.6-0.3,0.6-0.4C44.5,42.9,44.3,43,44.5,42.9z"/>
		<path class="st10" d="M46.7,23.5c0,0.2,0.1,0.3,0.2,0.4c0.1,0.1,0.2,0.2,0.2,0.4c0,0.1,0.1,0.1,0.1,0.2c0.2,0.3,0.2,0.3,0.3,0.6
			c0.1-0.1,0-0.2,0-0.3c-0.1-0.1-0.1-0.1,0-0.3c0.1-0.4-0.1-0.2,0-0.6c0.1-0.3,0.1-0.4,0.2-0.6c0.2-0.5,0.2-0.2,0.3-0.4
			c0.2-0.4,0.2-0.6,0.6-0.9l0.6-0.9c0,0,0.1-0.1,0.1-0.1c0.1-0.1,0,0,0.1-0.1c0.3-0.4,1.1-1,1.8-0.8c0.5,0.1,1.1,0.5,1.3,0.9
			l0.1,0.2c0.1,0.1,0.1,0.1,0.1,0.3c0.3,0.5,0.5,2.8,0.6,3.5l0.7,0l-0.4-0.1c-0.1,0,0,0-0.1,0c-0.1-0.1-0.2-2.1-0.3-2.7
			c-0.2-1.1-1.2-2.6-2.4-2.7c-0.7-0.1-1.1,0.2-1.5,0.5c-0.7,0.5-1.3,1.6-1.7,2.4C47.2,22.3,46.7,23.2,46.7,23.5z"/>
		<path class="st12" d="M52.4,37c0.1,0.2,0.2,0.7,0.3,1c0.1,1.5-1.2,3.4-2.2,4.3c-0.4,0.4-0.9,0.8-1.4,1.2l0.1,0L49.2,44
			c0,0,0,0,0,0l0,0.1c0.2,0,0.4-0.2,0.5-0.2c1.6-0.9,3.1-1.9,4-3.4c0.8-1.3,1.1-2.8,0.2-4.2c-0.2-0.2-0.7-0.8-1-0.9l-0.1,0
			c0.8,0.5,0.6,0.4,0.8,0.9c0,0.1,0.1,0.1,0.1,0.2c0.1,0.2,0.3,0.9,0.3,1.1c0,0.2-0.1,0.3-0.1,0.6c0,0.3-0.2,0.9-0.3,1.1
			c-0.2,0.3-0.3,0.6-0.5,0.9c-0.2,0.4-0.5,1-0.8,1.3c-0.1,0.1-0.3,0.2-0.4,0.3c-0.2,0.2-0.6,0.6-0.9,0.5c0-0.1,0-0.1,0.1-0.2
			l0.3-0.5c0.2-0.2,0.3-0.4,0.4-0.6c0.5-0.6,0.3-0.3,0.5-1c0-0.1,0.5-0.7,0.5-1c0-0.2,0.2-0.7,0.2-0.8c0,0-0.1-0.1-0.1-0.2
			c-0.1-0.2-0.1-0.3-0.2-0.6C52.7,37.6,52.5,37.2,52.4,37z"/>
		<path class="st11" d="M38.9,36.2c0-0.6,0.9-0.4,0.6,0.1c0,0,0,0-0.1,0.1c-0.1,0.1,0,0-0.1,0.1C39,36.5,38.9,36.4,38.9,36.2
			L38.9,36.2z M38.5,35.9L38.5,35.9c-0.1,0.2-0.1,0.2,0,0.4l0.3,1.1c0.1,0.3,0.4,1.2,0.4,1.4c0.3,0.1,1,0.1,1.2,0
			c0.3-0.9,0.6-1.8,0.2-2.8c-0.3-0.8-1.1-0.9-1.7-0.6C38.8,35.5,38.5,35.7,38.5,35.9z"/>
		<path class="st9" d="M49.2,44.1c-0.1,0.2-0.4,0.3-0.6,0.4c-0.2,0.1-0.5,0.2-0.6,0.4c0.7-0.2,2-0.3,2.8-0.2c0.3,0,0.6,0,0.8,0.2
			c0.2,0.3-0.2,0.4,0.4,0.5c0.1,0,0.1,0,0.1,0c0.2,0,0.1,0,0.1,0.1c0.6,0,0.9,0.5,1.1,0.6c0.2,0,0.3,0.1,0.5,0.1
			c1.3,0.2,2.6,0.4,3.9,0.7c0.3,0.1,0.6,0.2,0.9,0.2c0.5,0.1,0.5-0.1,0.9,0.2c0-0.4,0-0.6-0.3-0.7c-0.1-0.1-0.8-0.1-0.9-0.2
			c-0.6-0.1-1.3-0.2-1.8-0.3c-0.6-0.1-1.2-0.2-1.9-0.3c-0.2,0-0.3,0-0.5-0.1c-0.4-0.1-0.2-0.1-0.4-0.2c-0.3-0.2-0.6-0.1-0.9,0
			c-0.1-0.2-0.2-0.3-0.5-0.5c-0.3-0.2-0.6-0.1-0.7-0.2c-0.1-0.2-0.1-0.3-0.3-0.4c-0.1-0.1-0.2-0.2-0.4-0.3c-0.3-0.1-0.7,0-1,0
			c-0.1,0-0.3,0-0.4,0C49.6,43.9,49.4,44.1,49.2,44.1z"/>
		<path class="st12" d="M27.8,52.5L27.6,53C27.8,52.9,27.8,52.7,27.8,52.5c0.3-0.3,2.4-1.3,2.8-1.4c0.1-0.1,0.1-0.1,0.2-0.2
			c0.1,0,0.2-0.1,0.3-0.1c0.1-0.2,0.4-0.3,0.5-0.6c0.2-0.2,0.3-0.5,0.3-0.8c0-0.1,0-0.3,0-0.4c0-0.2,0.1-0.2,0.1-0.3
			c-0.2,0-0.1-0.2-0.2-0.5c0-0.2-0.1-0.3-0.2-0.4l-0.1,0.1c0,0,0,0,0,0c0-0.1-0.1-0.1,0-0.2c-0.2,0.6-0.1,0.3-0.2,0.8
			c-0.2,0.8-0.2,0.5-0.8,1.3c-0.3,0.3-1.3,0.7-1.9,1.2c-0.2,0.2-0.3,0.3-0.5,0.5c-0.3,0.3-0.1,0.4-0.4,0.6L27.8,52.5z"/>
		<path class="st11" d="M45.8,34.9c-0.1-0.1,0,0-0.1-0.1l-0.1-0.1c0-0.3,0.2-0.5,0.5-0.4c0.1,0.1,0.3,0.3,0.2,0.5
			C46.2,35,45.9,35.1,45.8,34.9L45.8,34.9z M45.5,34.3L45.5,34.3c-0.2,0.2-0.2,1-0.2,1.2c0,0.3,0,1,0,1.3l0.1,0c0.2,0,0.9,0.1,1,0.1
			c0.2-0.2,0.4-0.5,0.5-0.8c0.2-0.4,0.2-0.6,0.2-1.1c0-0.5-0.3-0.8-0.6-1C46.1,33.9,45.6,34.1,45.5,34.3z"/>
		<path class="st12" d="M22.2,42.2l0.5,0c0,0.1,0,0.1-0.1,0.1l0.9,0.6c0.6,0.4,0.3,0.7,0.7,0.9c0.2,0.2,0.2,0.6,0.3,0.8
			c0.1,0.1,0.1,0.1,0.2,0.2c0.2,0.4,0.1,0.4,0.1,0.6c0,0.2,0.1,0.2,0,0.3c0,0.1-0.1,0.2-0.1,0.3l0.2,0c-0.1,0.6-0.1,0.3,0,0.6
			c0,0.1,0,0.2,0,0.3c0.1,0.3,0.2,0.5,0.5,0.7c0.1,0.1,0.3,0.2,0.5,0.2c-0.1-0.1-0.1,0-0.1-0.1l0.5-0.3c-0.2,0-0.3,0.2-0.5,0.2
			C24.9,45.1,25.7,42.1,22.2,42.2z"/>
		<path class="st7" d="M36.7,40.5c0.1-0.3-0.2-0.6-0.5-0.6c-0.3,0-0.8,0-1.1,0.1c-0.6,0.1-1.3,0.5-1.3,1.1c0,0.4,0.3,0.6,0.6,0.6
			C34.9,41.8,36.6,41,36.7,40.5z"/>
		<path class="st12" d="M57,59.2c0.3-0.1,2.3-1.3,2.7-1.5c0.5-0.3,0.9-0.5,1.3-0.8c0.3-0.2,1.1-0.7,1.2-0.9l0,0
			c-0.1,0.1-0.3,0.3-0.5,0.3c0-0.2,0.3-0.2,0.1-0.4c-0.1-0.1-0.3,0.1-0.4,0.1c-0.6,0.1-1.1,0.5-1.6,0.8c-0.2,0.1-0.2,0.2-0.3,0.3
			c-0.2,0.1-0.2,0.1-0.3,0.2c-0.2,0.1-0.2,0-0.4,0.2c-0.1,0.1-0.9,0.6-1.1,0.7c-0.3,0.2-0.9,0.5-1.1,0.7c-0.1,0.1-0.2,0.2-0.3,0.2
			C56.5,59.1,56.8,59.1,57,59.2L57,59.2z"/>
		<path class="st5" d="M21.4,55.3c0-0.5-0.1-0.9-0.2-1.3c-0.1-0.8,0-1.5,0-2.3c-0.2,0.1-0.5,0.9-0.6,1.1c-0.3,0.6-0.6,1.4-0.5,2.1
			c0,0.4,0.3,0.6,0.5,0.6c0.1,0,0.1,0,0.2,0c0.2,0,0.2,0.1,0.3,0c0.1,0,0,0,0.1-0.1C21.3,55.2,21.3,55.4,21.4,55.3z"/>
		<path class="st12" d="M24.7,59.2c0.4,0.1,0.8,0,1.3,0c0.5,0,0.9,0,1.4,0c0.4,0.1,2-0.5,2.3-0.6c0.5-0.3,1.5-0.8,1.6-1.4l-0.2,0.2
			c-0.5-0.2-0.3-0.1-0.5,0.1c0,0-0.1,0.1-0.2,0.1c-0.2,0.1-0.2,0.1-0.4,0.2c-0.2,0.1-0.2,0.2-0.4,0.2c-0.4,0.2-0.3,0-0.9,0.3
			c-0.3,0.2-0.2,0.2-0.4,0.1c-0.3,0-0.6,0.1-0.8,0.1c-0.5,0.1-0.2,0.1-0.5,0.1l-0.9,0c-0.3,0-0.9,0.1-1.2,0c-0.3,0-0.3,0-0.5,0
			c-0.3,0-1-0.1-1.3-0.2c-0.1,0-0.1,0-0.2-0.1c0.5,0.5,1,0.5,1.4,0.6C24.6,59.1,24.6,59.1,24.7,59.2C24.6,59.2,24.6,59.2,24.7,59.2
			C24.6,59.2,24.7,59.2,24.7,59.2z"/>
		<path class="st10" d="M46.2,20.9c-0.1,0.1-0.4,0.6-0.5,0.8c-0.1,0.2,0,0.2-0.2,0.3c0,0,0,0,0,0l0.2,0.2c0,0,0,0,0,0l0.4-0.8
			c0.2-0.4,0.6-1.1,0.9-1.4c0.8-0.9,1.6-1.7,2.8-1.8c0.4,0,0.6,0,0.9,0.1c1.4,0.5,2.1,1.9,2.5,3.4l0.2,0.9c0.1,0.4,0.3,1.8,0.1,2.1
			c0.1,0.1,0,0.1,0.2,0.1c0.1-0.4,0-1.6-0.1-2c-0.2-1.6-1-3.4-2.3-4.3c-0.5-0.3-0.9-0.6-1.7-0.5c-0.6,0.1-1.1,0.4-1.6,0.6
			c-0.5,0.3-0.8,0.6-1.2,1C47,19.9,46.4,20.7,46.2,20.9L46.2,20.9z"/>
		<path class="st13" d="M41.2,30.2L41.2,30.2c0.3,0,0.5-0.1,1-0.2c0.1,0,0.1,0,0.3-0.1c0.3,0,0.5-0.3,0.9-0.3
			c0.7-0.2,1.5-0.4,2.2-0.7c0.2-0.1,0.4-0.2,0.6-0.2l-0.1-0.1c0.2-0.1,0.3-0.1,0.5-0.3c0.1-0.1,0.2-0.3,0.3-0.4
			c0.2-0.2,0.6-0.4,1-0.4c0-0.1,0.1,0-0.1-0.1l0.2,0l0-0.2c-0.2-0.1-0.3-0.1-0.4-0.2c0.1-0.1,0.2-0.1,0.3-0.2
			c-0.3,0.1-1.4,0.7-1.7,0.9c-0.5,0.3-1,0.6-1.6,0.9c-0.7,0.4-1.9,1-2.6,1.2L41.2,30.2z"/>
		<path class="st8" d="M36.1,42.4c-0.3,0-0.4,0.1-0.5,0c0.1-0.1,0.3-0.1,0.5-0.2c0.5-0.2,0.8-0.5,1.4-0.7c0,0,0,0,0,0l0,0
			c0,0,0,0,0,0c0.1,0,0.2-0.1,0.3,0c0.2,0.3,1.1,0.7,1.4,0.8c0.7,0.2,1.2,0,1.8-0.4c-0.2-0.1-0.1-0.1-0.4-0.1
			C40.2,42,40,42.2,39.4,42c-0.2-0.1-0.5-0.2-0.7-0.3c-0.4-0.2-0.5-0.2-0.7-0.3c0,0,0,0,0.1-0.1l0.4-0.2c0,0,0,0,0.1,0
			c-0.2-0.1-1.1-0.1-1.3,0c-0.4,0.1-0.7,0.3-0.9,0.5c-0.7,0.4-1.6,0.6-1.8,1C35,42.6,35.8,42.5,36.1,42.4z"/>
		<path class="st12" d="M37.7,33c0.1,0.8,0,1.3,0,1.7c0,0.5,0.2,1,0.3,1.4c0.1,0.4,0.3,0.9,0.4,1.4c0.1,0.4,0.2,0.8,0.5,1.1l0.1,0.1
			l0.2,0c0-0.2-0.3-1.1-0.4-1.4l-0.3-1.1c0-0.2-0.1-0.2,0-0.3l0,0c-0.2,0-0.1,0-0.1-0.1l-0.1-1.3c0-0.5,0-1.2,0.1-1.6
			C38.1,33,38,33,37.7,33z"/>
		<path class="st9" d="M31.8,47.7L31.8,47.7c0.1,0.2,0.1,0.3,0.2,0.5c0.1,0.2,0,0.4,0.2,0.5c0.3-0.1,0.4-0.1,0.7-0.2
			c0.1-0.1,0.2-0.1,0.3-0.1c0.2,0,0.1-0.1,0.4-0.1c0.1-0.1,0.6-0.2,0.8-0.3c0.1,0,0.7-0.3,0.8-0.3c-0.3-0.1-1.1-0.3-1.4-0.4
			L31.8,47.7z"/>
		<path class="st8" d="M35.2,46.5c0.1,0,1.1,0.5,1.6,0.6c0.4,0.1,0.5,0,0.7,0.4c0.1,0.2,0.3,0.6,0.4,0.7c0-0.2-0.2-0.4-0.3-0.6
			c-0.2-0.3-0.2-0.4-0.4-0.5c-1.2-0.4-2.3-0.9-3.3-1.7c-0.2-0.2-0.1-0.2-0.1-0.2c-0.1-0.1-0.2-0.1-0.2-0.2c-0.2-0.2-0.5-0.6-0.6-0.8
			c-0.2-0.4-0.6-0.8-0.6-1.3c0-0.3-0.2-0.5-0.2-0.7c0-0.3,0.2-1.3,0.3-1.6c0.2-0.5,0-0.5-0.1-0.6c0-0.1,0.1-0.1,0.1-0.2
			c0,0,0.1-0.1,0.1-0.1c0-0.1,0,0,0-0.1c-0.3,0.3-0.7,1.5-0.7,2c0,0.9,0.7,2.2,1.2,2.9c0.4,0.5,0.9,0.9,1.4,1.3L35.2,46.5z"/>
		<path class="st12" d="M47.8,25.3c0.1,0,0.3,0,0.3-0.1l-0.2,0c0-0.6,0.5-2.6,0.8-2.9c0.3-0.8,1.1-2,1.9-2.2
			c1.8-0.4,2.3,3.4,2.2,4.6c0,0.1,0.2,0.1,0.3,0.1c-0.1-0.7-0.2-3-0.6-3.5c-0.2-0.1-0.2-0.3-0.5-0.6c0,0-0.1-0.1-0.1-0.1
			c-0.1-0.1-0.3-0.3-0.5-0.4c-0.8-0.4-1.3-0.3-2,0.3c-0.1,0.1-0.1,0.1-0.2,0.2c-0.1,0.1,0,0.1-0.1,0.2l-0.3,0.4
			c-0.1,0.2-0.1,0.4-0.2,0.5c-0.1,0.3-0.2,0.8-0.4,1.1c-0.1,0.2-0.1,0.4-0.1,0.6c-0.1,0.3-0.3,0.7-0.3,1.1
			C47.8,24.8,47.8,25.1,47.8,25.3C47.8,25.3,47.7,25.3,47.8,25.3z"/>
		<path class="st12" d="M46.2,20.9L46.2,20.9c0.2-0.2,0.7-1,0.9-1.2c0.3-0.4,0.7-0.7,1.2-1c0.4-0.3,0.9-0.5,1.6-0.6
			c0.8-0.1,1.2,0.2,1.7,0.5c1.3,0.9,2.1,2.6,2.3,4.3c0.1,0.5,0.2,1.6,0.1,2c0.1,0.1,0.1,0.1,0.2,0c-0.1-0.2-0.1-1-0.1-1.3
			c0-0.6-0.2-1.2-0.3-1.8c-0.1-0.4-0.4-1.2-0.5-1.5c-0.4-1-1.3-2-2.4-2.3l-0.5-0.1c0,0,0,0,0,0h-0.3c-0.1,0.1-0.6,0.1-0.7,0.1
			c-0.8,0.2-1.7,0.8-2.1,1.4C47,19.6,46.3,20.5,46.2,20.9z"/>
		<path class="st12" d="M47.5,25c0,0.1,0,0.1,0,0.3c0.1,0,0.2,0,0.3-0.1c-0.1,0,0,0-0.1,0c0.1-0.2,0.1-0.4,0.1-0.6
			c0.1-0.4,0.2-0.8,0.3-1.1c0.1-0.2,0.1-0.4,0.1-0.6c0.1-0.3,0.2-0.7,0.4-1.1c0.1-0.2,0.1-0.4,0.2-0.5l0.3-0.4
			c0.1-0.2,0-0.1,0.1-0.2c0.1-0.1,0.1-0.1,0.2-0.2c0.7-0.6,1.2-0.7,2-0.3c0.2,0.1,0.4,0.2,0.5,0.4c0,0,0.1,0.1,0.1,0.1
			c0.3,0.3,0.3,0.5,0.5,0.6c0-0.1,0-0.2-0.1-0.3l-0.1-0.2c-0.2-0.4-0.9-0.8-1.3-0.9c-0.7-0.2-1.5,0.4-1.8,0.8c-0.1,0.1,0,0-0.1,0.1
			c0,0-0.1,0.1-0.1,0.1l-0.6,0.9c-0.4,0.4-0.4,0.5-0.6,0.9c-0.1,0.2-0.1,0-0.3,0.4c-0.1,0.2-0.1,0.3-0.2,0.6c-0.1,0.4,0.1,0.2,0,0.6
			c0,0.2,0,0.2,0,0.3C47.6,24.8,47.6,24.9,47.5,25z"/>
		<path class="st14" d="M39.9,48.2c0.6,0.4,1.5,0.6,2.2,0.2c0.5-0.3,0.8-0.3,1.1-0.8c0.1-0.2,0.3-0.4,0.3-0.6
			c-0.2,0.1-0.2,0.3-0.5,0.4c-0.2-0.3-0.7-1.4-1.8-0.9c0,0,0,0,0,0c0,0,0,0,0,0c0,0,0,0,0,0c0,0,0,0,0,0c0,0,0,0,0,0
			c0,0-0.1,0-0.1,0c0,0-0.1,0-0.1-0.1c0,0,0,0,0,0c0,0,0,0,0,0l-0.1,0c0-0.1-0.1-0.1-0.3-0.1c0,0,0,0,0,0c-0.4,0-1,0.2-1.2,0.5
			c0,0,0,0.1-0.1,0.1c0,0.1-0.1,0.2-0.2,0.2c0,0-0.1,0-0.1,0c0,0.1,0,0.1,0.1,0.2c0,0,0.1,0.1,0.1,0.2c0.1,0.2,0.3,0.4,0.5,0.6
			c0,0,0.1,0.1,0.1,0.1C39.8,48.1,39.8,48.1,39.9,48.2C39.8,48.1,39.8,48.1,39.9,48.2z"/>
		<path class="st1" d="M43.6,44.9c0.1,0.4,0.1,1.1,0.4,1.3c0.4,0.1,0.8,0,1.2,0c0.2-0.1,0.3,0.1,0.3-0.5c0-0.3-0.1-0.4-0.1-0.7
			c-0.4,0-1.1,0.1-1.4-0.1c0,0-0.1,0-0.2,0C43.5,44.8,43.6,44.8,43.6,44.9z"/>
		<path class="st12" d="M51.4,58.3l0-0.2c0.3-0.1,0.7-0.1,0.9-0.3c0.3-0.2,0.6-0.3,0.9-0.4c1-0.5,1.1-0.7,1.6-0.9c0,0-0.1,0.1,0-0.1
			l-1.7,0.5c-0.3,0.1-0.6,0.1-0.9,0.2c-0.2,0-0.3,0.1-0.5,0.1c-0.1,0-0.2,0-0.2,0c-0.3,0.1-0.2,0.3-0.1,0.9L51.4,58.3
			C51.3,58.2,51.3,58.3,51.4,58.3C51.3,58.3,51.4,58.3,51.4,58.3z"/>
		<path class="st12" d="M54.7,56.3c-0.1,0.2,0,0.1,0,0.1c-0.5,0.2-0.6,0.5-1.6,0.9c-0.3,0.1-0.6,0.3-0.9,0.4
			c-0.3,0.2-0.6,0.2-0.9,0.3l0,0.2c0,0.1,0,0.5,0.1,0.6l0-0.4c0.3-0.2,1-0.3,1.4-0.6l1.3-0.7c0.2-0.1,0.4-0.2,0.6-0.3
			c0.1-0.1,0.2-0.1,0.3-0.2c0.1-0.1,0.2-0.1,0.3-0.2c0.2-0.1,0.8-0.4,1.1-0.8l0-0.1c-0.2,0-0.7,0.3-0.8,0.4
			C55.3,56.1,55.1,56.3,54.7,56.3z"/>
		<path class="st13" d="M44.8,39.8c0-0.2,0-0.3,0.1-0.4c0.1-0.2,0.2-0.2,0.4-0.2c0.1,0.1,0.1,0.2,0.2,0.2c0.1,0,0.1-0.1,0.1,0.3
			c0,1.2-0.6,1.1-0.8,0.7c-0.1-0.1-0.1-0.3-0.1-0.5L44.8,39.8L44.8,39.8z M45.2,39c-0.9,0.3-0.6,1.3-0.5,1.8
			c0.1,0.7,0.3,1.4,0.7,1.8c0.5,0.4,0.4-0.2,0.4-0.6c0-0.4,0-0.8,0-1.2C45.8,40.3,45.9,38.7,45.2,39z"/>
		<path class="st15" d="M48.7,31.7c0,1.1-0.3,2-0.6,2.9c-0.1,0.4-0.3,0.9-0.5,1.3c-0.2,0.4-0.4,0.8-0.5,1.2l0,0.1
			c0.1,0,0.2-0.1,0.3-0.2c0.1-0.1,0.1-0.2,0.2-0.3c0.1-0.2,0.8-2,0.8-2.2c0.1-0.3,0.1-0.5,0.2-0.8c0.3-0.8,0.3-1.5,0.3-2.3
			c0-0.2-0.1-0.2-0.1-0.4c-0.1,0-0.1,0-0.2,0c0.1,0.1,0.1,0.2,0.1,0.4C48.7,31.5,48.7,31.5,48.7,31.7z"/>
		<path class="st10" d="M53,26.9c-0.1,1.4-0.8,3.9-1.5,4.9c-0.1,0.1-0.1,0.1-0.1,0.2c-0.1,0.3-1.2,1.5-1.4,1.7
			c-0.2,0.2-0.7,0.4-0.7,0.8c0.2-0.1,0.8-0.5,0.9-0.6l0.7-0.8l0.6-0.9c0.2-0.3,0.4-0.6,0.5-0.9c0.3-0.6,0.6-1.4,0.8-2.1
			c0.1-0.7,0.3-0.9,0.4-1.8c0-0.1,0.1-0.5,0.2-0.6C53,26.9,53.1,26.9,53,26.9z"/>
		<path class="st10" d="M38.3,38.6l0.6,0.2l-0.1-0.1c-0.3-0.3-0.3-0.7-0.5-1.1c-0.1-0.5-0.3-0.9-0.4-1.4c-0.1-0.4-0.3-1-0.3-1.4
			c0-0.4,0.1-0.9,0-1.7l-0.3-0.1c0.1,0.5,0,1.1,0,1.7c0.1,0.9,0.4,1.8,0.7,2.7c0.1,0.2,0.1,0.4,0.2,0.7c0,0.1,0,0.2,0.1,0.4
			C38.4,38.7,38.4,38.5,38.3,38.6z"/>
		<path class="st11" d="M46.3,28.7l0.4,0.1c0.4,0,0.6-0.4,1.1-0.5c0.3-0.1,0.5,0,0.7,0.1c0.1,0.1,0.3,0.3,0.4,0.4
			c0.2,0-0.2-0.7-0.3-0.7c-0.1-0.1-0.2-0.2-0.3-0.3c-0.1-0.1-0.2-0.2-0.4-0.2c-0.4,0-0.8,0.2-1,0.4c-0.1,0.1-0.2,0.3-0.3,0.4
			c-0.2,0.2-0.3,0.1-0.5,0.3L46.3,28.7z"/>
		<path class="st10" d="M37.4,30.8c0.1,0,0.2,0,0.3,0.1c0.2,0.1,0.1,0.1,0.2,0.3c-0.3,0.4-0.5,1.2-0.4,1.8c0.2,0,0.2,0,0.3-0.1
			c0.1-0.6,0.2-1.1,0.5-1.5c0.1-0.1,0.6-0.4,0.3-0.6c-0.1-0.1-0.6-0.2-0.9-0.1C37.8,30.5,37.6,30.6,37.4,30.8z"/>
		<path class="st12" d="M53.9,26.6c0,0,0.1,0,0.1,0.3c0,0.1,0,0.2,0,0.3l-0.4,2.4c0,0.2-0.1,0.4-0.1,0.6c-0.1,0.5-0.7,2.1-1,2.5
			c-0.1,0.1-0.2,0.2-0.3,0.4c-0.1,0.1-0.2,0.2-0.3,0.4c-0.2,0.2-0.4,0.5-0.5,0.8l-0.3,0.5c0.4-0.1,1.1-1.1,1.3-1.5
			c1-1.7,1.7-4.7,1.9-6.6C53.9,26.5,53.9,26.4,53.9,26.6z"/>
		<path class="st7" d="M35.6,43.1c-0.1,0.2-0.2,0.4-0.1,0.7c0,0.1,0.3,0.5,0.3,0.5c0.5,0.5,0.4,0.7,1,0.6c0.1-0.4-0.2-0.8-0.3-1.2
			C36.4,43.3,36.2,43,35.6,43.1z"/>
		<path class="st11" d="M39.6,31.8c-0.1,0-1,0.6-1.1,0.7c-0.1,0.1-0.4,0.3-0.6,0.3c-0.1,0-0.1,0.1-0.3,0.1c-0.2,0-0.1,0-0.1,0.1
			l0.3,0.1c0.3,0,0.4,0,0.6-0.1c0.1,0,0.4-0.2,0.5-0.3c0.2-0.1,0.4-0.2,0.6-0.3c0.3-0.1,0.9-0.4,1.3-0.4l0.2-0.1l-0.1-0.1
			c-0.1-0.1-0.1,0-0.2-0.1C40.2,31.6,40.1,31.6,39.6,31.8z"/>
		<path class="st8" d="M48.1,25.2l0.7-0.2c-0.1,0-0.1,0-0.1-0.2c0-0.1,0-0.2,0-0.3c0-0.2,0-0.2,0-0.3c0-0.1,0-0.3,0.1-0.3l0-1.4
			c-0.1,0,0,0.1-0.1,0l0.1-0.2c-0.3,0.3-0.7,2.3-0.8,2.9L48.1,25.2z"/>
		<path class="st16" d="M31.1,47.1c0,0.1,0,0.1,0.2,0.1c0.1,0,0.1,0.1,0.2,0.1c0.2,0.1,0.1,0.3,0.3,0.3l1.9-0.5
			c-0.2-0.1-1-0.4-1.3-0.4L31.1,47.1z"/>
		<path class="st1" d="M45.4,45c0,0.4,0.1,0.6,0.1,1c0.1,0.1,0,0,0.1,0.1l0.5-0.1c0.1-0.1,0.2-0.1,0.3-0.2c0-0.1,0-0.1,0-0.1l-0.2,0
			c0.3-0.2,0.5-0.4,0.1-0.7C46.1,44.9,45.7,45,45.4,45z"/>
		<path class="st10" d="M47.3,37.3c0.2,0.2,0.9-0.3,0.9-0.3l-0.2,0l0.4-1c0-0.1,0.4-0.6,0.5-1c-0.1,0-0.1,0-0.1,0.1
			c0-0.1,0-0.2,0-0.3c0-0.1-0.1-0.1-0.2-0.1c-0.2,0.1-0.3,0.5-0.3,0.7c-0.2,0.5-0.3,1-0.6,1.4C47.6,37.3,47.6,37.3,47.3,37.3z"/>
		<path class="st11" d="M46.3,30.6c-0.1,0-0.2,0.2-0.1,0.3c0.2,0,0.4-0.1,0.6-0.1c0.2,0,0.4-0.1,0.7-0.1c0.4,0,1,0.2,1.2,0.2
			c0.1,0,0.1,0.1,0.2,0c0.2,0,0.4,0,0.5-0.2c-0.3,0.1-0.4,0-0.7-0.1c-0.1,0-0.2-0.1-0.3-0.1l-0.2-0.1c-0.1-0.1,0,0-0.1-0.1l-0.3-0.1
			C47.4,30.3,46.7,30.5,46.3,30.6z"/>
		<path class="st9" d="M30,46.8c0,0.1,0,0.1,0.3,0.1c0.4,0.1,0.5,0.1,0.9,0.2l1.3-0.3c-0.3-0.2-0.7-0.2-1-0.4
			c-0.1,0.1,0.1,0.1-0.3,0.2c-0.1,0-0.2,0.1-0.4,0.1C30.4,46.6,30.2,46.7,30,46.8z"/>
		<path class="st15" d="M48.1,26.8l0.1,0c0,0,1-0.4,1.2-0.5c1.3-0.5,1.9-0.7,3.2-0.9c0.3-0.1,0.5-0.1,0.6-0.2l-0.2,0
			c-1.4,0.3-2.6,0.5-3.9,1.1c-0.2,0.1-0.4,0.2-0.6,0.2C48.4,26.6,48.2,26.6,48.1,26.8z"/>
		<path class="st5" d="M46.3,30.6c0.3-0.2,1-0.3,1.4-0.2c0.1-0.1,0.1,0-0.1-0.4c-0.1-0.2-0.2-0.2-0.2-0.4l-0.1,0
			c-0.2,0.1-0.4,0.2-0.5,0.4c-0.1,0.1-0.1,0.1-0.2,0.3C46.4,30.4,46.4,30.4,46.3,30.6z"/>
		<path class="st5" d="M47.9,44.5c-0.2,0.1-0.2,0.1-0.3,0.2c-0.1,0.1-0.2,0.2-0.3,0.3c-0.1,0.1-0.3,0.2-0.4,0.2l0-0.7l0,0
			c0,0-1.1,0.4-1.1,0.4l0.9-0.1c0.1,0.2,0.2,0.5,0.1,0.8l0.1,0c0.1-0.1,0.7-0.5,0.8-0.5c0.1-0.2,0.8-0.5,0.8-0.6c0-0.1,0,0,0-0.1
			c0-0.1,0-0.1,0-0.1C48,44.4,48.1,44.5,47.9,44.5z"/>
		<path class="st10" d="M39.2,31.3l0.2,0c0.1,0.1,0.3,0.3,0.2,0.4c0.5-0.1,0.6-0.2,1.2-0.1c-0.1-0.2-0.8-0.7-1.4-0.5L39.2,31.3z"/>
		<path class="st5" d="M59.2,52.6c0.3,0,1-0.8,0.8-1.2l0.5,0l-0.8-0.1c-0.1,0.1-0.1,0.2-0.1,0.3L59.2,52.6z"/>
		<path class="st8" d="M40,50.2c0.2,0.2,0.8,0.2,1.2,0.1c0.3-0.1,0.8-0.2,1-0.4c-0.1,0,0,0,0-0.1c0,0,0,0,0,0
			c-0.5,0.2-0.9,0.3-1.5,0.3c-1.2-0.1-0.6-0.1-1.3-0.4C39.2,49.8,39.9,50.1,40,50.2L40,50.2z"/>
		<path class="st5" d="M38.5,32.4c0.1-0.1,1-0.7,1.1-0.7c0-0.1-0.2-0.3-0.2-0.4l-0.2,0C38.7,31.6,38.7,31.9,38.5,32.4L38.5,32.4z"/>
		<path class="st10" d="M47.9,44.5c0.2,0,0.2-0.1,0.3-0.2c0,0,0,0,0,0.1c0,0.1,0,0,0,0.1c0,0.1-0.7,0.4-0.8,0.6
			c0.1,0,0.5-0.2,0.6-0.3c0.1-0.2,0.4-0.2,0.6-0.4c0.2-0.1,0.5-0.2,0.6-0.4l0-0.1c0,0,0,0,0,0l0.1-0.3l-0.1,0
			c-0.2,0.1-0.4,0.3-0.6,0.4c-0.1,0.1-0.2,0.1-0.3,0.2C48,44.4,48,44.4,47.9,44.5z"/>
		<path class="st8" d="M36.1,42.4c0.1,0,0.2,0,0.3-0.1c0.1-0.1,0-0.1,0.2-0.1c0.1,0,0.1,0,0.2,0c0-0.1,0-0.1,0.2-0.2
			c0.1,0,0.2-0.1,0.2-0.1c0.2-0.1,0.3-0.2,0.6-0.3c-0.1-0.2-0.2,0-0.3,0c0,0,0,0,0,0l0,0c0,0,0,0,0,0c-0.6,0.2-0.9,0.4-1.4,0.7
			c-0.2,0.1-0.4,0.1-0.5,0.2C35.6,42.4,35.8,42.4,36.1,42.4z"/>
		<path class="st10" d="M47.3,29.7l0.1,0c0.1,0.2,0.2,0.2,0.2,0.4c0.2,0.4,0.2,0.3,0.1,0.4l0.3,0.1c0.1,0,0.1,0,0.1-0.1
			c0-0.2-0.1-0.3-0.1-0.4c-0.1-0.2-0.1-0.2-0.2-0.4c-0.1,0-0.2,0-0.3,0L47.3,29.7C47.3,29.6,47.3,29.6,47.3,29.7z"/>
		<path class="st11" d="M37.1,30.5c0,0.1-0.1,0.2-0.2,0.3l-0.1,0.6c0.1-0.1,0.3-0.3,0.4-0.5c0.1,0,0.1-0.1,0.2-0.1
			c0.1-0.2,0.3-0.2,0.4-0.3c0-0.1-0.3-0.1-0.4-0.1C37.3,30.4,37.3,30.3,37.1,30.5z"/>
		<path class="st17" d="M45.6,44.9l-0.3,0l0,0.1c0.3-0.1,0.7-0.1,1,0.1c0.3,0.3,0.2,0.5-0.1,0.7l0.2,0c0,0,0,0,0,0.1
			c0.1,0,0.1,0,0.1,0c0-0.1,0.1-0.1,0.1-0.2c0.1-0.3,0-0.6-0.1-0.8L45.6,44.9z"/>
		<path class="st4" d="M54.3,26.2c0.2-0.1,0.3-0.4,0.3-0.6c0,0,0,0,0,0c0,0,0,0,0,0l0,0c-0.1-0.1-0.1-0.2-0.2-0.2
			c0,0.2,0.1,0.3,0,0.5C54.3,26,54.2,26,54.3,26.2z"/>
		<path class="st10" d="M45.1,46.2c0.2,0,0.3,0,0.4-0.1c-0.1,0,0,0-0.1-0.1c0-0.5,0-0.6-0.1-1l0-0.1c-0.5,0.1-1,0.1-1.5-0.1
			c0.3,0.2,1,0.1,1.4,0.1c0,0.2,0.1,0.4,0.1,0.7C45.4,46.3,45.3,46.1,45.1,46.2z"/>
		<path class="st7" d="M46.7,44.5L46.7,44.5c0.1,0.2,0,0.4,0.1,0.6l0.1,0c0-0.2,0-0.6,0.2-0.7c0.1-0.1,0.1,0,0.2-0.2
			C47.2,44.2,46.8,44.4,46.7,44.5z"/>
		<path class="st18" d="M47.5,44.7c-0.3,0-0.4,0.3-0.6,0.3l-0.1,0c-0.1-0.2,0-0.4-0.1-0.6l0,0.7c0.2,0,0.3-0.1,0.4-0.2
			C47.3,44.9,47.4,44.9,47.5,44.7z"/>
		<path class="st7" d="M33.6,39.6h3.1v1.6h-3.1V39.6L33.6,39.6z M33.3,40.5v1.3h2.5v-1.3H33.3L33.3,40.5z M44.5,42.9h-1v1h1V42.9
			L44.5,42.9z M43.8,43.4h-1.3v-4.1h1.3V43.4L43.8,43.4z M42.9,39.2h-0.9v3.6h0.9V39.2L42.9,39.2z M41.6,39.7v2.2h1.2v-2.2H41.6
			L41.6,39.7z M49.1,37.4h2.1v2.1h-2.1V37.4z"/>
		<path class="st13" d="M46,34.3c0.2,0,0.4,0.2,0.4,0.4c0,0.2-0.2,0.4-0.4,0.4c-0.2,0-0.4-0.2-0.4-0.4C45.6,34.5,45.8,34.3,46,34.3
			L46,34.3z M39.2,35.7c0.3,0,0.5,0.2,0.5,0.4c0,0.2-0.2,0.4-0.5,0.4c-0.3,0-0.5-0.2-0.5-0.4C38.7,35.9,38.9,35.7,39.2,35.7
			L39.2,35.7z M44.6,39.1h1.3v2h-1.3V39.1z"/>
	</g>
	<path class="st19" d="M37.7,24.7c-0.1,0-0.1,0.1-0.1,0.1c0,0.1,0,0.2,0.1,0.3c0.1,0.3,0.2,0.4,0.2,0.6c0,0,0,0.1,0.1,0.1
		c0,0,0.1,0,0.1,0c0.1,0,0.2,0.1,0.3,0.2c0,0.1,0,0.3-0.2,0.4c-0.1,0.1-0.4,0.2-0.8,0.4c-0.7,0.2-1.2,0.2-1.2-0.1c0,0,0-0.1,0-0.1
		c0,0,0-0.1,0.1-0.2c0.1-0.1,0.1-0.2,0.1-0.3c0-0.1,0-0.2-0.1-0.4c0-0.1-0.2-0.7-0.5-1.5c-0.1-0.3-0.2-0.5-0.2-0.6
		c-0.1-0.1-0.1-0.1-0.3-0.2c-0.1,0-0.2,0-0.2-0.1c0,0-0.1-0.1-0.1-0.1c0-0.1,0-0.1,0-0.2c0-0.1,0.1-0.1,0.2-0.2
		c0.1-0.1,0.2-0.1,0.3-0.1c0.1,0,0.2-0.1,0.5-0.1c0.1,0,0.1,0,0.2-0.1c0.2-0.1,0.4-0.1,0.7-0.3c0.2-0.1,0.3-0.1,0.4-0.2
		c0.4-0.1,0.8-0.2,1.2,0c0.3,0.1,0.5,0.3,0.6,0.6c0.1,0.2,0.1,0.4,0,0.5c0,0.2-0.1,0.3-0.3,0.5C39,23.8,39,23.8,39,23.9
		c0,0.1,0.1,0.1,0.2,0.1c0.2,0,0.4,0.1,0.6,0.2c0.1,0.1,0.3,0.3,0.4,0.6c0.1,0.1,0.1,0.2,0.2,0.2c0,0,0.1,0,0.3,0c0,0,0.1,0,0.1,0
		c0,0,0.1,0.1,0.1,0.1c0,0.1,0,0.1,0,0.2c0,0.1-0.1,0.1-0.1,0.2c-0.1,0.1-0.4,0.2-0.7,0.3c-0.4,0.1-0.7,0.1-0.9,0
		c-0.1-0.1-0.2-0.2-0.3-0.3c-0.1-0.1-0.2-0.3-0.4-0.6c-0.1-0.2-0.2-0.3-0.3-0.3C38,24.7,37.9,24.7,37.7,24.7L37.7,24.7z M37.1,23.3
		l0.2,0.7c0,0,0,0,0,0c0,0.1,0,0.1,0.1,0.1c0,0,0.1,0,0.1,0c0.2-0.1,0.3-0.1,0.3-0.3c0-0.1,0-0.3,0-0.5c-0.1-0.4-0.3-0.5-0.6-0.4
		C37.1,23,37.1,23,37,23C37,23.1,37,23.2,37.1,23.3z"/>
	<path class="st20" d="M37.7,24.7c-0.1,0-0.1,0.1-0.1,0.1c0,0.1,0,0.2,0.1,0.3c0.1,0.3,0.2,0.4,0.2,0.6c0,0,0,0.1,0.1,0.1
		c0,0,0.1,0,0.1,0c0.1,0,0.2,0.1,0.3,0.2c0,0.1,0,0.3-0.2,0.4c-0.1,0.1-0.4,0.2-0.8,0.4c-0.7,0.2-1.2,0.2-1.2-0.1c0,0,0-0.1,0-0.1
		c0,0,0-0.1,0.1-0.2c0.1-0.1,0.1-0.2,0.1-0.3c0-0.1,0-0.2-0.1-0.4c0-0.1-0.2-0.7-0.5-1.5c-0.1-0.3-0.2-0.5-0.2-0.6
		c-0.1-0.1-0.1-0.1-0.3-0.2c-0.1,0-0.2,0-0.2-0.1c0,0-0.1-0.1-0.1-0.1c0-0.1,0-0.1,0-0.2c0-0.1,0.1-0.1,0.2-0.2
		c0.1-0.1,0.2-0.1,0.3-0.1c0.1,0,0.2-0.1,0.5-0.1c0.1,0,0.1,0,0.2-0.1c0.2-0.1,0.4-0.1,0.7-0.3c0.2-0.1,0.3-0.1,0.4-0.2
		c0.4-0.1,0.8-0.2,1.2,0c0.3,0.1,0.5,0.3,0.6,0.6c0.1,0.2,0.1,0.4,0,0.5c0,0.2-0.1,0.3-0.3,0.5C39,23.8,39,23.8,39,23.9
		c0,0.1,0.1,0.1,0.2,0.1c0.2,0,0.4,0.1,0.6,0.2c0.1,0.1,0.3,0.3,0.4,0.6c0.1,0.1,0.1,0.2,0.2,0.2c0,0,0.1,0,0.3,0c0,0,0.1,0,0.1,0
		c0,0,0.1,0.1,0.1,0.1c0,0.1,0,0.1,0,0.2c0,0.1-0.1,0.1-0.1,0.2c-0.1,0.1-0.4,0.2-0.7,0.3c-0.4,0.1-0.7,0.1-0.9,0
		c-0.1-0.1-0.2-0.2-0.3-0.3c-0.1-0.1-0.2-0.3-0.4-0.6c-0.1-0.2-0.2-0.3-0.3-0.3C38,24.7,37.9,24.7,37.7,24.7L37.7,24.7z M37.1,23.3
		l0.2,0.7c0,0,0,0,0,0c0,0.1,0,0.1,0.1,0.1c0,0,0.1,0,0.1,0c0.2-0.1,0.3-0.1,0.3-0.3c0-0.1,0-0.3,0-0.5c-0.1-0.4-0.3-0.5-0.6-0.4
		C37.1,23,37.1,23,37,23C37,23.1,37,23.2,37.1,23.3z"/>
	<path class="st19" d="M41.6,23.5c-0.1,0-0.1,0.1-0.1,0.1c0,0.1,0,0.2,0.1,0.3c0.1,0.3,0.2,0.4,0.2,0.6c0,0,0,0.1,0.1,0.1
		c0,0,0.1,0,0.1,0c0.1,0,0.2,0.1,0.3,0.2c0,0.1,0,0.3-0.2,0.4c-0.1,0.1-0.4,0.2-0.8,0.4c-0.7,0.2-1.2,0.2-1.2-0.1c0,0,0-0.1,0-0.1
		c0,0,0-0.1,0.1-0.2c0.1-0.1,0.1-0.2,0.1-0.3c0-0.1,0-0.2-0.1-0.4c0-0.1-0.2-0.7-0.5-1.5c-0.1-0.3-0.2-0.5-0.2-0.6
		c-0.1-0.1-0.1-0.1-0.3-0.2c-0.1,0-0.2,0-0.2-0.1c0,0-0.1-0.1-0.1-0.1c0-0.1,0-0.1,0-0.2c0-0.1,0.1-0.1,0.2-0.2
		c0.1-0.1,0.2-0.1,0.3-0.1c0.1,0,0.2-0.1,0.5-0.1c0.1,0,0.1,0,0.2-0.1c0.2-0.1,0.4-0.1,0.7-0.3c0.2-0.1,0.3-0.1,0.4-0.2
		c0.4-0.1,0.8-0.2,1.2,0c0.3,0.1,0.5,0.3,0.6,0.6c0.1,0.2,0.1,0.4,0,0.5c0,0.2-0.1,0.3-0.3,0.5c-0.1,0.1-0.1,0.1-0.1,0.1
		c0,0.1,0.1,0.1,0.2,0.1c0.2,0,0.4,0.1,0.6,0.2c0.1,0.1,0.3,0.3,0.4,0.6c0.1,0.1,0.1,0.2,0.2,0.2c0,0,0.1,0,0.3,0c0,0,0.1,0,0.1,0
		c0,0,0.1,0.1,0.1,0.1c0,0.1,0,0.1,0,0.2c0,0.1-0.1,0.1-0.1,0.2c-0.1,0.1-0.4,0.2-0.7,0.3c-0.4,0.1-0.7,0.1-0.9,0
		c-0.1-0.1-0.2-0.2-0.3-0.3c-0.1-0.1-0.2-0.3-0.4-0.6c-0.1-0.2-0.2-0.3-0.3-0.3C41.8,23.5,41.7,23.5,41.6,23.5L41.6,23.5z M40.9,22
		l0.2,0.7c0,0,0,0,0,0c0,0.1,0,0.1,0.1,0.1c0,0,0.1,0,0.1,0c0.2-0.1,0.3-0.1,0.3-0.3c0-0.1,0-0.3,0-0.5c-0.1-0.4-0.3-0.5-0.6-0.4
		c-0.1,0-0.1,0.1-0.1,0.1C40.9,21.9,40.9,21.9,40.9,22z"/>
	<path class="st20" d="M41.6,23.5c-0.1,0-0.1,0.1-0.1,0.1c0,0.1,0,0.2,0.1,0.3c0.1,0.3,0.2,0.4,0.2,0.6c0,0,0,0.1,0.1,0.1
		c0,0,0.1,0,0.1,0c0.1,0,0.2,0.1,0.3,0.2c0,0.1,0,0.3-0.2,0.4c-0.1,0.1-0.4,0.2-0.8,0.4c-0.7,0.2-1.2,0.2-1.2-0.1c0,0,0-0.1,0-0.1
		c0,0,0-0.1,0.1-0.2c0.1-0.1,0.1-0.2,0.1-0.3c0-0.1,0-0.2-0.1-0.4c0-0.1-0.2-0.7-0.5-1.5c-0.1-0.3-0.2-0.5-0.2-0.6
		c-0.1-0.1-0.1-0.1-0.3-0.2c-0.1,0-0.2,0-0.2-0.1c0,0-0.1-0.1-0.1-0.1c0-0.1,0-0.1,0-0.2c0-0.1,0.1-0.1,0.2-0.2
		c0.1-0.1,0.2-0.1,0.3-0.1c0.1,0,0.2-0.1,0.5-0.1c0.1,0,0.1,0,0.2-0.1c0.2-0.1,0.4-0.1,0.7-0.3c0.2-0.1,0.3-0.1,0.4-0.2
		c0.4-0.1,0.8-0.2,1.2,0c0.3,0.1,0.5,0.3,0.6,0.6c0.1,0.2,0.1,0.4,0,0.5c0,0.2-0.1,0.3-0.3,0.5c-0.1,0.1-0.1,0.1-0.1,0.1
		c0,0.1,0.1,0.1,0.2,0.1c0.2,0,0.4,0.1,0.6,0.2c0.1,0.1,0.3,0.3,0.4,0.6c0.1,0.1,0.1,0.2,0.2,0.2c0,0,0.1,0,0.3,0c0,0,0.1,0,0.1,0
		c0,0,0.1,0.1,0.1,0.1c0,0.1,0,0.1,0,0.2c0,0.1-0.1,0.1-0.1,0.2c-0.1,0.1-0.4,0.2-0.7,0.3c-0.4,0.1-0.7,0.1-0.9,0
		c-0.1-0.1-0.2-0.2-0.3-0.3c-0.1-0.1-0.2-0.3-0.4-0.6c-0.1-0.2-0.2-0.3-0.3-0.3C41.8,23.5,41.7,23.5,41.6,23.5L41.6,23.5z M40.9,22
		l0.2,0.7c0,0,0,0,0,0c0,0.1,0,0.1,0.1,0.1c0,0,0.1,0,0.1,0c0.2-0.1,0.3-0.1,0.3-0.3c0-0.1,0-0.3,0-0.5c-0.1-0.4-0.3-0.5-0.6-0.4
		c-0.1,0-0.1,0.1-0.1,0.1C40.9,21.9,40.9,21.9,40.9,22z"/>
	<path class="st19" d="M39,54.8c-0.1,0-0.1,0-0.2,0.1c0,0,0,0.2,0,0.3c0,0.3,0,0.5,0.1,0.6c0,0,0,0.1,0,0.1c0,0,0.1,0.1,0.1,0.1
		c0.1,0.1,0.2,0.2,0.2,0.3c0,0.1-0.1,0.2-0.3,0.3c-0.2,0.1-0.5,0.1-0.9,0.1c-0.8,0-1.2-0.2-1.2-0.5c0-0.1,0-0.1,0-0.1
		c0,0,0.1-0.1,0.2-0.1c0.1-0.1,0.2-0.1,0.2-0.2c0-0.1,0.1-0.2,0.1-0.4c0-0.2,0-0.7,0-1.6c0-0.3,0-0.5,0-0.6c0-0.1-0.1-0.2-0.2-0.2
		c-0.1,0-0.2-0.1-0.2-0.1c0,0,0-0.1,0-0.1c0-0.1,0-0.1,0.1-0.2c0.1-0.1,0.1-0.1,0.3-0.1c0.1,0,0.2,0,0.4,0c0.1,0,0.2,0,0.5,0
		c0.1,0,0.1,0,0.3,0c0.2,0,0.5,0,0.8,0c0.2,0,0.3,0,0.4,0c0.5,0,0.8,0.1,1.1,0.3c0.3,0.2,0.4,0.5,0.4,0.8c0,0.2,0,0.4-0.1,0.5
		c-0.1,0.2-0.2,0.3-0.4,0.4c-0.1,0-0.1,0.1-0.1,0.1c0,0.1,0.1,0.1,0.2,0.2c0.2,0.1,0.4,0.2,0.5,0.4c0.1,0.2,0.2,0.4,0.2,0.8
		c0,0.1,0,0.2,0.1,0.3c0,0,0.1,0.1,0.3,0.1c0,0,0.1,0,0.1,0.1c0,0,0,0.1,0,0.1c0,0.1,0,0.1-0.1,0.2c-0.1,0.1-0.1,0.1-0.2,0.2
		c-0.2,0.1-0.4,0.1-0.7,0.1c-0.4,0-0.7-0.1-0.9-0.3c-0.1-0.1-0.2-0.2-0.2-0.4c-0.1-0.2-0.1-0.4-0.2-0.7c0-0.2-0.1-0.3-0.2-0.4
		C39.2,54.9,39.1,54.8,39,54.8L39,54.8z M38.8,53.2l0,0.8c0,0,0,0,0,0c0,0.1,0,0.1,0,0.2c0,0,0.1,0,0.1,0c0.2,0,0.3,0,0.4-0.1
		c0.1-0.1,0.1-0.3,0.1-0.5c0-0.4-0.1-0.6-0.4-0.6c-0.1,0-0.1,0-0.2,0.1C38.8,53,38.8,53.1,38.8,53.2z"/>
	<path class="st20" d="M39,54.8c-0.1,0-0.1,0-0.2,0.1c0,0,0,0.2,0,0.3c0,0.3,0,0.5,0.1,0.6c0,0,0,0.1,0,0.1c0,0,0.1,0.1,0.1,0.1
		c0.1,0.1,0.2,0.2,0.2,0.3c0,0.1-0.1,0.2-0.3,0.3c-0.2,0.1-0.5,0.1-0.9,0.1c-0.8,0-1.2-0.2-1.2-0.5c0-0.1,0-0.1,0-0.1
		c0,0,0.1-0.1,0.2-0.1c0.1-0.1,0.2-0.1,0.2-0.2c0-0.1,0.1-0.2,0.1-0.4c0-0.2,0-0.7,0-1.6c0-0.3,0-0.5,0-0.6c0-0.1-0.1-0.2-0.2-0.2
		c-0.1,0-0.2-0.1-0.2-0.1c0,0,0-0.1,0-0.1c0-0.1,0-0.1,0.1-0.2c0.1-0.1,0.1-0.1,0.3-0.1c0.1,0,0.2,0,0.4,0c0.1,0,0.2,0,0.5,0
		c0.1,0,0.1,0,0.3,0c0.2,0,0.5,0,0.8,0c0.2,0,0.3,0,0.4,0c0.5,0,0.8,0.1,1.1,0.3c0.3,0.2,0.4,0.5,0.4,0.8c0,0.2,0,0.4-0.1,0.5
		c-0.1,0.2-0.2,0.3-0.4,0.4c-0.1,0-0.1,0.1-0.1,0.1c0,0.1,0.1,0.1,0.2,0.2c0.2,0.1,0.4,0.2,0.5,0.4c0.1,0.2,0.2,0.4,0.2,0.8
		c0,0.1,0,0.2,0.1,0.3c0,0,0.1,0.1,0.3,0.1c0,0,0.1,0,0.1,0.1c0,0,0,0.1,0,0.1c0,0.1,0,0.1-0.1,0.2c-0.1,0.1-0.1,0.1-0.2,0.2
		c-0.2,0.1-0.4,0.1-0.7,0.1c-0.4,0-0.7-0.1-0.9-0.3c-0.1-0.1-0.2-0.2-0.2-0.4c-0.1-0.2-0.1-0.4-0.2-0.7c0-0.2-0.1-0.3-0.2-0.4
		C39.2,54.9,39.1,54.8,39,54.8L39,54.8z M38.8,53.2l0,0.8c0,0,0,0,0,0c0,0.1,0,0.1,0,0.2c0,0,0.1,0,0.1,0c0.2,0,0.3,0,0.4-0.1
		c0.1-0.1,0.1-0.3,0.1-0.5c0-0.4-0.1-0.6-0.4-0.6c-0.1,0-0.1,0-0.2,0.1C38.8,53,38.8,53.1,38.8,53.2z"/>
	<path class="st19" d="M43.1,54.9c-0.1,0-0.1,0-0.2,0.1c0,0,0,0.2,0,0.3c0,0.3,0,0.5,0.1,0.6c0,0,0,0.1,0,0.1c0,0,0.1,0.1,0.1,0.1
		c0.1,0.1,0.2,0.2,0.2,0.3c0,0.1-0.1,0.2-0.3,0.3c-0.2,0.1-0.5,0.1-0.9,0.1c-0.8,0-1.2-0.2-1.2-0.5c0-0.1,0-0.1,0-0.1
		c0,0,0.1-0.1,0.2-0.1c0.1-0.1,0.2-0.1,0.2-0.2c0-0.1,0.1-0.2,0.1-0.4c0-0.2,0-0.7,0-1.6c0-0.3,0-0.5,0-0.6c0-0.1-0.1-0.2-0.2-0.2
		c-0.1,0-0.2-0.1-0.2-0.1c0,0,0-0.1,0-0.1c0-0.1,0-0.1,0.1-0.2c0.1-0.1,0.1-0.1,0.3-0.1c0.1,0,0.2,0,0.4,0c0.1,0,0.2,0,0.5,0
		c0.1,0,0.1,0,0.3,0c0.2,0,0.5,0,0.8,0c0.2,0,0.3,0,0.4,0c0.5,0,0.8,0.1,1.1,0.3c0.3,0.2,0.4,0.5,0.4,0.8c0,0.2,0,0.4-0.1,0.5
		c-0.1,0.2-0.2,0.3-0.4,0.4c-0.1,0-0.1,0.1-0.1,0.1c0,0.1,0.1,0.1,0.2,0.2c0.2,0.1,0.4,0.2,0.5,0.4c0.1,0.2,0.2,0.4,0.2,0.8
		c0,0.1,0,0.2,0.1,0.3c0,0,0.1,0.1,0.3,0.1c0,0,0.1,0,0.1,0.1c0,0,0,0.1,0,0.1c0,0.1,0,0.1-0.1,0.2c-0.1,0.1-0.1,0.1-0.2,0.2
		c-0.2,0.1-0.4,0.1-0.7,0.1c-0.4,0-0.7-0.1-0.9-0.3c-0.1-0.1-0.2-0.2-0.2-0.4c-0.1-0.2-0.1-0.4-0.2-0.7c0-0.2-0.1-0.3-0.2-0.4
		C43.3,54.9,43.2,54.9,43.1,54.9L43.1,54.9z M42.9,53.2l0,0.8c0,0,0,0,0,0c0,0.1,0,0.1,0,0.2c0,0,0.1,0,0.1,0c0.2,0,0.3,0,0.4-0.1
		c0.1-0.1,0.1-0.3,0.1-0.5c0-0.4-0.1-0.6-0.4-0.6C43,53,43,53,43,53C42.9,53.1,42.9,53.1,42.9,53.2z"/>
	<path class="st21" d="M43.1,54.9c-0.1,0-0.1,0-0.2,0.1c0,0,0,0.2,0,0.3c0,0.3,0,0.5,0.1,0.6c0,0,0,0.1,0,0.1c0,0,0.1,0.1,0.1,0.1
		c0.1,0.1,0.2,0.2,0.2,0.3c0,0.1-0.1,0.2-0.3,0.3c-0.2,0.1-0.5,0.1-0.9,0.1c-0.8,0-1.2-0.2-1.2-0.5c0-0.1,0-0.1,0-0.1
		c0,0,0.1-0.1,0.2-0.1c0.1-0.1,0.2-0.1,0.2-0.2c0-0.1,0.1-0.2,0.1-0.4c0-0.2,0-0.7,0-1.6c0-0.3,0-0.5,0-0.6c0-0.1-0.1-0.2-0.2-0.2
		c-0.1,0-0.2-0.1-0.2-0.1c0,0,0-0.1,0-0.1c0-0.1,0-0.1,0.1-0.2c0.1-0.1,0.1-0.1,0.3-0.1c0.1,0,0.2,0,0.4,0c0.1,0,0.2,0,0.5,0
		c0.1,0,0.1,0,0.3,0c0.2,0,0.5,0,0.8,0c0.2,0,0.3,0,0.4,0c0.5,0,0.8,0.1,1.1,0.3c0.3,0.2,0.4,0.5,0.4,0.8c0,0.2,0,0.4-0.1,0.5
		c-0.1,0.2-0.2,0.3-0.4,0.4c-0.1,0-0.1,0.1-0.1,0.1c0,0.1,0.1,0.1,0.2,0.2c0.2,0.1,0.4,0.2,0.5,0.4c0.1,0.2,0.2,0.4,0.2,0.8
		c0,0.1,0,0.2,0.1,0.3c0,0,0.1,0.1,0.3,0.1c0,0,0.1,0,0.1,0.1c0,0,0,0.1,0,0.1c0,0.1,0,0.1-0.1,0.2c-0.1,0.1-0.1,0.1-0.2,0.2
		c-0.2,0.1-0.4,0.1-0.7,0.1c-0.4,0-0.7-0.1-0.9-0.3c-0.1-0.1-0.2-0.2-0.2-0.4c-0.1-0.2-0.1-0.4-0.2-0.7c0-0.2-0.1-0.3-0.2-0.4
		C43.3,54.9,43.2,54.9,43.1,54.9L43.1,54.9z M42.9,53.2l0,0.8c0,0,0,0,0,0c0,0.1,0,0.1,0,0.2c0,0,0.1,0,0.1,0c0.2,0,0.3,0,0.4-0.1
		c0.1-0.1,0.1-0.3,0.1-0.5c0-0.4-0.1-0.6-0.4-0.6C43,53,43,53,43,53C42.9,53.1,42.9,53.1,42.9,53.2z"/>
</g>
</svg>
